<svg width="16" height="16" viewBox="0 0 16 16" fill="none" xmlns="http://www.w3.org/2000/svg">
	<path d="M4.91999 0.298828H1.07C0.865779 0.298828 0.669926 0.379953 0.525523 0.524356C0.38112 0.668759 0.299995 0.864611 0.299995 1.06883V4.91883C0.299995 5.12304 0.38112 5.3189 0.525523 5.4633C0.669926 5.6077 0.865779 5.68883 1.07 5.68883C1.27421 5.68883 1.47006 5.6077 1.61447 5.4633C1.75887 5.3189 1.84 5.12304 1.84 4.91883V1.83883H4.91999C5.12421 1.83883 5.32006 1.7577 5.46447 1.6133C5.60887 1.4689 5.68999 1.27304 5.68999 1.06883C5.68999 0.864611 5.60887 0.668759 5.46447 0.524356C5.32006 0.379953 5.12421 0.298828 4.91999 0.298828ZM4.91999 14.1588H1.84V11.0788C1.84 10.8746 1.75887 10.6788 1.61447 10.5344C1.47006 10.39 1.27421 10.3088 1.07 10.3088C0.865779 10.3088 0.669926 10.39 0.525523 10.5344C0.38112 10.6788 0.299995 10.8746 0.299995 11.0788V14.9288C0.299995 15.133 0.38112 15.3289 0.525523 15.4733C0.669926 15.6177 0.865779 15.6988 1.07 15.6988H4.91999C5.12421 15.6988 5.32006 15.6177 5.46447 15.4733C5.60887 15.3289 5.68999 15.133 5.68999 14.9288C5.68999 14.7246 5.60887 14.5288 5.46447 14.3844C5.32006 14.24 5.12421 14.1588 4.91999 14.1588ZM14.93 0.298828H11.08C10.8758 0.298828 10.6799 0.379953 10.5355 0.524356C10.3911 0.668759 10.31 0.864611 10.31 1.06883C10.31 1.27304 10.3911 1.4689 10.5355 1.6133C10.6799 1.7577 10.8758 1.83883 11.08 1.83883H14.16V4.91883C14.16 5.12304 14.2411 5.3189 14.3855 5.4633C14.5299 5.6077 14.7258 5.68883 14.93 5.68883C15.1342 5.68883 15.3301 5.6077 15.4745 5.4633C15.6189 5.3189 15.7 5.12304 15.7 4.91883V1.06883C15.7 0.864611 15.6189 0.668759 15.4745 0.524356C15.3301 0.379953 15.1342 0.298828 14.93 0.298828ZM14.93 10.3088C14.7258 10.3088 14.5299 10.39 14.3855 10.5344C14.2411 10.6788 14.16 10.8746 14.16 11.0788V14.1588H11.08C10.8758 14.1588 10.6799 14.24 10.5355 14.3844C10.3911 14.5288 10.31 14.7246 10.31 14.9288C10.31 15.133 10.3911 15.3289 10.5355 15.4733C10.6799 15.6177 10.8758 15.6988 11.08 15.6988H14.93C15.1342 15.6988 15.3301 15.6177 15.4745 15.4733C15.6189 15.3289 15.7 15.133 15.7 14.9288V11.0788C15.7 10.8746 15.6189 10.6788 15.4745 10.5344C15.3301 10.39 15.1342 10.3088 14.93 10.3088Z" />
</svg>
