<svg width="16" height="16" viewBox="0 0 16 16" fill="none" xmlns="http://www.w3.org/2000/svg">
    <path fill-rule="evenodd" clip-rule="evenodd" d="M8 3.33333C5.42267 3.33333 3.33333 5.42267 3.33333 8C3.33333 10.5773 5.42267 12.6667 8 12.6667C10.5774 12.6667 12.6667 10.5774 12.6667 8C12.6667 5.42267 10.5773 3.33333 8 3.33333ZM2 8C2 4.68629 4.68629 2 8 2C11.3137 2 14 4.6863 14 8C14 11.3137 11.3137 14 8 14C4.6863 14 2 11.3137 2 8ZM10.8226 5.73235C11.0931 5.98209 11.11 6.40386 10.8602 6.67441L7.57816 10.23C7.45196 10.3667 7.27436 10.4444 7.08829 10.4444C6.90222 10.4444 6.72462 10.3667 6.59842 10.23L5.13975 8.64969C4.89002 8.37914 4.9069 7.95737 5.17745 7.70764C5.448 7.4579 5.86977 7.47478 6.1195 7.74533L7.08831 8.79489L9.8805 5.77003C10.1302 5.49949 10.552 5.48262 10.8226 5.73235Z" />
</svg>