<svg width="14" height="14" viewBox="0 0 14 14" fill="none" xmlns="http://www.w3.org/2000/svg">
	<path fill-rule="evenodd" clip-rule="evenodd" d="M7.00004 13.6666C10.6819 13.6666 13.6667 10.6818 13.6667 6.99992C13.6667 3.31802 10.6819 0.333252 7.00004 0.333252C3.31814 0.333252 0.333374 3.31802 0.333374 6.99992C0.333374 10.6818 3.31814 13.6666 7.00004 13.6666ZM5.0893 3.91066C4.76386 3.58523 4.23622 3.58523 3.91079 3.91066C3.58535 4.2361 3.58535 4.76374 3.91079 5.08917L5.82157 6.99996L3.91079 8.91074C3.58535 9.23618 3.58535 9.76381 3.91079 10.0893C4.23622 10.4147 4.76386 10.4147 5.0893 10.0893L7.00008 8.17847L8.91079 10.0892C9.23622 10.4146 9.76386 10.4146 10.0893 10.0892C10.4147 9.76374 10.4147 9.2361 10.0893 8.91066L8.17859 6.99996L10.0893 5.08925C10.4147 4.76381 10.4147 4.23618 10.0893 3.91074C9.76386 3.5853 9.23622 3.5853 8.91079 3.91074L7.00008 5.82145L5.0893 3.91066Z"/>
</svg>
