<svg width="16" height="16" viewBox="0 0 16 16" fill="none" xmlns="http://www.w3.org/2000/svg">
	<path fill-rule="evenodd" clip-rule="evenodd" d="M3.52876 3.52925C3.78911 3.2689 4.21122 3.2689 4.47157 3.52925L8.00016 7.05786L11.5288 3.52925C11.7891 3.2689 12.2112 3.2689 12.4716 3.52925C12.7319 3.78959 12.7319 4.2117 12.4716 4.47205L8.94297 8.00067L12.4716 11.5293C12.7319 11.7896 12.7319 12.2117 12.4716 12.4721C12.2112 12.7324 11.7891 12.7324 11.5288 12.4721L8.00016 8.94348L4.47157 12.4721C4.21122 12.7324 3.78911 12.7324 3.52876 12.4721C3.26841 12.2117 3.26841 11.7896 3.52876 11.5293L7.05736 8.00067L3.52876 4.47205C3.26841 4.2117 3.26841 3.78959 3.52876 3.52925Z" />
</svg>
