<svg width="16" height="16" viewBox="0 0 16 16" fill="none" xmlns="http://www.w3.org/2000/svg">
	<path d="M2.10746 2H14.2795V3.33333H10.5395C10.3874 5.04982 10.2953 6.77109 10.2635 8.494C10.2475 9.48733 10.2595 10.394 10.3101 11.094C10.3359 11.4456 10.3692 11.7264 10.4101 11.9367C10.4468 12.126 10.4781 12.192 10.4768 12.1933C10.9035 12.7333 12.1728 13.0667 13.5321 11.7273L14.0068 11.2593L14.9428 12.2093L14.4675 12.6773C12.7408 14.3787 10.4755 14.394 9.4048 12.9873C9.23013 12.7573 9.14946 12.44 9.1008 12.1913C9.04613 11.9087 9.00746 11.566 8.98013 11.1893C8.92546 10.434 8.91346 9.48267 8.93013 8.47267C8.96179 6.75697 9.05207 5.04286 9.2008 3.33333H6.89013C6.78146 4.97533 6.48013 7.128 5.8768 9.028C5.53546 10.1073 5.08546 11.1393 4.4928 11.9547C3.90013 12.7713 3.1248 13.4233 2.1288 13.6193L1.4748 13.748L1.2168 12.44L1.8708 12.3113C2.42346 12.2027 2.93813 11.8273 3.41413 11.1713C3.89013 10.516 4.28746 9.63133 4.60613 8.62467C5.15813 6.88667 5.44546 4.88667 5.55413 3.33333H2.1068L2.10746 2Z" />
</svg>
