<svg fill="none" height="16" viewBox="0 0 16 16" width="16" xmlns="http://www.w3.org/2000/svg">
    <path clip-rule="evenodd" 
        d="M6.6665 2.66683C6.29831 2.66683 5.99984 2.96531 5.99984 3.3335V4.00016H9.99984V3.3335C9.99984 2.9653 9.70137 2.66683 9.33317 2.66683H6.6665ZM11.3332 4.00016V3.3335C11.3332 2.22893 10.4378 1.3335 9.33317 1.3335H6.6665C5.56193 1.3335 4.6665 2.22893 4.6665 3.3335V4.00016H3.33317C2.96498 4.00016 2.6665 4.29864 2.6665 4.66683C2.6665 5.03502 2.96498 5.3335 3.33317 5.3335V12.0002C3.33317 13.1048 4.22861 14.0002 5.33317 14.0002H10.6665C11.7711 14.0002 12.6665 13.1048 12.6665 12.0002V5.3335C13.0347 5.3335 13.3332 5.03502 13.3332 4.66683C13.3332 4.29864 13.0347 4.00016 12.6665 4.00016H11.3332ZM11.3332 5.3335H4.6665V12.0002C4.6665 12.3684 4.96497 12.6668 5.33317 12.6668H10.6665C11.0347 12.6668 11.3332 12.3684 11.3332 12.0002V5.3335ZM6.6665 6.66683C7.03469 6.66683 7.33317 6.96531 7.33317 7.3335V10.6668C7.33317 11.035 7.03469 11.3335 6.6665 11.3335C6.29831 11.3335 5.99984 11.035 5.99984 10.6668V7.3335C5.99984 6.96531 6.29831 6.66683 6.6665 6.66683ZM9.33317 6.66683C9.70136 6.66683 9.99984 6.96531 9.99984 7.3335V10.6668C9.99984 11.035 9.70136 11.3335 9.33317 11.3335C8.96498 11.3335 8.6665 11.035 8.6665 10.6668V7.3335C8.6665 6.96531 8.96498 6.66683 9.33317 6.66683Z"
        fill-rule="evenodd"/>
</svg>