<svg fill="none" height="16" viewBox="0 0 16 16" width="16" xmlns="http://www.w3.org/2000/svg">
  <path d="M 5.16647,13.6673 4.89981,11.534 C 4.75536,11.4784 4.61936,11.4118 4.4918,11.334 4.36425,11.2562 4.23914,11.1729 4.11647,11.084 L 2.13314,11.9173 0.299805,8.75065 2.01647,7.45065 C 2.00536,7.37287 1.9998,7.29798 1.9998,7.22598 v -0.45 c 0,-0.07244 0.00556,-0.14755 0.01667,-0.22533 l -1.716665,-1.3 1.833335,-3.16667 1.98333,0.83334 c 0.12222,-0.08889 0.25,-0.17222 0.38333,-0.25 0.13334,-0.07778 0.26667,-0.14445 0.40001,-0.2 L 5.16647,0.333984 H 8.83314 L 9.0998,2.46732 c 0.14445,0.05555 0.28067,0.12222 0.40867,0.2 0.128,0.07778 0.25289,0.16111 0.37467,0.25 L 11.8665,2.08398 13.6998,5.25065 C 13.12851,5.6831379 11.138319,7.1905987 12.71,6 H 9.14892 C 9.03692,5.76562 8.88165,5.54917 8.68314,5.35065 8.22758,4.89509 7.67758,4.66732 7.03314,4.66732 c -0.65556,0 -1.20845,0.22777 -1.65867,0.68333 -0.45022,0.45556 -0.67511,1.00556 -0.67467,1.65 4.5e-4,0.64444 0.22556,1.19445 0.67534,1.65 C 5.81732,9.09851 6.35894,9.32622 7,9.33379 v 4.33351 z" clip-rule="evenodd" fill-rule="evenodd" />
  <path fill-rule="evenodd" clip-rule="evenodd" d="M 14.191707,10.766024 8.545,7.136 v 7.260024 z" />
</svg>

