<svg width="16" height="16" viewBox="0 0 16 16" fill="none" xmlns="http://www.w3.org/2000/svg">
    <path fill-rule="evenodd" clip-rule="evenodd" d="M11.0056 4.21125C11.2021 4.02484 11.4648 3.92388 11.7359 3.93058C12.007 3.93728 12.2644 4.05109 12.4513 4.24698C12.6383 4.44287 12.7396 4.70478 12.7328 4.9751C12.7261 5.24543 12.612 5.50202 12.4155 5.68843L5.39142 12.3692L3.58134 12.6064L4.32338 10.5373L11.005 4.21188L11.0056 4.21125ZM13.3681 3.37528C12.9495 2.93721 12.3737 2.68264 11.767 2.66747C11.1603 2.65229 10.5724 2.87775 10.1323 3.29434L3.33906 9.72411C3.26705 9.79224 3.21209 9.87628 3.1786 9.96946L2.03699 13.1546C2.00043 13.2566 1.99076 13.3663 2.00892 13.4731C2.02709 13.58 2.07247 13.6803 2.14072 13.7646C2.20898 13.8489 2.29781 13.9143 2.3987 13.9546C2.49959 13.9948 2.60915 14.0085 2.71688 13.9944L5.76118 13.596C5.89453 13.5787 6.0189 13.5196 6.11634 13.4272L13.2901 6.60408C13.7297 6.1861 13.9848 5.61115 13.9993 5.00565C14.0139 4.40016 13.7872 3.81371 13.3681 3.37528ZM8.97735 12.7354C8.80914 12.7354 8.64782 12.802 8.52888 12.9206C8.40994 13.0392 8.34312 13.2 8.34312 13.3677C8.34312 13.5354 8.40994 13.6963 8.52888 13.8149C8.64782 13.9335 8.80914 14.0001 8.97735 14.0001H12.7827C12.9509 14.0001 13.1122 13.9335 13.2312 13.8149C13.3501 13.6963 13.4169 13.5354 13.4169 13.3677C13.4169 13.2 13.3501 13.0392 13.2312 12.9206C13.1122 12.802 12.9509 12.7354 12.7827 12.7354H8.97735Z" />
</svg>