<svg fill="none" height="16" viewBox="0 0 16 16" width="16" xmlns="http://www.w3.org/2000/svg">
    <path clip-rule="evenodd"
          d="M4.45616 1.3335C3.46786 1.3335 2.66669 2.14753 2.66669 3.15168V12.8486C2.66669 13.8528 3.46786 14.6668 4.45616 14.6668H12.2105C13.1989 14.6668 14 13.8528 14 12.8486V6.78804C14 6.6273 13.9372 6.47315 13.8253 6.35949L9.05338 1.51102C8.99629 1.45302 8.92883 1.40798 8.85546 1.37779C8.78502 1.34881 8.70908 1.3335 8.6316 1.3335H4.45616ZM8.03511 2.54562H4.45616C4.12672 2.54562 3.85967 2.81696 3.85967 3.15168V12.8486C3.85967 13.1834 4.12673 13.4547 4.45616 13.4547H12.2105C12.54 13.4547 12.807 13.1834 12.807 12.8486V7.3941H8.6316C8.30216 7.3941 8.03511 7.12277 8.03511 6.78804V2.54562ZM11.9635 6.182L9.22809 3.40273V6.182H11.9635Z"
          fill-rule="evenodd"/>
</svg>