<svg width="16" height="16" viewBox="0 0 16 16" fill="none" xmlns="http://www.w3.org/2000/svg">
    <path d="M13.7619 4.4101H7.61857L6.57357 3.02394C6.48934 2.91288 6.37904 2.82259 6.25166 2.76047C6.12429 2.69835 5.98347 2.66615 5.84071 2.66651H2.90476C2.6648 2.66651 2.43467 2.75836 2.265 2.92185C2.09532 3.08534 2 3.30709 2 3.5383V13.128C2 13.3593 2.09532 13.581 2.265 13.7445C2.43467 13.908 2.6648 13.9998 2.90476 13.9998H13.7619C14.0019 13.9998 14.232 13.908 14.4017 13.7445C14.5713 13.581 14.6667 13.3593 14.6667 13.128V5.28189C14.6667 5.05068 14.5713 4.82893 14.4017 4.66544C14.232 4.50195 14.0019 4.4101 13.7619 4.4101ZM2.90476 5.28189V3.5383H5.84071L7.07119 5.28189H2.90476Z" />
</svg>