<svg width="16" height="16" viewBox="0 0 16 16" fill="none" xmlns="http://www.w3.org/2000/svg">
	<path d="M6.66667 1.33331C5.95942 1.33331 5.28115 1.61426 4.78105 2.11436C4.28095 2.61446 4 3.29274 4 3.99998V5.99998H2V7.33331H4V12C4 12.3536 3.85952 12.6927 3.60948 12.9428C3.35943 13.1928 3.02029 13.3333 2.66667 13.3333H2V14.6666H2.66667C3.37391 14.6666 4.05219 14.3857 4.55228 13.8856C5.05238 13.3855 5.33333 12.7072 5.33333 12V7.33331H7.33333V5.99998H5.33333V3.99998C5.33333 3.64636 5.47381 3.30722 5.72386 3.05717C5.97391 2.80712 6.31305 2.66665 6.66667 2.66665H7.33333V1.33331H6.66667ZM10.1347 11.3313L7.92733 14H9.65733L11 12.3773L12.3427 14H14.0727L11.8653 11.3313L14.07 8.66665H12.3393L11 10.2853L9.66067 8.66665H7.93067L10.1347 11.3313Z" />
</svg>
