<svg fill="none" height="16" viewBox="0 0 16 16" width="16" xmlns="http://www.w3.org/2000/svg">
  <path
     clip-rule="evenodd"
     fill-rule="evenodd"
     d="m 6.1466588,3.9854041 c -1.0233547,0 -1.8529412,0.8295865 -1.8529412,1.8529412 0,1.0233174 0.8295927,1.8529411 1.8529412,1.8529411 1.0233174,0 1.8529412,-0.8296237 1.8529412,-1.8529411 0,-1.0233485 -0.8296238,-1.8529412 -1.8529412,-1.8529412 z M 3.0584235,5.8383453 c 0,-1.705583 1.3826462,-3.0882353 3.0882353,-3.0882353 1.7055707,0 3.0882353,1.3826462 3.0882353,3.0882353 0,1.7055706 -1.3826646,3.0882353 -3.0882353,3.0882353 -1.7055891,0 -3.0882353,-1.3826647 -3.0882353,-3.0882353 z M 9.2348941,3.367757 c 0,-0.3411141 0.2765209,-0.617647 0.617647,-0.617647 1.7055709,0 3.0882349,1.3826462 3.0882349,3.0882353 0,1.7055706 -1.382664,3.0882353 -3.0882349,3.0882353 -0.3411261,0 -0.617647,-0.2765209 -0.617647,-0.6176471 0,-0.3411262 0.2765209,-0.6176471 0.617647,-0.6176471 1.0233179,0 1.8529409,-0.8296237 1.8529409,-1.8529411 0,-1.0233485 -0.829623,-1.8529412 -1.8529409,-1.8529412 -0.3411261,0 -0.617647,-0.2765329 -0.617647,-0.6176471 z M 3.1835959,10.371566 C 3.968965,9.8479861 5.018372,9.5442276 6.1466588,9.5442276 c 1.1282561,0 2.1777002,0.3037585 2.9630382,0.8273384 0.7810763,0.520738 1.360491,1.307929 1.360491,2.260897 0,0.341126 -0.276521,0.617647 -0.6176469,0.617647 -0.3411261,0 -0.617647,-0.276521 -0.617647,-0.617647 0,-0.411477 -0.2502089,-0.85958 -0.8104151,-1.233071 -0.5558823,-0.370588 -1.3593794,-0.61987 -2.2778202,-0.61987 -0.9184165,0 -1.7219505,0.249282 -2.2778453,0.61987 -0.5602121,0.373491 -0.81039,0.821594 -0.81039,1.233071 0,0.341126 -0.2765329,0.617647 -0.617647,0.617647 -0.3411142,0 -0.6176471,-0.276521 -0.6176471,-0.617647 0,-0.952968 0.5794086,-1.740159 1.3604665,-2.260897 z M 10.48668,10.160701 c 0.07819,-0.3319848 0.410796,-0.5377235 0.742844,-0.4594675 1.546464,0.3644115 2.946547,1.4237385 2.946547,2.9311675 0,0.341127 -0.276521,0.617647 -0.617648,0.617647 -0.341126,0 -0.617647,-0.27652 -0.617647,-0.617647 0,-0.643958 -0.662364,-1.414844 -1.994629,-1.728856 -0.331986,-0.07819 -0.537724,-0.410797 -0.459467,-0.742844 z" />
</svg>
