<svg width="16" height="16" viewBox="0 0 16 16" fill="none" xmlns="http://www.w3.org/2000/svg">
	<path d="M6.68693 2.50506C6.77622 2.14791 7.13773 1.93083 7.49487 2.02003C7.85202 2.10932 8.0691 2.47083 7.9799 2.82797L7.3536 5.33318H9.9799L10.6869 2.50506C10.7762 2.14791 11.1377 1.93083 11.4949 2.02003C11.852 2.10932 12.0691 2.47083 11.9799 2.82797L11.3536 5.33318H12.6667C13.0349 5.33318 13.3334 5.63166 13.3334 5.99985C13.3334 6.36804 13.0349 6.66651 12.6667 6.66651H11.0203L10.3536 9.33318H12.6667C13.0349 9.33318 13.3334 9.63166 13.3334 9.99985C13.3334 10.368 13.0349 10.6665 12.6667 10.6665H10.0203L9.31323 13.4946C9.22395 13.8518 8.86244 14.0689 8.50529 13.9797C8.14814 13.8904 7.93106 13.5289 8.02026 13.1717L8.64657 10.6665H6.02026L5.31323 13.4946C5.22395 13.8518 4.86244 14.0689 4.50529 13.9797C4.14814 13.8904 3.93106 13.5289 4.02026 13.1717L4.64657 10.6665H3.33341C2.96522 10.6665 2.66675 10.368 2.66675 9.99985C2.66675 9.63166 2.96522 9.33318 3.33341 9.33318H4.9799L5.64657 6.66651H3.33341C2.96522 6.66651 2.66675 6.36804 2.66675 5.99985C2.66675 5.63166 2.96522 5.33318 3.33341 5.33318H5.9799L6.68693 2.50506ZM6.3536 9.33318H8.9799L9.64657 6.66651H7.02026L6.3536 9.33318Z" />
</svg>
