<svg width="16" height="16" viewBox="0 0 16 16" fill="none" xmlns="http://www.w3.org/2000/svg">
	<path d="m 7.33338,2.33266 c 0,-0.36819 0.29848,-0.66666 0.66667,-0.66666 0.36819,0 0.66667,0.29847 0.66667,0.66666 V 8.05654 L 10.1954,6.52789 c 0.2603,-0.26035 0.6824,-0.26035 0.9428,0 0.2603,0.26035 0.2603,0.68246 0,0.94281 l -2.66669,2.66667 c -0.12065,0.12067 -0.28734,0.19533 -0.47146,0.19533 -0.18412,0 -0.3508,-0.07467 -0.47144,-0.19534 L 4.86193,7.4707 c -0.26035,-0.26035 -0.26035,-0.68246 0,-0.94281 0.26035,-0.26035 0.68246,-0.26035 0.94281,0 L 7.33338,8.05654 Z M 3.33333,9.99933 C 3.33333,9.63114 3.03486,9.33266 2.66667,9.33266 2.29848,9.33266 2,9.63114 2,9.99933 v 2.33337 c 0,1.1045 0.89543,2 2,2 h 8 c 1.1046,0 2,-0.8955 2,-2 V 9.99933 c 0,-0.36819 -0.2985,-0.66667 -0.6667,-0.66667 -0.3682,0 -0.6666,0.29848 -0.6666,0.66667 v 2.33337 c 0,0.3682 -0.2985,0.6666 -0.6667,0.6666 H 4 c -0.36819,0 -0.66667,-0.2984 -0.66667,-0.6666 z" clip-rule="evenodd" fill-rule="evenodd" />
</svg>