<svg width="16" height="16" viewBox="0 0 16 16" fill="none" xmlns="http://www.w3.org/2000/svg">
	<path fill-rule="evenodd" clip-rule="evenodd" d="M7.99992 2.81449C7.31899 2.81449 6.64473 2.94861 6.01563 3.20919C5.38654 3.46977 4.81493 3.85171 4.33344 4.3332C3.85195 4.81468 3.47001 5.38629 3.20943 6.01539C2.94885 6.64449 2.81473 7.31875 2.81473 7.99967C2.81473 8.6806 2.94885 9.35486 3.20943 9.98396C3.47001 10.6131 3.85195 11.1847 4.33344 11.6662C4.81493 12.1476 5.38654 12.5296 6.01563 12.7902C6.64473 13.0507 7.31899 13.1849 7.99992 13.1849C9.37512 13.1849 10.694 12.6386 11.6664 11.6662C12.6388 10.6937 13.1851 9.37487 13.1851 7.99967C13.1851 6.62448 12.6388 5.30561 11.6664 4.3332C10.694 3.36078 9.37512 2.81449 7.99992 2.81449ZM1.33325 7.99967C1.33325 6.23156 2.03563 4.53587 3.28587 3.28563C4.53612 2.03539 6.23181 1.33301 7.99992 1.33301C9.76803 1.33301 11.4637 2.03539 12.714 3.28563C13.9642 4.53587 14.6666 6.23156 14.6666 7.99967C14.6666 9.76778 13.9642 11.4635 12.714 12.7137C11.4637 13.964 9.76803 14.6663 7.99992 14.6663C6.23181 14.6663 4.53612 13.964 3.28587 12.7137C2.03563 11.4635 1.33325 9.76778 1.33325 7.99967ZM7.25918 5.03671C7.25918 4.84026 7.33722 4.65184 7.47614 4.51293C7.61505 4.37401 7.80346 4.29597 7.99992 4.29597H8.00733C8.20378 4.29597 8.39219 4.37401 8.53111 4.51293C8.67003 4.65184 8.74807 4.84026 8.74807 5.03671C8.74807 5.23317 8.67003 5.42158 8.53111 5.56049C8.39219 5.69941 8.20378 5.77745 8.00733 5.77745H7.99992C7.80346 5.77745 7.61505 5.69941 7.47614 5.56049C7.33722 5.42158 7.25918 5.23317 7.25918 5.03671ZM7.26659 10.9626C7.26659 11.1591 7.34463 11.3475 7.48354 11.4864C7.62246 11.6253 7.81087 11.7034 8.00733 11.7034C8.20378 11.7034 8.39219 11.6253 8.53111 11.4864C8.67003 11.3475 8.74807 11.1591 8.74807 10.9626V7.25893C8.74807 7.06248 8.67003 6.87407 8.53111 6.73515C8.39219 6.59624 8.20378 6.51819 8.00733 6.51819C7.81087 6.51819 7.62246 6.59624 7.48354 6.73515C7.34463 6.87407 7.26659 7.06248 7.26659 7.25893V10.9626Z" />
</svg>
