<svg fill="none" height="16" viewBox="0 0 16 16" width="16" xmlns="http://www.w3.org/2000/svg">
    <path clip-rule="evenodd" 
        d="M1.78519 7.61467C1.63037 7.76944 1.50757 7.95319 1.42378 8.15543C1.34 8.35766 1.29688 8.57443 1.29688 8.79333C1.29688 9.01224 1.34 9.229 1.42378 9.43124C1.50757 9.63348 1.63037 9.81723 1.78519 9.972L6.02785 14.2147C6.18262 14.3695 6.36637 14.4923 6.56861 14.5761C6.77085 14.6599 6.98761 14.703 7.20652 14.703C7.42543 14.703 7.64219 14.6599 7.84443 14.5761C8.04666 14.4923 8.23042 14.3695 8.38519 14.2147L13.5119 9.088C13.6666 8.9332 13.7894 8.74944 13.8731 8.5472C13.9568 8.34497 13.9999 8.12822 13.9999 7.90933V3C13.9999 2.73478 13.8945 2.48043 13.707 2.29289C13.5194 2.10536 13.2651 2 12.9999 2H8.08985C7.87097 1.99996 7.65422 2.04303 7.45198 2.12677C7.24974 2.2105 7.06598 2.33325 6.91119 2.488L1.78519 7.61467ZM9.99185 4.66667C9.25185 4.66667 8.66652 5.22133 8.66652 5.992C8.66652 6.76333 9.25185 7.33333 9.99185 7.33333C10.7472 7.33333 11.3332 6.76333 11.3332 5.992C11.3332 5.22133 10.7465 4.66667 9.99185 4.66667Z"
        fill-rule="evenodd"/>
</svg>