<svg fill="none" height="16" viewBox="0 0 16 16" width="16" xmlns="http://www.w3.org/2000/svg">
  <path
     d="m 2.666,8 c 0,-0.7364924 0.5969853,-1.3335 1.3333749,-1.3335 0.7363896,0 1.333375,0.5970076 1.333375,1.3335 0,0.7364924 -0.5969854,1.3335 -1.333375,1.3335 C 3.2629853,9.3335 2.666,8.7364924 2.666,8 Z m 4.0001248,0 c 0,-0.7364924 0.5969516,-1.3335 1.3333749,-1.3335 0.7364233,0 1.333375,0.5970076 1.333375,1.3335 0,0.7364924 -0.5969517,1.3335 -1.333375,1.3335 C 7.2630764,9.3335 6.6661248,8.7364924 6.6661248,8 Z M 10.66625,8 c 0,-0.7364924 0.596951,-1.3335 1.333375,-1.3335 0.736423,0 1.333374,0.5970076 1.333374,1.3335 0,0.7364924 -0.596951,1.3335 -1.333374,1.3335 C 11.263201,9.3335 10.66625,8.7364924 10.66625,8 Z"
     clip-rule="evenodd"
     fill-rule="evenodd" />
</svg>
