<svg fill="none" height="16" viewBox="0 0 16 16" width="16" xmlns="http://www.w3.org/2000/svg">
  <path
     fill-rule="evenodd"
     clip-rule="evenodd"
     d="m 8,2.666 c 0.7364924,0 1.3335,0.5969854 1.3335,1.3333751 0,0.7363897 -0.5970076,1.333375 -1.3335,1.333375 -0.7364924,0 -1.3335,-0.5969853 -1.3335,-1.333375 C 6.6665,3.2629854 7.2635076,2.666 8,2.666 Z m 0,4.0001252 c 0.7364924,0 1.3335,0.5969517 1.3335,1.3333751 0,0.7364234 -0.5970076,1.333375 -1.3335,1.333375 -0.7364924,0 -1.3335,-0.5969516 -1.3335,-1.333375 C 6.6665,7.2630769 7.2635076,6.6661252 8,6.6661252 Z M 8,10.66625 c 0.7364924,0 1.3335,0.596952 1.3335,1.333375 0,0.736424 -0.5970076,1.333376 -1.3335,1.333376 -0.7364924,0 -1.3335,-0.596952 -1.3335,-1.333376 0,-0.736423 0.5970076,-1.333375 1.3335,-1.333375 z" />
</svg>
