<svg width="16" height="16" viewBox="0 0 16 16" fill="none" xmlns="http://www.w3.org/2000/svg">
    <path d="M8.10035 4.82352C8.10035 4.64948 8.16949 4.48256 8.29255 4.3595C8.41562 4.23643 8.58254 4.16729 8.75658 4.16729H12.2565C12.3862 4.16741 12.513 4.20595 12.6208 4.27807C12.7286 4.35019 12.8126 4.45263 12.8622 4.57247C12.9118 4.69231 12.9248 4.82417 12.8996 4.95139C12.8743 5.07861 12.8119 5.19549 12.7202 5.28726L11.0665 6.94272C11.3395 7.00922 11.595 7.10021 11.8251 7.22184C12.4744 7.56395 12.9136 8.15194 12.9136 8.97616C12.9136 9.54752 12.7115 10.0331 12.3632 10.3998C12.0255 10.7567 11.581 10.9711 11.1313 11.0796C10.2475 11.2922 9.18444 11.1347 8.39784 10.6185C8.26333 10.5185 8.17209 10.371 8.14279 10.206C8.11349 10.041 8.14834 9.87099 8.24022 9.73083C8.33209 9.59068 8.47404 9.49092 8.63704 9.45196C8.80003 9.41301 8.97175 9.4378 9.11707 9.52128C9.58431 9.82752 10.272 9.93601 10.8242 9.80302C11.0919 9.73914 11.2879 9.62715 11.4104 9.49765C11.5233 9.37865 11.6011 9.21766 11.6011 8.97616C11.6011 8.70667 11.4935 8.5308 11.2126 8.38293C10.8863 8.21056 10.3552 8.10469 9.63243 8.10469C9.50273 8.10457 9.37596 8.06602 9.26815 7.99391C9.16034 7.92179 9.07632 7.81935 9.0267 7.69951C8.97708 7.57967 8.96408 7.44781 8.98936 7.32059C9.01463 7.19337 9.07703 7.07649 9.16869 6.98472L10.6737 5.47976H8.75658C8.58254 5.47976 8.41562 5.41062 8.29255 5.28755C8.16949 5.16448 8.10035 4.99757 8.10035 4.82352ZM4.96181 9.86602C4.65556 9.82227 4.28807 9.96489 4.1017 10.3665C4.06656 10.4464 4.01581 10.5186 3.95243 10.5787C3.88906 10.6387 3.81433 10.6856 3.73262 10.7164C3.65092 10.7472 3.56388 10.7614 3.47661 10.7582C3.38934 10.7549 3.3036 10.7343 3.22441 10.6975C3.14521 10.6607 3.07416 10.6085 3.01541 10.5439C2.95667 10.4792 2.91141 10.4036 2.88229 10.3212C2.85317 10.2389 2.84077 10.1516 2.84583 10.0644C2.85088 9.97722 2.87329 9.89193 2.91173 9.81352C3.35622 8.85629 4.30207 8.44418 5.14993 8.56668C6.0249 8.69355 6.78788 9.39353 6.78788 10.5109C6.78788 11.7647 5.83591 12.4288 5.22167 12.8567C4.95218 13.0457 4.72206 13.2041 4.54619 13.358H6.35039C6.52444 13.358 6.69135 13.4272 6.81442 13.5503C6.93749 13.6733 7.00663 13.8402 7.00663 14.0143C7.00663 14.1883 6.93749 14.3552 6.81442 14.4783C6.69135 14.6014 6.52444 14.6705 6.35039 14.6705H3.50672C3.33268 14.6705 3.16576 14.6014 3.04269 14.4783C2.91962 14.3552 2.85049 14.1883 2.85049 14.0143C2.85049 13.4105 3.11298 12.9547 3.43672 12.6056C3.74121 12.2801 4.1367 12.0141 4.44294 11.8006C5.14293 11.3106 5.47542 11.0096 5.47542 10.5109C5.47542 10.097 5.2418 9.90714 4.96181 9.86602ZM5.12893 0.745256C5.2336 0.801297 5.32111 0.884686 5.38212 0.986537C5.44314 1.08839 5.47539 1.20489 5.47542 1.32362V5.49726H6.09753C6.27157 5.49726 6.43848 5.56639 6.56155 5.68946C6.68462 5.81253 6.75376 5.97944 6.75376 6.15349C6.75376 6.32753 6.68462 6.49445 6.56155 6.61752C6.43848 6.74058 6.27157 6.80972 6.09753 6.80972H3.51459C3.34055 6.80972 3.17363 6.74058 3.05057 6.61752C2.9275 6.49445 2.85836 6.32753 2.85836 6.15349C2.85836 5.97944 2.9275 5.81253 3.05057 5.68946C3.17363 5.56639 3.34055 5.49726 3.51459 5.49726H4.16295V2.54858L3.87071 2.7437C3.72589 2.83797 3.54974 2.87131 3.38049 2.83649C3.21124 2.80167 3.06255 2.7015 2.9667 2.55773C2.87086 2.41395 2.83558 2.23818 2.86854 2.06856C2.90149 1.89894 3.00002 1.74916 3.14273 1.65173L4.45519 0.776755C4.55405 0.710886 4.66893 0.673084 4.78758 0.667382C4.90624 0.661681 5.02421 0.688293 5.12893 0.744381V0.745256Z" />
</svg>
