<svg width="16" height="16" viewBox="0 0 16 16" fill="none" xmlns="http://www.w3.org/2000/svg">
	<path d="m 3.6836288,2.09957 c 0.19655,0.12147 0.31618,0.33605 0.31618,0.5671 V 6 h 0.66667 c 0.36819,0 0.66666,0.29848 0.66666,0.66667 0,0.36819 -0.29847,0.66666 -0.66666,0.66666 h -2.66667 c -0.36819,0 -0.66667,-0.29847 -0.66667,-0.66666 C 1.3331388,6.29848 1.6316188,6 1.9998088,6 h 0.66667 V 3.74536 l -0.36853,0.18426 c -0.32932,0.16466 -0.72976,0.03118 -0.89442,-0.29814 -0.16466,-0.32932 -0.03118,-0.72977 0.29814,-0.89443 l 1.33333,-0.66667 c 0.20666,-0.10333 0.45209,-0.09228 0.64863,0.02919 z m 2.31618,1.90039 c 2e-5,-0.36819 0.29852,-0.66665 0.66671,-0.66663 l 7.3333702,4.4e-4 c 0.3682,3e-5 0.6666,0.29852 0.6666,0.66671 0,0.36819 -0.2985,0.66665 -0.6667,0.66663 L 6.6664388,4.66667 c -0.36819,-2e-5 -0.66665,-0.29852 -0.66663,-0.66671 z m 0,4 c 2e-5,-0.36819 0.29852,-0.66665 0.66671,-0.66663 l 7.3333702,4.7e-4 c 0.3682,2e-5 0.6666,0.29852 0.6666,0.66671 0,0.36819 -0.2985,0.66665 -0.6667,0.66662 L 6.6664288,8.66667 c -0.36819,-3e-5 -0.66664,-0.29852 -0.66662,-0.66671 z m -4.60362,2.16724 c 0.22199,-0.8625 1.00412,-1.50053 1.93695,-1.50053 h 0.18689 c 1.00136,0 1.81311,0.81174 1.81311,1.81313 0,0.5229 -0.22572,1.0202 -0.61912,1.3645 l -0.93989,0.8224 h 0.89235 c 0.36819,0 0.66666,0.2984 0.66666,0.6666 0,0.3682 -0.29847,0.6667 -0.66666,0.6667 h -2.66667 c -0.27774,0 -0.52638,-0.1722 -0.62407,-0.4322 -0.09769,-0.26 -0.02395,-0.5533 0.18507,-0.7362 l 2.27511,-1.9907 c -1e-5,0 2e-5,0 0,0 0.10416,-0.0912 0.16389,-0.2228 0.16389,-0.3611 0,-0.265 -0.21481,-0.4798 -0.47978,-0.4798 h -0.18689 c -0.30972,0 -0.57165,0.2118 -0.6457,0.4995 -0.09177,0.3566 -0.45523,0.5712 -0.8118,0.4795 -0.35657,-0.0918 -0.57122,-0.4553 -0.47945,-0.8118 z M 5.9998088,12 c 2e-5,-0.3682 0.29852,-0.6667 0.66671,-0.6667 l 7.3333702,5e-4 c 0.3682,0 0.6666,0.2985 0.6666,0.6667 0,0.3682 -0.2985,0.6667 -0.6667,0.6666 l -7.3333602,-4e-4 C 6.2982388,12.6666 5.9997888,12.3681 5.9998088,12 Z" clip-rule="evenodd" fill-rule="evenodd" />
</svg>