<svg fill="none" height="16" viewBox="0 0 16 16" width="16" xmlns="http://www.w3.org/2000/svg">
  <path d="M 0.7999915,0 C 1.2418108,0 1.599983,0.35817219 1.599983,0.7999915 V 2.9999761 L 2.6664357,2.0372104 C 4.0812366,0.77092781 5.9515048,0 7.999915,0 c 4.418273,0 7.999915,3.5816899 7.999915,7.999915 0,4.418273 -3.581642,7.999915 -7.999915,7.999915 -3.8082315,0 -6.9932457,-2.660132 -7.80166911,-6.2228939 C 0.10047893,9.3460607 0.37050806,8.9175053 0.80138349,8.8197463 1.2322509,8.7219873 1.6607984,8.9919845 1.7585653,9.4228599 2.4052464,12.27283 4.9551474,14.399847 7.999915,14.399847 c 3.534602,0 6.399932,-2.86533 6.399932,-6.399932 0,-3.5345864 -2.86533,-6.399932 -6.399932,-6.399932 -1.6390386,0 -3.1325107,0.6150895 -4.2651547,1.6283027 L 2.8799774,3.9999575 H 4.799949 c 0.4418193,0 0.7999915,0.3581722 0.7999915,0.7999915 0,0.4418193 -0.3581722,0.7999915 -0.7999915,0.7999915 H 0.7999915 C 0.35817219,5.5999405 0,5.2417683 0,4.799949 V 0.7999915 C 0,0.35817219 0.35817219,0 0.7999915,0 Z" />
  <path d="m 7.0638452,11.026548 c 0.1874538,0.187354 0.4913487,0.187257 0.6786986,-2.15e-4 L 10.087409,8.6773728 C 10.461827,8.3022836 10.461483,7.6947066 10.086659,7.32005 L 7.7388933,4.9734736 C 7.5514245,4.7860913 7.2475305,4.7861878 7.0601947,4.9736892 6.9705477,5.0633922 6.9238245,5.1797305 6.92,5.2972069 l 0.0032,5.3829161 c -0.0018,0.125194 0.045093,0.250952 0.1406526,0.346425 z"  />
</svg>