<svg fill="none" height="16" viewBox="0 0 16 16" width="16" xmlns="http://www.w3.org/2000/svg">
	<path fill-rule="evenodd" d="M 1.7,1 C 2.086596,1 2.4,1.313404 2.4,1.7 V 3.625007 L 3.333156,2.782578 C 4.57112,1.674569 6.207622,1 8,1 c 3.86603,0 7,3.134012 7,7 0,3.86603 -3.13397,7 -7,7 C 4.667762,15 1.880845,12.67236 1.173467,9.55491 1.08792,9.17789 1.324198,8.8029 1.701218,8.71736 2.078231,8.63182 2.453214,8.86807 2.538761,9.24509 3.104613,11.73884 5.3358,13.6 8,13.6 11.09281,13.6 13.6,11.09281 13.6,8 13.6,4.907204 11.09281,2.4 8,2.4 6.565826,2.4 5.259024,2.938209 4.26795,3.82478 L 3.520007,4.5 H 5.2 c 0.386596,0 0.7,0.313404 0.7,0.7 0,0.386596 -0.313404,0.7 -0.7,0.7 H 1.7 C 1.313404,5.9 1,5.586596 1,5.2 V 1.7 C 1,1.313404 1.313404,1 1.7,1 Z" clip-rule="evenodd" />
</svg>