<svg fill="none" height="16" viewBox="0 0 16 16" width="16" xmlns="http://www.w3.org/2000/svg">
    <path clip-rule="evenodd"
          d="M3.19998 7.19961C3.19998 6.13874 3.6214 5.12133 4.37155 4.37118C5.12169 3.62104 6.13911 3.19961 7.19998 3.19961C8.26084 3.19961 9.27826 3.62104 10.0284 4.37118C10.7785 5.12133 11.2 6.13874 11.2 7.19961C11.2 8.26048 10.7785 9.27789 10.0284 10.028C9.27826 10.7782 8.26084 11.1996 7.19998 11.1996C6.13911 11.1996 5.12169 10.7782 4.37155 10.028C3.6214 9.27789 3.19998 8.26048 3.19998 7.19961ZM7.19998 1.59961C6.31265 1.59961 5.43802 1.81047 4.64816 2.21481C3.85831 2.61915 3.17585 3.20539 2.65702 3.92523C2.13819 4.64507 1.79784 5.4779 1.66402 6.35508C1.53021 7.23226 1.60675 8.12869 1.88735 8.97049C2.16795 9.81228 2.64457 10.5753 3.27793 11.1968C3.91129 11.8183 4.68327 12.2803 5.53024 12.5449C6.37721 12.8095 7.27492 12.869 8.14941 12.7185C9.02389 12.5681 9.85011 12.212 10.56 11.6796C10.5827 11.7099 10.6076 11.7385 10.6344 11.7652L13.0344 14.1652C13.1853 14.3109 13.3873 14.3916 13.5971 14.3897C13.8069 14.3879 14.0075 14.3038 14.1558 14.1555C14.3042 14.0071 14.3883 13.8065 14.3901 13.5967C14.3919 13.387 14.3113 13.1849 14.1656 13.034L11.7656 10.634C11.7388 10.6072 11.7102 10.5824 11.68 10.5596C12.304 9.72762 12.684 8.73831 12.7773 7.70252C12.8707 6.66674 12.6739 5.62541 12.2088 4.69521C11.7437 3.76502 11.0287 2.98272 10.1441 2.43596C9.2594 1.88921 8.23996 1.59961 7.19998 1.59961Z"
          fill-rule="evenodd"/>
</svg>
