<svg fill="none" height="16" viewBox="0 0 16 16" width="16" xmlns="http://www.w3.org/2000/svg">
	<path d="M 2.16667,1 H 13.8333 c 0.4421,0 0.866,0.184374 1.1785,0.512563 C 15.3244,1.840752 15.5,2.28587 15.5,2.75 v 10.5 c 0,0.4641 -0.1756,0.9092 -0.4882,1.2374 C 14.6993,14.8156 14.2754,15 13.8333,15 H 2.16667 C 1.72464,15 1.300716,14.8156 0.988155,14.4874 0.675595,14.1592 0.5,13.7141 0.5,13.25 V 2.75 C 0.5,2.28587 0.675595,1.840752 0.988155,1.512563 1.300716,1.184374 1.72464,1 2.16667,1 Z m 0,3.5 V 8 h 5 V 4.5 Z m 6.66666,0 V 8 H 13.8333 V 4.5 Z M 2.16667,9.75 v 3.5 h 5 v -3.5 z m 6.66666,0 v 3.5 h 4.99997 v -3.5 z" />
</svg>
