<svg width="16" height="16" viewBox="0 0 16 16" fill="none" xmlns="http://www.w3.org/2000/svg">
	<path fill-rule="evenodd" clip-rule="evenodd" d="M1.33398 3.33335C1.33398 2.96516 1.63246 2.66669 2.00065 2.66669H10.6673C11.0355 2.66669 11.334 2.96516 11.334 3.33335V4.66669C11.334 5.03488 11.0355 5.33335 10.6673 5.33335C10.2991 5.33335 10.0007 5.03488 10.0007 4.66669V4.00002H7.33398V12H8.00065C8.36884 12 8.66732 12.2985 8.66732 12.6667C8.66732 13.0349 8.36884 13.3334 8.00065 13.3334H5.33398C4.96579 13.3334 4.66732 13.0349 4.66732 12.6667C4.66732 12.2985 4.96579 12 5.33398 12H6.00065V4.00002H2.66732V4.66669C2.66732 5.03488 2.36884 5.33335 2.00065 5.33335C1.63246 5.33335 1.33398 5.03488 1.33398 4.66669V3.33335ZM9.33398 8.00002C9.33398 7.63183 9.63246 7.33335 10.0007 7.33335H14.0007C14.3688 7.33335 14.6673 7.63183 14.6673 8.00002V8.66669C14.6673 9.03488 14.3688 9.33335 14.0007 9.33335C13.6325 9.33335 13.334 9.03488 13.334 8.66669H12.6673V12C13.0355 12 13.334 12.2985 13.334 12.6667C13.334 13.0349 13.0355 13.3334 12.6673 13.3334H11.334C10.9658 13.3334 10.6673 13.0349 10.6673 12.6667C10.6673 12.2985 10.9658 12 11.334 12V8.66669H10.6673C10.6673 9.03488 10.3688 9.33335 10.0007 9.33335C9.63246 9.33335 9.33398 9.03488 9.33398 8.66669V8.00002Z" />
</svg>
