<svg fill="none" height="16" viewBox="0 0 16 16" width="16" xmlns="http://www.w3.org/2000/svg">
	<path d="m 11.25,14 c -0.5523,0 -1,-0.4477 -1,-1 v -1 h -2 c -0.55228,0 -1,-0.4477 -1,-1 V 5.33333 h -1.5 v 1 c 0,0.55229 -0.44772,1 -1,1 H 1.5 c -0.55228,0 -1,-0.44771 -1,-1 V 3 c 0,-0.55228 0.44772,-1 1,-1 h 3.25 c 0.55228,0 1,0.44772 1,1 v 1 h 4.5 V 3 c 0,-0.55228 0.4477,-1 1,-1 h 3.25 c 0.5523,0 1,0.44772 1,1 v 3.33333 c 0,0.55229 -0.4477,1 -1,1 h -3.25 c -0.5523,0 -1,-0.44771 -1,-1 v -1 h -1.5 v 5.33337 h 1.5 V 9.66667 c 0,-0.55229 0.4477,-1 1,-1 h 3.25 c 0.5523,0 1,0.44771 1,1 V 13 c 0,0.5523 -0.4477,1 -1,1 z" />
</svg>
