<svg fill="none" height="16" viewBox="0 0 16 16" width="16" xmlns="http://www.w3.org/2000/svg">
  <path
     clip-rule="evenodd"
     fill-rule="evenodd"
     d="m 7.9999265,3.8849358 c -0.8358919,0 -1.51351,0.6776258 -1.51351,1.5135178 0,0.835892 0.6776181,1.51351 1.51351,1.51351 0.8358764,0 1.5135179,-0.6776258 1.5135179,-1.51351 0,-0.835892 -0.6776415,-1.5135178 -1.5135179,-1.5135178 z M 5.3512782,5.3984536 c 0,-1.462807 1.1858413,-2.6486485 2.6486483,-2.6486485 1.4627837,0 2.6486175,1.1858336 2.6486175,2.6486485 0,1.4628071 -1.1858338,2.6486484 -2.6486175,2.6486484 -1.462807,0 -2.6486483,-1.1858413 -2.6486483,-2.6486484 z M 7.9999265,9.607889 c -1.6978963,0 -3.0743203,1.376479 -3.0743203,3.074328 0,0.313489 -0.2541078,0.567589 -0.5675654,0.567589 -0.3134654,0 -0.567573,-0.2541 -0.567573,-0.567589 0,-2.324827 1.8846473,-4.209443 4.2094587,-4.209443 2.3248275,0 4.2094285,1.884616 4.2094285,4.209443 0,0.313489 -0.254101,0.567589 -0.567511,0.567589 -0.313489,0 -0.567589,-0.2541 -0.567589,-0.567589 0,-1.697928 -1.3764008,-3.074328 -3.0743285,-3.074328 z" />
</svg>
