<svg width="16" height="16" viewBox="0 0 16 16" fill="none" xmlns="http://www.w3.org/2000/svg">
	<path d="M14.104 1.33331C15.1131 3.34072 15.5123 5.65924 15.2583 7.99998C15.1131 10.3407 14.3145 12.6592 12.9571 14.6666L11.8464 13.9259C13.0151 12.1259 13.6975 10.0741 13.8064 7.99998C14.0532 5.92591 13.7265 3.87405 12.8627 2.07405L14.104 1.33331ZM3.04087 1.33331L4.15154 2.07405C2.98279 3.87405 2.30042 5.92591 2.19153 7.99998C1.94471 10.0741 2.27864 12.1259 3.13524 13.9259L1.90842 14.6666C0.892117 12.6592 0.485597 10.3481 0.739672 7.99998C0.884858 5.65924 1.68338 3.34072 3.04087 1.33331ZM8.05704 7.0222L9.74119 4.62961H11.5778L8.83378 8.33331L10.4308 11.9778H8.79023L7.78844 9.48146L6.02444 11.9481H4.19509L7.02622 8.15554L5.47999 4.62961H7.12785L8.05704 7.0222Z" />
</svg>
