<svg width="16" height="16" viewBox="0 0 16 16" fill="none" xmlns="http://www.w3.org/2000/svg">
	<path fill-rule="evenodd" clip-rule="evenodd" d="M2 4C2 2.89543 2.89543 2 4 2H11.3333C12.4379 2 13.3333 2.89544 13.3333 4V4.66667C14.0697 4.66667 14.6667 5.26362 14.6667 6V10C14.6667 10.7364 14.0697 11.3333 13.3333 11.3333V12C13.3333 13.1046 12.4379 14 11.3333 14H4C2.89544 14 2 13.1046 2 12V4ZM12 4V4.66667H9.33333C8.59695 4.66667 8 5.26362 8 6V10C8 10.7364 8.59695 11.3333 9.33333 11.3333H12V12C12 12.3682 11.7015 12.6667 11.3333 12.6667H4C3.6318 12.6667 3.33333 12.3682 3.33333 12V4C3.33333 3.63181 3.63181 3.33333 4 3.33333H11.3333C11.7015 3.33333 12 3.6318 12 4ZM9.33333 10H12.6657L12.6667 10L12.6676 10H13.3333V6H12.6667H9.33333V10ZM12.3333 8C12.3333 8.55229 11.8856 9 11.3333 9C10.781 9 10.3333 8.55229 10.3333 8C10.3333 7.44772 10.781 7 11.3333 7C11.8856 7 12.3333 7.44772 12.3333 8Z" />
</svg>
