<svg width="16" height="16" viewBox="0 0 16 16" fill="none" xmlns="http://www.w3.org/2000/svg">
	<path d="M13.8064 11.1849L9.28344 3.39688C9.15244 3.17473 8.96505 2.99047 8.73993 2.86242C8.51481 2.73437 8.2598 2.66699 8.00026 2.66699C7.74072 2.66699 7.48571 2.73437 7.26058 2.86242C7.03546 2.99047 6.84808 3.17473 6.71707 3.39688L2.19411 11.1849C2.067 11.4005 2 11.6457 2 11.8954C2 12.1451 2.067 12.3903 2.19411 12.6059C2.32367 12.8292 2.51079 13.0142 2.73629 13.1421C2.96179 13.27 3.21754 13.3361 3.4773 13.3336H12.5232C12.7828 13.3359 13.0383 13.2697 13.2636 13.1418C13.4889 13.014 13.6759 12.829 13.8054 12.6059C13.9326 12.3904 13.9998 12.1453 14 11.8956C14.0002 11.6458 13.9334 11.4006 13.8064 11.1849ZM12.7306 11.99C12.7096 12.0256 12.6793 12.0548 12.6428 12.0747C12.6064 12.0945 12.5653 12.1043 12.5237 12.1028H3.4773C3.43576 12.1043 3.39461 12.0945 3.3582 12.0747C3.32178 12.0548 3.29145 12.0256 3.27042 11.99C3.25258 11.9613 3.24313 11.9282 3.24313 11.8944C3.24313 11.8606 3.25258 11.8275 3.27042 11.7988L7.79338 4.01071C7.81577 3.97653 7.84643 3.94844 7.88256 3.92899C7.91869 3.90955 7.95915 3.89936 8.00026 3.89936C8.04137 3.89936 8.08183 3.90955 8.11796 3.92899C8.15409 3.94844 8.18474 3.97653 8.20714 4.01071L12.7296 11.7988C12.7476 11.8274 12.7572 11.8605 12.7574 11.8942C12.7576 11.928 12.7483 11.9612 12.7306 11.99ZM7.37961 8.61574V6.97475C7.37961 6.81154 7.445 6.65502 7.5614 6.53962C7.67779 6.42421 7.83565 6.35938 8.00026 6.35938C8.16486 6.35938 8.32273 6.42421 8.43912 6.53962C8.55552 6.65502 8.6209 6.81154 8.6209 6.97475V8.61574C8.6209 8.77895 8.55552 8.93547 8.43912 9.05088C8.32273 9.16628 8.16486 9.23111 8.00026 9.23111C7.83565 9.23111 7.67779 9.16628 7.5614 9.05088C7.445 8.93547 7.37961 8.77895 7.37961 8.61574ZM8.82779 10.667C8.82779 10.8293 8.77925 10.9879 8.68832 11.1228C8.59739 11.2578 8.46815 11.3629 8.31694 11.425C8.16573 11.4871 7.99934 11.5034 7.83882 11.4717C7.67829 11.4401 7.53084 11.3619 7.41511 11.2472C7.29938 11.1324 7.22056 10.9862 7.18863 10.8271C7.1567 10.6679 7.17309 10.5029 7.23572 10.353C7.29836 10.2031 7.40442 10.0749 7.54051 9.98476C7.67659 9.89461 7.83659 9.84649 8.00026 9.84649C8.21973 9.84649 8.43022 9.93293 8.58541 10.0868C8.7406 10.2407 8.82779 10.4494 8.82779 10.667Z" />
</svg>
