<svg width="24" height="24" viewBox="0 0 24 24" fill="none" xmlns="http://www.w3.org/2000/svg">
	<path d="M14.25 2.62502C13.5108 2.62304 12.7785 2.76757 12.0955 3.05027C11.4124 3.33296 10.7922 3.74821 10.2705 4.27202L3.37804 11.166C3.16659 11.3771 3.04765 11.6635 3.04736 11.9622C3.04708 12.261 3.16549 12.5476 3.37653 12.759C3.58758 12.9705 3.87398 13.0894 4.17272 13.0897C4.47147 13.09 4.75809 12.9716 4.96953 12.7605L11.865 5.86352C12.5065 5.2738 13.351 4.95477 14.2222 4.97306C15.0933 4.99136 15.9237 5.34558 16.5398 5.96171C17.156 6.57784 17.5102 7.40823 17.5285 8.27938C17.5468 9.15053 17.2278 9.99506 16.638 10.6365L8.68353 18.591C8.47027 18.7897 8.1882 18.8979 7.89675 18.8928C7.6053 18.8876 7.32722 18.7696 7.1211 18.5635C6.91498 18.3573 6.79691 18.0793 6.79177 17.7878C6.78663 17.4964 6.89481 17.2143 7.09353 17.001L15.048 9.04652C15.2595 8.83528 15.3783 8.54869 15.3785 8.2498C15.3786 7.95091 15.26 7.66421 15.0488 7.45277C14.8375 7.24133 14.551 7.12246 14.2521 7.12232C13.9532 7.12218 13.6665 7.24078 13.455 7.45202L5.49903 15.4095C4.90932 16.051 4.59028 16.8955 4.60858 17.7667C4.62688 18.6378 4.98109 19.4682 5.59723 20.0843C6.21336 20.7005 7.04374 21.0547 7.9149 21.073C8.78605 21.0913 9.63057 20.7722 10.272 20.1825L18.2265 12.228C18.7504 11.7067 19.1659 11.0867 19.4488 10.404C19.7318 9.72118 19.8766 8.98911 19.875 8.25002C19.8734 6.75866 19.2803 5.32885 18.2258 4.2743C17.1712 3.21975 15.7414 2.62661 14.25 2.62502Z" />
</svg>
