<svg width="24" height="24" viewBox="0 0 24 24" fill="none" xmlns="http://www.w3.org/2000/svg">
	<path d="m 18.5,12.0001 c 0,-0.5523 -0.4477,-1 -1,-1 H 8.91418 L 11.2072,8.70711 c 0.3905,-0.39053 0.3905,-1.02369 0,-1.41422 -0.3906,-0.39052 -1.0237,-0.39052 -1.4143,0 L 5.79294,11.2929 h 1e-5 C 5.61195,11.4739 5.5,11.7239 5.5,12.0001 c 0,0.2761 0.11195,0.5262 0.29295,0.7071 l -1e-5,10e-5 3.99996,4 c 0.3906,0.3905 1.0237,0.3905 1.4143,0 0.3905,-0.3906 0.3905,-1.0237 0,-1.4143 L 8.91418,13.0001 H 17.5 c 0.5523,0 1,-0.4477 1,-1 z" clip-rule="evenodd" fill-rule="evenodd" />
</svg>
