<svg width="14" height="13" viewBox="0 0 14 13" fill="none" xmlns="http://www.w3.org/2000/svg">
<path d="M12.6667 0H8C7.50639 0.00167188 7.03108 0.187043 6.66667 0.52C6.30226 0.187043 5.82694 0.00167188 5.33333 0H0.666667C0.489856 0 0.320286 0.0702379 0.195262 0.195262C0.0702379 0.320286 0 0.489856 0 0.666667V10.6667C0 10.8435 0.0702379 11.013 0.195262 11.1381C0.320286 11.2631 0.489856 11.3333 0.666667 11.3333H4.50533C4.85893 11.3334 5.19801 11.4739 5.448 11.724L6.19533 12.4713C6.20133 12.4773 6.20933 12.4793 6.21533 12.4853C6.27267 12.5387 6.33667 12.5853 6.41133 12.616H6.41267C6.57536 12.683 6.75797 12.683 6.92067 12.616H6.922C6.99667 12.5853 7.06067 12.538 7.118 12.4853C7.124 12.4793 7.132 12.4773 7.138 12.4713L7.88533 11.724C8.13532 11.4739 8.47441 11.3334 8.828 11.3333H12.6667C12.8435 11.3333 13.013 11.2631 13.1381 11.1381C13.2631 11.013 13.3333 10.8435 13.3333 10.6667V0.666667C13.3333 0.489856 13.2631 0.320286 13.1381 0.195262C13.013 0.0702379 12.8435 0 12.6667 0ZM12 10H8.828C8.29526 10.0015 7.77499 10.1614 7.33333 10.4593V2C7.33333 1.63267 7.632 1.33333 8 1.33333H12V10Z" fill="white"/>
</svg>
