<svg width="24" height="24" viewBox="0 0 24 24" fill="none" xmlns="http://www.w3.org/2000/svg">
	<path d="M19 3C20.1046 3 21 3.89543 21 5V12.1553C20.5928 12.0544 20.1669 12 19.7285 12C16.8377 12.0001 14.5261 14.3163 14.459 17.1377H7.35156L3 21V5C3 3.89543 3.89543 3 5 3H19ZM8 9C7.44772 9 7 9.44772 7 10C7 10.5523 7.44772 11 8 11C8.55228 11 9 10.5523 9 10C9 9.44772 8.55228 9 8 9ZM12 9C11.4477 9 11 9.44772 11 10C11 10.5523 11.4477 11 12 11C12.5523 11 13 10.5523 13 10C13 9.44772 12.5523 9 12 9ZM16 9C15.4477 9 15 9.44772 15 10C15 10.5523 15.4477 11 16 11C16.5523 11 17 10.5523 17 10C17 9.44772 16.5523 9 16 9Z" />
	<path d="M20.4 16.7273C20.4 16.4862 20.3051 16.255 20.1363 16.0845C19.9886 15.9353 19.7949 15.8432 19.5888 15.8226L19.5 15.8182C19.2613 15.8182 19.0325 15.914 18.8637 16.0845C18.6949 16.255 18.6 16.4862 18.6 16.7273V17.6364H20.4V16.7273ZM22.2 17.6364H22.2905C23.2344 17.6364 24 18.4097 24 19.3631V22.2733C24 23.2267 23.2344 24 22.2905 24H16.7095C15.7656 24 15 23.2267 15 22.2733V19.3631C15 18.4097 15.7656 17.6364 16.7095 17.6364H16.8V16.7273C16.8 16.004 17.0847 15.3105 17.591 14.799C18.0974 14.2875 18.7839 14 19.5 14L19.7672 14.0133C20.3852 14.0754 20.966 14.3516 21.409 14.799C21.9153 15.3105 22.2 16.004 22.2 16.7273V17.6364Z" />
</svg>
