<svg width="24" height="24" viewBox="0 0 24 24" fill="none" xmlns="http://www.w3.org/2000/svg">
	<path d="M7.99749 9C7.44612 9 7 9.45 7 10C7 10.55 7.44612 11 7.99749 11C8.54887 11 9 10.55 9 10C9 9.45 8.54887 9 7.99749 9Z" />
	<path d="M11 10C11 9.45 11.4461 9 11.9975 9C12.5489 9 13 9.45 13 10C13 10.55 12.5489 11 11.9975 11C11.4461 11 11 10.55 11 10Z" />
	<path d="M15 10C15 9.45 15.4461 9 15.9975 9C16.5489 9 17 9.45 17 10C17 10.55 16.5489 11 15.9975 11C15.4461 11 15 10.55 15 10Z" />
	<path fill-rule="evenodd" clip-rule="evenodd" d="M4.8 3H19.2C20.19 3 21 3.81 21 4.8V15.6C21 16.59 20.19 17.4 19.2 17.4H6.6L3 21V4.8C3 3.81 3.81 3 4.8 3ZM6.6 15.6H19.2V4.8H4.8V17.4L6.6 15.6Z" />
</svg>
