<svg fill="none" height="24" viewBox="0 0 24 24" width="24" xmlns="http://www.w3.org/2000/svg">
  <path d="M 12,2 C 6.47715,2 2,6.47715 2,12 2,17.5228 6.47715,22 12,22 17.5228,22 22,17.5228 22,12 22,6.47715 17.5228,2 12,2 Z m 4.7292,8.02237 C 17.1307,9.57484 17.0799,8.89822 16.6158,8.5111 16.1517,8.12399 15.45,8.17297 15.0485,8.62051 L 10.70371,13.4641 8.95148,11.51073 C 8.55003,11.06319 7.84835,11.01421 7.38423,11.40132 6.92012,11.78844 6.86932,12.4651 7.27077,12.9126 l 1.94444,2.1677 c 0.80103,0.8929 2.17597,0.8929 2.97699,0 z" clip-rule="evenodd" fill-rule="evenodd" />
</svg>
