<svg fill="none" height="24" viewBox="0 0 24 24" width="24" xmlns="http://www.w3.org/2000/svg">
    <path clip-rule="evenodd"
        d="M12 5C8.13401 5 5 8.13401 5 12C5 15.866 8.13401 19 12 19C15.866 19 19 15.866 19 12C19 8.13401 15.866 5 12 5ZM3 12C3 7.02944 7.02944 3 12 3C16.9706 3 21 7.02944 21 12C21 16.9706 16.9706 21 12 21C7.02944 21 3 16.9706 3 12ZM16.2338 8.59853C16.6397 8.97314 16.665 9.6058 16.2904 10.0116L11.3672 15.3449C11.1779 15.55 10.9115 15.6667 10.6324 15.6667C10.3533 15.6667 10.0869 15.55 9.89763 15.3449L7.70963 12.9745C7.33503 12.5687 7.36035 11.9361 7.76617 11.5615C8.172 11.1869 8.80466 11.2122 9.17926 11.618L10.6325 13.1923L14.8208 8.65505C15.1954 8.24923 15.828 8.22393 16.2338 8.59853Z"
        fill-rule="evenodd" />
</svg>