<svg fill="none" height="24" viewBox="0 0 24 24" width="24" xmlns="http://www.w3.org/2000/svg">
	<path d="m 12,4.999995 c -3.865995,0 -7.000005,3.13401 -7.000005,7.000005 0,3.86595 3.13401,7.00005 7.000005,7.00005 3.8661,0 7.00005,-3.13395 7.00005,-7.00005 0,-3.865995 -3.1341,-7.000005 -7.00005,-7.000005 z M 3,12 c 0,-4.970565 4.029435,-9 9,-9 4.97055,0 9,4.02945 9,9 0,4.97055 -4.02945,9 -9,9 C 7.02945,21 3,16.97055 3,12 Z M 16.2339,8.598525 c 0.40575,0.37461 0.4311,1.007265 0.0564,1.41309 L 11.36724,15.345 c -0.1893,0.20505 -0.4557,0.3216 -0.734805,0.3216 -0.279105,0 -0.545505,-0.11655 -0.734805,-0.3216 L 7.709625,12.974535 C 7.33503,12.56871 7.36035,11.936055 7.766175,11.56146 8.172,11.18685 8.804655,11.21217 9.17925,11.617995 l 1.453215,1.57434 4.188285,-4.53729 C 15.1953,8.249235 15.828,8.22393 16.2339,8.598525 Z" clip-rule="evenodd" fill-rule="evenodd" />
</svg>
