<svg fill="none" height="24" viewBox="0 0 24 24" width="24" xmlns="http://www.w3.org/2000/svg">
  <path
     d="M 12,22 C 17.5228,22 22,17.5228 22,12 22,6.47715 17.5228,2 12,2 6.47715,2 2,6.47715 2,12 2,17.5228 6.47715,22 12,22 Z M 9.13388,7.36612 c -0.48815,-0.48816 -1.27961,-0.48816 -1.76776,0 -0.48816,0.48815 -0.48816,1.27961 0,1.76776 l 2.86617,2.86622 -2.86617,2.8661 c -0.48816,0.4882 -0.48816,1.2796 0,1.7678 0.48815,0.4882 1.27961,0.4882 1.76776,0 l 2.86622,-2.8662 2.866,2.8661 c 0.4882,0.4881 1.2796,0.4881 1.7678,0 0.4881,-0.4882 0.4881,-1.2796 0,-1.7678 l -2.8661,-2.866 2.8661,-2.8661 c 0.4881,-0.48816 0.4881,-1.27961 0,-1.76777 -0.4882,-0.48815 -1.2796,-0.48815 -1.7678,0 l -2.866,2.86606 z" clip-rule="evenodd" fill-rule="evenodd" />
</svg>
