<svg width="24" height="24" viewBox="0 0 24 24" fill="none" xmlns="http://www.w3.org/2000/svg">
	<path d="M13 20H19C21.7614 20 24 17.7614 24 15C24 12.5468 22.2333 10.5063 19.9028 10.0813C19.9667 9.73055 20 9.36917 20 9C20 5.68629 17.3137 3 14 3C11.6409 3 9.59988 4.36144 8.61964 6.34148C8.1245 6.12196 7.5765 6 7 6C4.79086 6 3 7.79086 3 10C3 10.1375 3.00693 10.2733 3.02047 10.4072C1.24364 11.174 0 12.9418 0 15C0 17.419 1.71776 19.4367 4 19.9L4.5 20H11V13.4142L9.20711 15.2071C8.81658 15.5976 8.18342 15.5976 7.79289 15.2071C7.40237 14.8166 7.40237 14.1834 7.79289 13.7929L11.2929 10.2929C11.6834 9.90237 12.3166 9.90237 12.7071 10.2929L16.2071 13.7929C16.5976 14.1834 16.5976 14.8166 16.2071 15.2071C15.8166 15.5976 15.1834 15.5976 14.7929 15.2071L13 13.4142V20Z" />
</svg>
