<svg fill="none" height="24" viewBox="0 0 24 24" width="24" xmlns="http://www.w3.org/2000/svg">
    <path clip-rule="evenodd"
          d="M22.042,14.574996 c 0,-1.399764 -0.814726,-2.664097 -2.062575,-3.255308 C 19.891845,8.2719156 17.385373,5.82 14.317002,5.82 12.146273,5.82 10.201632,7.0384901 9.2478558,8.9599554 9.050611,8.9264824 8.8518206,8.9099944 8.6520007,8.9099944 c -1.4008,0 -2.6656402,0.815244 -3.2558303,2.0636056 C 3.4850048,11.06062 1.957,12.642722 1.957,14.574996 c 0,1.987906 1.6176153,3.605005 3.6050003,3.605005 H 18.437002 c 1.987385,0 3.604998,-1.617099 3.604998,-3.605005 z m -19.055,0 c 0,-1.419849 1.1551451,-2.574994 2.5750003,-2.574994 0.03193,0 0.062832,0.0025 0.094243,0.0044 l 0.4398098,0.02675 0.128235,-0.367198 C 6.585818,10.632899 7.5617431,9.9397104 8.651998,9.9397104 c 0.2508053,0 0.5010951,0.03711 0.7426303,0.1102076 l 0.4501095,0.135419 0.1761302,-0.4356906 c 0.712765,-1.7618157 2.398355,-2.8999657 4.296134,-2.8999657 2.555946,0 4.635001,2.0795709 4.635001,4.6350023 l -0.02165,0.537143 0.356894,0.125146 c 1.031547,0.36153 1.724736,1.337455 1.724736,2.427711 0,1.419853 -1.155144,2.574999 -2.575,2.574999 H 5.5620003 C 4.1421451,17.149682 2.987,15.994536 2.987,14.574683 Z"
          fill-rule="evenodd"/>
</svg>