<svg width="24" height="24" viewBox="0 0 24 24" fill="none" xmlns="http://www.w3.org/2000/svg">
	<path fill-rule="evenodd" clip-rule="evenodd" d="M18 3C19.6569 3 21 4.34315 21 6V18C21 19.6569 19.6569 21 18 21H6C4.34315 21 3 19.6569 3 18V6C3 4.34315 4.34315 3 6 3H18ZM15 19H18C18.5523 19 19 18.5523 19 18V6C19 5.44772 18.5523 5 18 5H15V19ZM11.2021 9.28809C10.8089 8.90041 10.1758 8.90471 9.78809 9.29785L7.78809 11.3271C7.60197 11.516 7.4981 11.771 7.5 12.0361C7.50197 12.3013 7.60901 12.5551 7.79785 12.7412L9.79785 14.7119C10.1911 15.0995 10.8242 15.0952 11.2119 14.7021C11.5995 14.3089 11.5953 13.6758 11.2021 13.2881L9.91504 12.0176L11.2119 10.7021C11.5996 10.3089 11.5953 9.67583 11.2021 9.28809Z" />
</svg>
