<svg width="24" height="24" viewBox="0 0 24 24" fill="none" xmlns="http://www.w3.org/2000/svg">
	<path d="M12.7979 9.28809C13.1911 8.90041 13.8242 8.90471 14.2119 9.29785L16.2119 11.3271C16.398 11.516 16.5019 11.771 16.5 12.0361C16.498 12.3013 16.391 12.5551 16.2021 12.7412L14.2021 14.7119C13.8089 15.0995 13.1758 15.0952 12.7881 14.7021C12.4005 14.3089 12.4047 13.6758 12.7979 13.2881L14.085 12.0176L12.7881 10.7021C12.4004 10.3089 12.4047 9.67583 12.7979 9.28809Z" />
	<path fill-rule="evenodd" clip-rule="evenodd" d="M18 3C19.6569 3 21 4.34315 21 6V18C21 19.6569 19.6569 21 18 21H6C4.34315 21 3 19.6569 3 18V6C3 4.34315 4.34315 3 6 3H18ZM9 19H18C18.5523 19 19 18.5523 19 18V6C19 5.44772 18.5523 5 18 5H9V19Z" />
</svg>
