<svg fill="none" height="24" viewBox="0 0 24 24" width="24" xmlns="http://www.w3.org/2000/svg">
    <path
            clip-rule="evenodd"
            d="M12 0.999512C12.5523 0.999512 13 1.44723 13 1.99951L13 2.99951C13.5523 2.99951 14 3.44723 14 3.99951C14 4.5518 13.5523 4.99951 13 4.99951V18.9995C13.5523 18.9995 14 19.4472 14 19.9995C14 20.5518 13.5523 20.9995 13 20.9995L13 21.9995C13 22.5518 12.5523 22.9995 12 22.9995C11.4477 22.9995 11 22.5518 11 21.9995V20.9995H6C4.34316 20.9995 3 19.6564 3 17.9995V5.99951C3 4.34267 4.34314 2.99951 6 2.99951H11V1.99951C11 1.44723 11.4477 0.999512 12 0.999512ZM11 4.99951H6C5.44772 4.99951 5 5.44723 5 5.99951V17.9995C5 18.5518 5.44771 18.9995 6 18.9995H11V4.99951ZM16 3.99951C16 3.44723 16.4477 2.99951 17 2.99951H18C19.6569 2.99951 21 4.34268 21 5.99951V6.99951C21 7.5518 20.5523 7.99951 20 7.99951C19.4477 7.99951 19 7.5518 19 6.99951V5.99951C19 5.44722 18.5523 4.99951 18 4.99951H17C16.4477 4.99951 16 4.5518 16 3.99951ZM20 9.99952C20.5523 9.99952 21 10.4472 21 10.9995V12.9995C21 13.5518 20.5523 13.9995 20 13.9995C19.4477 13.9995 19 13.5518 19 12.9995V10.9995C19 10.4472 19.4477 9.99952 20 9.99952ZM20 15.9995C20.5523 15.9995 21 16.4472 21 16.9995V17.9995C21 19.6564 19.6569 20.9995 18 20.9995H17C16.4477 20.9995 16 20.5518 16 19.9995C16 19.4472 16.4477 18.9995 17 18.9995H18C18.5523 18.9995 19 18.5518 19 17.9995V16.9995C19 16.4472 19.4477 15.9995 20 15.9995Z"
            fill-rule="evenodd"/>
</svg>