<svg fill="none" height="24" viewBox="0 0 24 24" width="24" xmlns="http://www.w3.org/2000/svg">
	<path d="M 3.9373895,3.8995 H 20.369555 v 1.7999515 h -5.048973 c -0.205334,2.3172049 -0.329668,4.6408625 -0.372598,6.9667345 -0.0216,1.340962 -0.0054,2.564938 0.06291,3.509913 0.03483,0.474649 0.07979,0.853721 0.134999,1.137618 0.04955,0.255548 0.0918,0.344646 0.09004,0.346401 0.576042,0.728982 2.289588,1.179061 4.124633,-0.629084 l 0.640842,-0.631785 1.263593,1.282469 -0.641652,0.631784 c -2.331032,2.296834 -5.389171,2.31749 -6.834608,0.41849 -0.235802,-0.310492 -0.344707,-0.738837 -0.410397,-1.074573 -0.07381,-0.3815 -0.126009,-0.844135 -0.162904,-1.352667 -0.07381,-1.01963 -0.09,-2.303893 -0.0675,-3.667361 0.04274,-2.316138 0.164618,-4.6301304 0.365402,-6.9379395 H 10.393955 C 10.24725,7.9160973 9.8404571,10.822131 9.025966,13.387068 8.5651595,14.844087 7.9576628,16.237254 7.1575761,17.338016 6.3574759,18.440399 5.3107861,19.320579 3.9661933,19.585172 L 3.0832981,19.758912 2.735,17.993155 3.6178952,17.819414 C 4.3639822,17.672808 5.0587829,17.166031 5.7013795,16.280452 6.343976,15.39582 6.8803686,14.201545 7.3105708,12.842586 8.0557668,10.496343 8.4436602,7.7964093 8.5903639,5.6994515 H 3.9364985 Z" />
</svg>
