<svg fill="none" height="24" viewBox="0 0 24 24" width="24" xmlns="http://www.w3.org/2000/svg">
    <path clip-rule="evenodd"
          d="M10 4C9.44771 4 9 4.44771 9 5V6H15V5C15 4.44771 14.5523 4 14 4H10ZM17 6V5C17 3.34315 15.6569 2 14 2H10C8.34315 2 7 3.34315 7 5V6H5C4.44772 6 4 6.44771 4 7C4 7.55228 4.44772 8 5 8V18C5 19.6569 6.34315 21 8 21H16C17.6569 21 19 19.6569 19 18V8C19.5523 8 20 7.55228 20 7C20 6.44771 19.5523 6 19 6H17ZM17 8H7V18C7 18.5523 7.4477 19 8 19H16C16.5523 19 17 18.5523 17 18V8ZM10 10C10.5523 10 11 10.4477 11 11V16C11 16.5523 10.5523 17 10 17C9.44772 17 9 16.5523 9 16V11C9 10.4477 9.44772 10 10 10ZM14 10C14.5523 10 15 10.4477 15 11V16C15 16.5523 14.5523 17 14 17C13.4477 17 13 16.5523 13 16V11C13 10.4477 13.4477 10 14 10Z"
          fill-rule="evenodd"/>
</svg>
