<svg fill="none" height="24" viewBox="0 0 24 24" width="24" xmlns="http://www.w3.org/2000/svg">
    <path class="color-primary" clip-rule="evenodd"
          d="M7.36842 3C6.06037 3 5 4.09894 5 5.45455V18.5455C5 19.9011 6.06038 21 7.36842 21H17.6316C18.9397 21 20 19.9011 20 18.5455V10.3636C20 10.1466 19.9168 9.93853 19.7688 9.78509L13.453 3.23966C13.3774 3.16136 13.2881 3.10055 13.191 3.05979C13.0978 3.02068 12.9973 3 12.8947 3H7.36842ZM12.1053 4.63636H7.36842C6.9324 4.63636 6.57895 5.00267 6.57895 5.45455V18.5455C6.57895 18.9973 6.93241 19.3636 7.36842 19.3636H17.6316C18.0676 19.3636 18.4211 18.9973 18.4211 18.5455V11.1818H12.8947C12.4587 11.1818 12.1053 10.8155 12.1053 10.3636V4.63636ZM17.3046 9.54548L13.6842 5.79347V9.54548H17.3046Z"
          fill-rule="evenodd"/>
</svg>
