<svg width="24" height="24" viewBox="0 0 24 24" fill="none" xmlns="http://www.w3.org/2000/svg">
	<path fill-rule="evenodd" clip-rule="evenodd" d="M5 20C5 19.4477 5.44772 19 6 19H18C18.5523 19 19 19.4477 19 20C19 20.5523 18.5523 21 18 21H6C5.44772 21 5 20.5523 5 20Z" />
	<path d="M14.2308 3H9.76923C9.21695 3 8.76923 3.44771 8.76923 4V9.24H6.46718C5.56891 9.24 5.12615 10.3324 5.77092 10.9578L11.3037 16.3246C11.6917 16.7009 12.3083 16.7009 12.6963 16.3246L18.2291 10.9578C18.8738 10.3324 18.4311 9.24 17.5328 9.24H15.2308V4C15.2308 3.44772 14.7831 3 14.2308 3Z" />
</svg>
