<svg fill="none" height="24" viewBox="0 0 24 24" width="24" xmlns="http://www.w3.org/2000/svg">
	<path fill-rule="evenodd" d="m 16.5084,5.8167587 c 0.2947,-0.27962 0.6887,-0.43106 1.0954,-0.42101 0.4067,0.01005 0.7928,0.18077 1.0732,0.4746 0.2804,0.29383 0.4323,0.6867 0.4222,1.09218 -0.01,0.40549 -0.1813,0.79038 -0.476,1.06999 L 8.08714,18.053699 l -2.71513,0.3557 1.11307,-3.1035 10.02242,-9.4881903 z m 3.5438,-1.25396 c -0.628,-0.65711 -1.4917,-1.03896 -2.4017,-1.06172 -0.91,-0.02276 -1.7919,0.31542 -2.4521,0.94031 L 5.00859,14.085999 c -0.10801,0.1022 -0.19045,0.2283 -0.24069,0.3681 l -1.71241,4.7777 c -0.05485,0.153 -0.06935,0.3176 -0.0421,0.4778 0.02724,0.1602 0.09532,0.3108 0.1977,0.4372 0.10237,0.1265 0.23562,0.2246 0.38695,0.2849 0.15134,0.0604 0.31569,0.0809 0.47729,0.0598 l 4.56644,-0.5976 c 0.20002,-0.026 0.38658,-0.1147 0.53275,-0.2533 L 19.9351,9.4059887 c 0.6595,-0.62696 1.0422,-1.48939 1.0639,-2.39763 0.0218,-0.90824 -0.3182,-1.78791 -0.9468,-2.44556 z M 13.466,18.602899 c -0.2523,0 -0.4943,0.1 -0.6727,0.2779 -0.1784,0.1778 -0.2786,0.4191 -0.2786,0.6707 0,0.2515 0.1002,0.4928 0.2786,0.6707 0.1784,0.1779 0.4204,0.2778 0.6727,0.2778 h 5.7081 c 0.2523,0 0.4943,-0.0999 0.6727,-0.2778 0.1784,-0.1779 0.2786,-0.4192 0.2786,-0.6707 0,-0.2516 -0.1002,-0.4929 -0.2786,-0.6707 -0.1784,-0.1779 -0.4204,-0.2779 -0.6727,-0.2779 z" clip-rule="evenodd" />
</svg>
