<svg fill="none" height="24" viewBox="0 0 24 24" width="24" xmlns="http://www.w3.org/2000/svg">
    <path clip-rule="evenodd"
          d="M16.5084 6.31676C16.8031 6.03714 17.1971 5.8857 17.6038 5.89575C18.0105 5.9058 18.3966 6.07652 18.677 6.37035C18.9574 6.66418 19.1093 7.05705 19.0992 7.46253C19.0892 7.86802 18.9179 8.25291 18.6232 8.53252L8.08714 18.5537L5.37201 18.9094L6.48508 15.8059L16.5075 6.31771L16.5084 6.31676ZM20.0522 5.0628C19.4242 4.40569 18.5605 4.02384 17.6505 4.00108C16.7405 3.97832 15.8586 4.3165 15.1984 4.94139L5.00859 14.586C4.90058 14.6882 4.81814 14.8143 4.7679 14.9541L3.05549 19.7318C3.00064 19.8848 2.98614 20.0494 3.01339 20.2096C3.04063 20.3698 3.10871 20.5204 3.21109 20.6468C3.31346 20.7733 3.44671 20.8714 3.59804 20.9317C3.74938 20.9921 3.91373 21.0126 4.07533 20.9915L8.64177 20.3939C8.84179 20.3679 9.02835 20.2792 9.17452 20.1406L19.9351 9.90599C20.5946 9.27903 20.9773 8.4166 20.999 7.50836C21.0208 6.60012 20.6808 5.72045 20.0522 5.0628ZM13.466 19.1029C13.2137 19.1029 12.9717 19.2029 12.7933 19.3808C12.6149 19.5586 12.5147 19.7999 12.5147 20.0515C12.5147 20.303 12.6149 20.5443 12.7933 20.7222C12.9717 20.9001 13.2137 21 13.466 21H19.1741C19.4264 21 19.6684 20.9001 19.8468 20.7222C20.0252 20.5443 20.1254 20.303 20.1254 20.0515C20.1254 19.7999 20.0252 19.5586 19.8468 19.3808C19.6684 19.2029 19.4264 19.1029 19.1741 19.1029H13.466Z"
          fill-rule="evenodd"/>
</svg>
