<svg fill="none" height="16" viewBox="0 0 16 16" width="16" xmlns="http://www.w3.org/2000/svg">
    <g opacity="0.6">
        <path clip-rule="evenodd" d="M2.33332 8.33328C1.96513 8.33328 1.66666 8.0348 1.66666 7.66662C1.66666 7.29843 1.96513 6.99995 2.33332 6.99995L8.0572 6.99995L6.52855 5.4713C6.2682 5.21095 6.2682 4.78884 6.52855 4.52849C6.7889 4.26814 7.21101 4.26814 7.47136 4.52849L10.138 7.19516L10.138 7.19517C10.2587 7.31582 10.3333 7.4825 10.3333 7.66662C10.3333 7.85073 10.2587 8.01741 10.138 8.13806L10.138 8.13807L7.47136 10.8047C7.21101 11.0651 6.7889 11.0651 6.52855 10.8047C6.2682 10.5444 6.2682 10.1223 6.52855 9.86193L8.0572 8.33328L2.33332 8.33328ZM10.6222 12.5926C10.2786 12.5926 9.99999 12.9077 9.99999 13.2963C9.99999 13.6849 10.2786 14 10.6222 14L12.8 14C13.8309 14 14.6667 13.0548 14.6667 11.8889L14.6667 3.44444C14.6667 2.27851 13.8309 1.33333 12.8 1.33333L10.6222 1.33333C10.2786 1.33333 9.99999 1.64839 9.99999 2.03704C9.99999 2.42568 10.2786 2.74074 10.6222 2.74074L12.8 2.74074C13.1436 2.74074 13.4222 3.0558 13.4222 3.44444L13.4222 11.8889C13.4222 12.2775 13.1436 12.5926 12.8 12.5926L10.6222 12.5926Z"
              fill="white"
              fill-rule="evenodd"/>
    </g>
</svg>
