<svg fill="none" height="24" viewBox="0 0 24 24" width="24" xmlns="http://www.w3.org/2000/svg">
    <path class="color-primary" clip-rule="evenodd"
          d="M11.0001 15C11.0001 15.5523 11.4478 16 12.0001 16C12.5524 16 13.0001 15.5523 13.0001 15V6.41418L15.293 8.70715C15.6836 9.09768 16.3167 9.09768 16.7073 8.70715C17.0978 8.31663 17.0978 7.68346 16.7073 7.29294L12.7073 3.29294L12.7072 3.29295C12.5263 3.11195 12.2762 3 12.0001 3C11.7239 3 11.4739 3.11195 11.2929 3.29295L11.2929 3.29294L7.29289 7.29294C6.90237 7.68346 6.90237 8.31663 7.29289 8.70715C7.68342 9.09768 8.31658 9.09768 8.70711 8.70715L11.0001 6.41419V15ZM5 14.5C5 13.9477 4.55228 13.5 4 13.5C3.44772 13.5 3 13.9477 3 14.5V18C3 19.6569 4.34315 21 6 21H18C19.6569 21 21 19.6569 21 18V14.5C21 13.9477 20.5523 13.5 20 13.5C19.4477 13.5 19 13.9477 19 14.5V18C19 18.5523 18.5523 19 18 19H6C5.44772 19 5 18.5523 5 18V14.5Z"
          fill-rule="evenodd"/>
</svg>
