<svg width="24" height="24" viewBox="0 0 24 24" fill="none" xmlns="http://www.w3.org/2000/svg">
	<path fill-rule="evenodd" clip-rule="evenodd" d="m 12,3 c 0.55228,0 1,0.447715 1,1 v 10.5858 l 3.2929,-3.29291 c 0.3905,-0.39052 1.0237,-0.39052 1.4142,0 0.3905,0.39053 0.3905,1.02369 0,1.41422 l -4.99999,4.99999 c -0.39053,0.3905 -1.02369,0.3905 -1.41422,0 l -5,-4.99999 c -0.390521,-0.39053 -0.390521,-1.02369 0,-1.41422 0.39053,-0.39052 1.02369,-0.39052 1.41422,0 L 11,14.5858 V 4 C 11,3.447715 11.44772,3 12,3 Z M 5,20 c 0,-0.5523 0.447715,-1 1,-1 h 12 c 0.5523,0 1,0.4477 1,1 0,0.5523 -0.4477,1 -1,1 H 6 C 5.447715,21 5,20.5523 5,20 Z" />
</svg>
