<svg width="24" height="24" viewBox="0 0 24 24" fill="none" xmlns="http://www.w3.org/2000/svg">
	<path fill-rule="evenodd" clip-rule="evenodd" d="M 11.76667,4.33333 C 11.3,2.933334 10.05556,2 8.5,2 6.55556,2 5,3.55556 5,5.5 5,7.44444 6.55556,9 8.5,9 9.97778,9 11.3,8.06667 11.76667,6.66667 h 2.56666 V 7.83333 C 14.33333,8.47767 14.85567,9 15.5,9 16.1443,9 16.6667,8.47767 16.6667,7.83333 V 6.66667 h 1.1666 C 18.4777,6.66667 19,6.14433 19,5.5 19,4.85567 18.4777,4.33333 17.8333,4.33333 Z M 7.33333,5.5 C 7.33333,4.87778 7.87778,4.33333 8.5,4.33333 9.12222,4.33333 9.66667,4.87778 9.66667,5.5 9.66667,6.12222 9.12222,6.66667 8.5,6.66667 7.87778,6.66667 7.33333,6.12222 7.33333,5.5 Z M 15.2929,17.2929 14,18.5858 V 13 c 0,-0.5523 -0.44772,-1 -1,-1 -0.55229,0 -1,0.4477 -1,1 v 5.5858 l -1.29289,-1.2929 c -0.39053,-0.3905 -1.02369,-0.3905 -1.41422,0 -0.39052,0.3905 -0.39052,1.0237 0,1.4142 l 3,3 c 0.39053,0.3905 1.02369,0.3905 1.41422,0 l 2.99999,-3 c 0.3905,-0.3905 0.3905,-1.0237 0,-1.4142 -0.3905,-0.3905 -1.0237,-0.3905 -1.4142,0 z" />
</svg>
