<svg width="24" height="24" viewBox="0 0 24 24" fill="none" xmlns="http://www.w3.org/2000/svg">
  <path d="m 20.8,5.34436 c 0,0 0,0.00179 -0.871,0.00179 H 20.8 v 4.25724 c 0,0.48102 -0.3899,0.87097 -0.871,0.87097 -0.481,0 -0.8709,-0.38995 -0.8709,-0.87097 V 7.75598 C 17.7475,8.56122 15.5344,9.19231 11.8,9.19231 8.06561,9.19231 5.85254,8.56122 4.54194,7.75598 v 3.72468 c 6.4e-4,0.0052 0.00186,0.01363 0.00402,0.02514 0.00704,0.0372 0.024,0.1059 0.06377,0.1962 0.07761,0.1762 0.25018,0.4541 0.64418,0.7524 0.79422,0.6013 2.58579,1.3533 6.54609,1.3533 1.1311,0 2.0853,-0.0614 2.8899,-0.163 0.4749,-0.06 0.9107,0.3006 0.9107,0.7792 0,0.3732 -0.2698,0.6932 -0.64,0.7405 -0.909,0.116 -1.9556,0.1818 -3.1606,0.1818 -3.73439,0 -5.94746,-0.6311 -7.25806,-1.4364 v 3.7247 c 6.4e-4,0.0052 0.00186,0.0136 0.00402,0.0251 0.00704,0.0373 0.024,0.1059 0.06377,0.1962 0.07761,0.1763 0.25018,0.4542 0.64418,0.7525 0.79422,0.6012 2.58579,1.3532 6.54609,1.3532 0.12235,0 0.24263,-7e-4 0.36087,-0.0021 0.43674,-0.0052 0.80043,0.3429 0.80043,0.7797 0,0.4128 -0.32622,0.7527 -0.73897,0.7582 C 12.08376,21.4991 11.943,21.5 11.8,21.5 7.63127,21.5 5.35832,20.7136 4.12028,19.7764 3.498159,19.3054 3.162663,18.8141 2.986238,18.4134 2.8989865,18.2153 2.852445,18.0435 2.8277275,17.9125 c -0.012357,-0.0655 -0.019282,-0.1209 -0.02312,-0.1644 -0.00192,-0.0219 -0.00307,-0.0407 -0.00374,-0.0565 l -6.839e-4,-0.0213 -1.397e-4,-0.0088 -3.1e-5,-0.004 -7.3e-6,-0.0019 c 0,0 -2.3e-6,-0.0018 0.8709657,-0.0018 H 2.8 V 5.34615 H 3.670965 C 2.7999976,5.34615 2.8,5.34436 2.8,5.34436 l 7.3e-6,-0.00187 3.1e-5,-0.00396 1.397e-4,-0.00885 6.838e-4,-0.02128 c 6.715e-4,-0.01576 0.00182,-0.03465 0.00374,-0.05645 0.00384,-0.04359 0.010763,-0.09899 0.02312,-0.16447 C 2.8524427,4.9565 2.8989842,4.78473 2.986235,4.58658 3.162661,4.18591 3.498156,3.69461 4.12028,3.22365 5.35832,2.286427 7.63127,1.5 11.8,1.5 c 4.1687,0 6.4417,0.786427 7.6797,1.72365 0.6221,0.47096 0.9576,0.96226 1.1341,1.36293 0.0872,0.19815 0.1338,0.36992 0.1585,0.5009 0.0123,0.06548 0.0193,0.12088 0.0231,0.16447 0.0019,0.0218 0.0031,0.04069 0.0037,0.05645 l 7e-4,0.02128 2e-4,0.00885 V 5.34249 Z M 4.54596,5.3519 4.54491,5.34615 4.54596,5.3404 C 4.553,5.30312 4.56996,5.2345 4.60973,5.14419 4.68733,4.96794 4.8599,4.69001 5.25391,4.39174 6.04813,3.7905 7.8397,3.03846 11.8,3.03846 c 3.9603,0 5.7519,0.75204 6.5461,1.35328 0.394,0.29827 0.5666,0.5762 0.6442,0.75245 C 19.03,5.2345 19.047,5.30312 19.054,5.3404 L 19.0551,5.34615 19.054,5.3519 C 19.047,5.38919 19.03,5.45781 18.9903,5.54812 18.9127,5.72437 18.7401,6.0023 18.3461,6.30057 17.5519,6.90181 15.7603,7.65385 11.8,7.65385 7.8397,7.65385 6.04813,6.90181 5.25391,6.30057 4.8599,6.0023 4.68733,5.72437 4.60973,5.54812 4.56996,5.45781 4.553,5.38919 4.54596,5.3519 Z M 22.0929,17.7929 20.8,19.0858 V 13.5 c 0,-0.5523 -0.4477,-1 -1,-1 -0.5523,0 -1,0.4477 -1,1 v 5.5858 l -1.2929,-1.2929 c -0.3905,-0.3905 -1.0237,-0.3905 -1.4142,0 -0.3905,0.3905 -0.3905,1.0237 0,1.4142 l 3,3 c 0.3905,0.3905 1.0237,0.3905 1.4142,0 l 3,-3 c 0.3905,-0.3905 0.3905,-1.0237 0,-1.4142 -0.3905,-0.3905 -1.0237,-0.3905 -1.4142,0 z" clip-rule="evenodd" fill-rule="evenodd" />
</svg>
