<svg fill="none" height="24" viewBox="0 0 24 24" width="24" xmlns="http://www.w3.org/2000/svg">
	<path fill-rule="evenodd" d="M 6.184205,2 C 4.701755,2 3.5,3.221045 3.5,4.72727 v 14.54538 c 0,1.5063 1.201755,2.7273 2.684205,2.7273 h 11.631511 c 1.482599,0 2.684248,-1.221 2.684248,-2.7273 v -9.09084 c 0,-0.24111 -0.0942,-0.472335 -0.262049,-0.642825 L 13.080035,2.26628 C 12.9944,2.17928 12.89321,2.11172 12.783155,2.066435 12.677495,2.022965 12.563585,2 12.447365,2 Z M 11.55263,3.81818 H 6.184205 c -0.49416,0 -0.894735,0.40701 -0.894735,0.90909 v 14.54538 c 0,0.5022 0.40059,0.90915 0.894735,0.90915 h 11.631511 c 0.494249,0 0.894749,-0.40695 0.894749,-0.90915 V 11.0909 h -6.2631 c -0.49416,0 -0.894735,-0.406995 -0.894735,-0.90909 z M 17.445216,9.27275 13.3421,5.103845 V 9.27275 Z" clip-rule="evenodd" />
</svg>
