<svg width="24" height="24" viewBox="0 0 24 24" fill="none" xmlns="http://www.w3.org/2000/svg">
	<path fill-rule="evenodd" clip-rule="evenodd" d="M3.0817 3.0808C2.67107 2.67017 2.01895 2.65652 1.62515 3.05032C1.23135 3.44412 1.245 4.09624 1.65563 4.50687L6.71553 9.56677L9.23848 12.3418V18.2996C9.23848 18.6406 9.43547 18.9521 9.74733 19.1046L13.4294 20.9046C13.7148 21.0441 14.0536 21.0292 14.325 20.8653C14.5964 20.7012 14.7616 20.4116 14.7616 20.0996V17.6128L17.428 20.2793C17.8387 20.6899 18.4908 20.7035 18.8846 20.3097C19.2784 19.916 19.2647 19.2638 18.8541 18.8532L3.0817 3.0808ZM12.9205 15.7718L11.0795 13.9307V17.7434L12.9205 18.6434V15.7718Z"/>
	<path d="M19.1554 4.79964L13.6662 10.8373L14.9564 12.1275L20.5314 5.99549C21.5868 4.83467 20.744 2.99964 19.1554 2.99964H5.82848L7.62848 4.79964H19.1554Z" />
</svg>
