<svg width="18" height="18" viewBox="0 0 18 18" fill="none" xmlns="http://www.w3.org/2000/svg">
	<path fill-rule="evenodd" clip-rule="evenodd" d="M0.468634 2.99586C-0.586743 1.83503 0.256104 0 1.84465 0H16.1554C17.7439 0 18.5867 1.83504 17.5314 2.99586L11.7615 9.34218V17.1C11.7615 17.4119 11.5964 17.7016 11.3249 17.8656C11.0536 18.0296 10.7147 18.0445 10.4294 17.905L6.74728 16.105C6.43542 15.9525 6.23843 15.6409 6.23843 15.3V9.34218L0.468634 2.99586ZM16.1554 1.8H1.84465L7.84694 8.40204C7.9967 8.56683 8.07946 8.77959 8.07946 9V14.7438L9.9205 15.6438V9C9.9205 8.77959 10.0033 8.56683 10.153 8.40204L16.1554 1.8Z" />
</svg>
