<svg fill="none" height="24" viewBox="0 0 24 24" width="24" xmlns="http://www.w3.org/2000/svg">
	<path d="m 20.14285,6.1153895 h -9.214995 l -1.5675,-2.07924 C 9.23401,3.8695595 9.06856,3.7341245 8.87749,3.6409445 8.686435,3.5477645 8.475205,3.4994645 8.261065,3.5000045 H 3.85714 c -0.35994,0 -0.705135,0.137775 -0.95964,0.38301 C 2.64298,4.1282495 2.5,4.4608745 2.5,4.8076895 V 19.192239 c 0,0.34695 0.14298,0.6795 0.3975,0.92475 0.254505,0.24525 0.5997,0.38295 0.95964,0.38295 h 16.28571 c 0.36,0 0.70515,-0.1377 0.9597,-0.38295 0.2544,-0.24525 0.3975,-0.5778 0.3975,-0.92475 V 7.4230745 c 0,-0.346815 -0.1431,-0.67944 -0.3975,-0.924675 -0.25455,-0.245235 -0.5997,-0.38301 -0.9597,-0.38301 z M 3.85714,7.4230745 v -2.615385 h 4.403925 l 1.84572,2.615385 z" />
</svg>
