<svg fill="none" height="24" viewBox="0 0 24 24" width="24" xmlns="http://www.w3.org/2000/svg">
    <path clip-rule="evenodd" 
        d="M9 6C7.34314 6 6 7.34314 6 9C6 10.6568 7.34315 12 9 12C10.6568 12 12 10.6568 12 9C12 7.34315 10.6568 6 9 6ZM4 9C4 6.23858 6.23857 4 9 4C11.7614 4 14 6.23857 14 9C14 11.7614 11.7614 14 9 14C6.23857 14 4 11.7614 4 9ZM14 5C14 4.44772 14.4477 4 15 4C17.7614 4 20 6.23857 20 9C20 11.7614 17.7614 14 15 14C14.4477 14 14 13.5523 14 13C14 12.4477 14.4477 12 15 12C16.6568 12 18 10.6568 18 9C18 7.34315 16.6568 6 15 6C14.4477 6 14 5.55228 14 5ZM4.20266 16.3395C5.47421 15.4918 7.17325 15 9 15C10.8267 15 12.5258 15.4918 13.7973 16.3395C15.0619 17.1826 16 18.4571 16 20C16 20.5523 15.5523 21 15 21C14.4477 21 14 20.5523 14 20C14 19.3338 13.5949 18.6083 12.6879 18.0036C11.7879 17.4036 10.487 17 9 17C7.51304 17 6.21208 17.4036 5.31206 18.0036C4.40505 18.6083 4 19.3338 4 20C4 20.5523 3.55228 21 3 21C2.44772 21 2 20.5523 2 20C2 18.4571 2.93809 17.1826 4.20266 16.3395ZM16.0267 15.9981C16.1533 15.4606 16.6918 15.1275 17.2294 15.2542C19.7332 15.8442 22 17.5593 22 19.9999C22 20.5522 21.5523 20.9999 21 20.9999C20.4477 20.9999 20 20.5522 20 19.9999C20 18.9573 18.9276 17.7092 16.7706 17.2008C16.2331 17.0742 15.9 16.5357 16.0267 15.9981Z"
        fill-rule="evenodd"/>
</svg>