<svg fill="none" height="22" viewBox="0 0 20 22" width="20" xmlns="http://www.w3.org/2000/svg">
    <path clip-rule="evenodd" d="M10.3328 2.17792C10.1174 2.10191 9.88255 2.10191 9.66718 2.17792L3.16718 4.47204C2.76737 4.61315 2.5 4.99105 2.5 5.41503V8.5647C2.5 12.8171 4.75049 16.7519 8.41576 18.9079L9.49298 19.5416C9.80593 19.7257 10.1941 19.7257 10.507 19.5416L11.5842 18.9079C15.2495 16.7519 17.5 12.8171 17.5 8.5647V5.41503C17.5 4.99104 17.2326 4.61315 16.8328 4.47204L10.3328 2.17792ZM9.00154 0.29194C9.64765 0.0639008 10.3524 0.0639012 10.9985 0.29194L17.4985 2.58606C18.6979 3.00939 19.5 4.14308 19.5 5.41503V8.5647C19.5 13.5258 16.8744 18.1164 12.5983 20.6318L11.5211 21.2654C10.5822 21.8177 9.41779 21.8177 8.47894 21.2654L7.40172 20.6318C3.12558 18.1164 0.5 13.5258 0.5 8.5647V5.41503C0.5 4.14308 1.3021 3.00939 2.50154 2.58606L9.00154 0.29194Z"
          fill="#FFFFFF"
          fill-rule="evenodd"/>
</svg>
