<svg width="30" height="30" viewBox="0 0 30 30" fill="none" xmlns="http://www.w3.org/2000/svg">
    <path d="M21.3971 13.298L21.3973 14.7636C21.3973 13.298 21.3972 13.298 21.3971 13.298Z" fill="#4169E2"/>
    <path d="M7.91656 7.9687L6.45836 7.9526C6.45836 7.95253 6.45836 7.95248 7.91656 7.9687Z" fill="#4169E2"/>
    <path fill-rule="evenodd" clip-rule="evenodd" d="M5.5 0C2.46243 0 0 2.46243 0 5.5V23.8333C0 26.8709 2.46243 29.3333 5.5 29.3333H23.8333C26.8709 29.3333 29.3333 26.8709 29.3333 23.8333V5.5C29.3333 2.46243 26.8709 0 23.8333 0H5.5ZM22.8556 6.85215L14.6569 4.58333L6.47051 6.84876L6.45836 7.9526L6.45451 8.32098C6.45213 8.55582 6.44883 8.89226 6.44517 9.29893C6.43784 10.1121 6.42905 11.2069 6.42319 12.332C6.41733 13.4563 6.41437 14.6145 6.4188 15.5535C6.42301 16.4482 6.43345 17.2464 6.46527 17.5716C6.6246 19.2002 7.58176 20.4346 8.33664 21.1849C8.72914 21.575 9.10996 21.8771 9.39317 22.0826C9.53578 22.1861 9.65635 22.267 9.74485 22.3242C9.78917 22.3528 9.82566 22.3756 9.85309 22.3925L9.88738 22.4133L9.89919 22.4203L9.90372 22.423L9.9065 22.4246C9.90691 22.4249 9.90731 22.4251 10.6414 21.1588L9.90731 22.4251L9.94997 22.4501L14.5712 24.75L15.1593 24.5331L14.6569 23.1572C15.1593 24.5331 15.159 24.5332 15.1593 24.5331L15.1626 24.5319L15.1677 24.53L15.1836 24.524L15.2371 24.5036C15.2821 24.4863 15.3455 24.4616 15.4249 24.4295C15.5836 24.3656 15.8072 24.2724 16.0769 24.1518C16.6138 23.9116 17.3451 23.5575 18.1151 23.1026C18.8801 22.6506 19.7172 22.0794 20.4451 21.3971C21.1634 20.7236 21.8553 19.8675 22.2048 18.8312C22.4981 17.9613 22.6552 16.938 22.7412 16.1905C22.7855 15.8049 22.8135 15.4682 22.8306 15.2268C22.8391 15.1058 22.8449 15.0079 22.8487 14.939C22.8505 14.9045 22.8519 14.8772 22.8528 14.8577L22.8539 14.8346L22.8543 14.8252L22.8543 14.824C22.8543 14.8238 22.8543 14.8237 21.3973 14.7636L22.8543 14.824L22.9167 13.298H21.3971H14.2025V16.2291H19.7966C19.7163 16.8145 19.6005 17.4219 19.4425 17.8905C19.3063 18.2943 18.9846 18.7578 18.4556 19.2537C17.9362 19.7407 17.2924 20.1886 16.6371 20.5757C15.9868 20.9599 15.3586 21.2647 14.891 21.4739C14.8295 21.5014 14.771 21.5271 14.7158 21.5511L11.3465 19.8743L11.3219 19.8585C11.2727 19.8267 11.1959 19.7754 11.1004 19.7061C10.9073 19.566 10.6485 19.3602 10.3875 19.1008C9.83536 18.5521 9.43011 17.9212 9.36785 17.2848C9.35286 17.1316 9.3399 16.5082 9.33534 15.5396C9.33099 14.6152 9.33389 13.4683 9.33973 12.3473C9.34556 11.2272 9.35432 10.1364 9.36163 9.32546L9.36379 9.08832L14.6569 7.62355L19.939 9.08525V11.2995H22.8556V6.85215Z" fill="#4169E2"/>
</svg>
