<svg width="24" height="24" viewBox="0 0 24 24" fill="none" xmlns="http://www.w3.org/2000/svg">
	<path d="M10.0303 3.75758C10.1642 3.22187 10.7065 2.89625 11.2422 3.03004C11.7779 3.16397 12.1035 3.70624 11.9697 4.24196L11.0303 7.99977H14.9697L16.0303 3.75758C16.1642 3.22187 16.7065 2.89625 17.2422 3.03004C17.7779 3.16397 18.1035 3.70624 17.9697 4.24196L17.0303 7.99977H19C19.5523 7.99977 20 8.44749 20 8.99977C20 9.55206 19.5523 9.99977 19 9.99977H16.5303L15.5303 13.9998H19C19.5523 13.9998 20 14.4475 20 14.9998C20 15.5521 19.5523 15.9998 19 15.9998H15.0303L13.9697 20.242C13.8358 20.7777 13.2935 21.1033 12.7578 20.9695C12.2221 20.8356 11.8965 20.2933 12.0303 19.7576L12.9697 15.9998H9.03027L7.96973 20.242C7.8358 20.7777 7.29353 21.1033 6.75781 20.9695C6.22209 20.8356 5.89648 20.2933 6.03027 19.7576L6.96973 15.9998H5C4.44772 15.9998 4 15.5521 4 14.9998C4 14.4475 4.44772 13.9998 5 13.9998H7.46973L8.46973 9.99977H5C4.44772 9.99977 4 9.55206 4 8.99977C4 8.44749 4.44772 7.99977 5 7.99977H8.96973L10.0303 3.75758ZM9.53027 13.9998H13.4697L14.4697 9.99977H10.5303L9.53027 13.9998Z" />
</svg>
