<svg width="24" height="24" viewBox="0 0 24 24" fill="none" xmlns="http://www.w3.org/2000/svg">
  <path fill-rule="evenodd" clip-rule="evenodd" d="m 5,0.5 c -0.552285,0 -1,0.447715 -1,1 v 12 c 0,0.5523 0.447715,1 1,1 0.55228,0 1,-0.4477 1,-1 v -11 h 8.0858 L 18,6.4142105 V 7.5 c 0,0.5523 0.4477,1 1,1 0.5523,0 1,-0.4477 1,-1 V 6.0000005 c 0,-0.26522 -0.1054,-0.51957 -0.2929,-0.70711 l -4.5,-4.4999975 C 15.0196,0.605357 14.7652,0.5 14.5,0.5 Z m 13.6471,17.9775 c 0.2285,0.1469 0.3584,0.354 0.3899,0.6215 h 0.8804 C 19.9095,18.7882 19.815,18.5132 19.6338,18.2741 19.4526,18.033 19.2044,17.8437 18.8893,17.7062 18.5762,17.5687 18.2148,17.5 17.8052,17.5 c -0.4057,0 -0.77,0.0697 -1.093,0.2091 -0.323,0.1374 -0.579,0.3305 -0.7681,0.5791 -0.189,0.2486 -0.2836,0.5396 -0.2836,0.8729 0,0.4031 0.1408,0.727 0.4225,0.9718 0.2836,0.2449 0.6676,0.4304 1.1521,0.5566 l 0.7148,0.1864 c 0.2167,0.0546 0.4107,0.1177 0.582,0.1893 0.1733,0.0716 0.3102,0.162 0.4106,0.2712 0.1024,0.1092 0.1536,0.2495 0.1536,0.4209 0,0.1884 -0.0581,0.3532 -0.1743,0.4944 -0.1162,0.1394 -0.2757,0.2486 -0.4785,0.3277 -0.2009,0.0772 -0.4303,0.1158 -0.6883,0.1158 -0.2344,0 -0.45,-0.0329 -0.647,-0.0988 -0.1949,-0.0678 -0.3554,-0.1705 -0.4815,-0.308 -0.1241,-0.1393 -0.195,-0.3136 -0.2127,-0.5226 H 15.498 c 0.0197,0.3484 0.1231,0.6498 0.3102,0.904 0.1871,0.2524 0.4461,0.4473 0.777,0.5848 0.3308,0.1375 0.7227,0.2062 1.1757,0.2062 0.4726,0 0.8754,-0.0734 1.2082,-0.2203 0.3348,-0.1469 0.5898,-0.3475 0.7651,-0.6018 0.1773,-0.2542 0.2659,-0.5452 0.2659,-0.8729 0,-0.2599 -0.0542,-0.4831 -0.1625,-0.6695 -0.1063,-0.1865 -0.2462,-0.3428 -0.4195,-0.469 C 19.2448,20.5011 19.0567,20.3994 18.8539,20.3222 18.651,20.245 18.4531,20.1838 18.2601,20.1386 L 17.6693,19.9917 C 17.5511,19.9634 17.4281,19.9276 17.3,19.8843 17.172,19.8391 17.0519,19.7836 16.9396,19.7176 16.8294,19.6498 16.7397,19.566 16.6708,19.4662 c -0.0669,-0.0998 -0.1004,-0.2184 -0.1004,-0.3559 0,-0.1639 0.0492,-0.3098 0.1477,-0.4379 0.1004,-0.13 0.2412,-0.2317 0.4224,-0.3051 0.1812,-0.0753 0.3959,-0.113 0.644,-0.113 0.3466,0 0.6342,0.0744 0.8626,0.2232 z m -7.60608,4.8874 v -5.7857 h 0.91281 v 5.0342 h 2.74137 v 0.7515 z M 6.51689,19.8421 5.06938,17.5792 H 4.011817 L 5.92902,20.4721 4,23.3649 h 1.06347 l 1.45342,-2.2318 h 0.04726 l 1.45342,2.2318 H 9.08104 L 7.18451,20.4721 9.06922,17.5792 H 8.01166 l -1.44751,2.2629 z" />
  <path d="m 14.667216,8.0531483 c 0.39053,0.39053 0.39053,1.02369 0,1.4142201 l -1.2929,1.2928896 h 5.5858 c 0.55228,0 1,0.44771 1,1.000001 0,0.55228 -0.44772,1 -1,1 h -5.5858 l 1.2929,1.2929 c 0.39053,0.3905 0.39053,1.0237 0,1.4142 -0.3905,0.3905 -1.0237,0.3905 -1.4142,0 l -3,-2.99999 c -0.3905003,-0.39053 -0.3905003,-1.023691 0,-1.414221 l 3,-2.9999997 c 0.3905,-0.39052 1.0237,-0.39052 1.4142,0 z" clip-rule="evenodd" fill-rule="evenodd" />
</svg>
