<svg width="24" height="24" viewBox="0 0 24 24" fill="none" xmlns="http://www.w3.org/2000/svg">
  <path d="m 13,20.5 h 6 c 2.7614,0 5,-2.2386 5,-5 0,-2.45317 -1.7667,-4.49371 -4.0972,-4.9187 C 19.9667,10.23055 20,9.86917 20,9.5 20,6.18629 17.3137,3.5 14,3.5 11.6409,3.5 9.59988,4.86144 8.61964,6.84148 8.1245,6.62196 7.5765,6.5 7,6.5 c -2.20914,0 -4,1.79086 -4,4 0,0.13745 0.00693,0.27328 0.02047,0.40716 C 1.24364,11.67401 0,13.44177 0,15.5 c 0,2.419 1.71776,4.4367 4,4.9 l 0.5,0.1 H 11 v -6.5858 l -1.79289,1.7929 c -0.39053,0.3905 -1.02369,0.3905 -1.41422,0 -0.39052,-0.3905 -0.39052,-1.0237 0,-1.4142 l 3.50001,-3.50001 c 0.3905,-0.39052 1.0237,-0.39052 1.4142,0 l 3.5,3.50001 c 0.3905,0.3905 0.3905,1.0237 0,1.4142 -0.3905,0.3905 -1.0237,0.3905 -1.4142,0 L 13,13.9142 Z" clip-rule="evenodd" fill-rule="evenodd" />
</svg>
