<svg fill="none" height="24" viewBox="0 0 24 24" width="24" xmlns="http://www.w3.org/2000/svg">
    <path clip-rule="evenodd"
          d="M11.0001 3C11.0001 2.44771 11.4478 2 12.0001 2C12.5524 2 13.0001 2.44772 13.0001 3V11.5858L15.293 9.29285C15.6836 8.90232 16.3167 8.90232 16.7073 9.29285C17.0978 9.68337 17.0978 10.3165 16.7073 10.7071L12.7073 14.7071L12.7072 14.707C12.5263 14.888 12.2762 15 12.0001 15C11.7239 15 11.4739 14.888 11.2929 14.707L11.2929 14.7071L7.29289 10.7071C6.90237 10.3165 6.90237 9.68337 7.29289 9.29285C7.68342 8.90232 8.31658 8.90232 8.70711 9.29285L11.0001 11.5858V3ZM5 14.5C5 13.9477 4.55228 13.5 4 13.5C3.44772 13.5 3 13.9477 3 14.5V18C3 19.6569 4.34315 21 6 21H18C19.6569 21 21 19.6569 21 18V14.5C21 13.9477 20.5523 13.5 20 13.5C19.4477 13.5 19 13.9477 19 14.5V18C19 18.5523 18.5523 19 18 19H6C5.44772 19 5 18.5523 5 18V14.5Z"
          fill-rule="evenodd"/>
</svg>