<svg width="24" height="24" viewBox="0 0 24 24" fill="none" xmlns="http://www.w3.org/2000/svg">
	<path fill-rule="evenodd" clip-rule="evenodd" d="M 15,8.25 C 15,8.66421 15.3358,9 15.75,9 h 3.5 C 19.6642,9 20,8.66421 20,8.25 V 4.75 C 20,4.33579 19.6642,4 19.25,4 h -3.5 C 15.3358,4 15,4.33579 15,4.75 Z M 15.75,11 C 14.2312,11 13,9.76878 13,8.25 V 4.75 C 13,3.23122 14.2312,2 15.75,2 h 3.5 C 20.7688,2 22,3.23122 22,4.75 v 3.5 C 22,9.76878 20.7688,11 19.25,11 Z M 13,15.25 v 4.5 c 0,1.2426 1.0074,2.25 2.25,2.25 h 4.5 C 20.9926,22 22,20.9926 22,19.75 v -4.5 C 22,14.0074 20.9926,13 19.75,13 h -4.5 C 14.0074,13 13,14.0074 13,15.25 Z M 2,11.50024 C 2,13.9562 3.23997,16.7008 5.54321,18.5002 H 3.5 c -0.552284,0 -1,0.4478 -1,1 0,0.5523 0.447716,1 1,1 h 5 c 0.55229,0 1,-0.4477 1,-1 v -5 c 0,-0.5522 -0.44772,-1 -1,-1 -0.55228,0 -1,0.4478 -1,1 v 2.9215 C 5.22516,16.0581 4,13.5911 4,11.50024 4,10.25818 4.22679,9.07067 4.86344,7.98094 5.49806,6.89468 6.58713,5.82471 8.44721,4.89467 8.94119,4.64768 9.14142,4.04701 8.89443,3.55303 8.64744,3.05905 8.04676,2.858827 7.55279,3.10582 5.41287,4.17578 4.00194,5.49081 3.13656,6.97205 2.273208,8.44981 2,10.01231 2,11.50024 Z" />
</svg>
