<svg width="24" height="24" viewBox="0 0 24 24" fill="none" xmlns="http://www.w3.org/2000/svg">
  <path fill-rule="evenodd" clip-rule="evenodd" d="m 4.2,2.5 c 0,-0.552285 0.447715,-1 1,-1 h 8.82143 c 0.26687,0 0.52267,0.106675 0.71047,0.296285 L 18.9105,6.01503 C 19.096,6.20229 19.2,6.45519 19.2,6.71875 V 7.5 10.474775 c 0,0.55228 -0.4477,1 -1,1 -0.5523,0 -1,-0.44772 -1,-1 V 8.5 h -3 c -1.10457,0 -2,-0.89543 -2,-2 v -3 h -6 v 13.799325 h 4 c 0.55228,0 1,0.4477 1,1 0,0.5523 -0.44772,1 -1,1 h -5 c -0.552285,0 -1,-0.4477 -1,-1 z m 10,1.60132 V 6.5 h 2.3758 z m 4.5016,9.474105 c -0.3998,-0.381 -1.0328,-0.3658 -1.4138,0.034 l -3.81174,4 c -0.36808,0.3863 -0.36808,0.9935 0,1.3798 l 3.81174,4 c 0.381,0.3998 1.014,0.415 1.4138,0.034 0.3999,-0.381 0.4151,-1.0139 0.0341,-1.4138 l -2.2014,-2.3101 H 23 c 0.5523,0 1,-0.4477 1,-1 0,-0.5523 -0.4477,-1 -1,-1 h -6.4657 l 2.2014,-2.3101 c 0.381,-0.3998 0.3658,-1.0328 -0.0341,-1.4138 z" />
</svg>
