<svg width="24" height="24" viewBox="0 0 24 24" fill="none" xmlns="http://www.w3.org/2000/svg">
	<path fill-rule="evenodd" clip-rule="evenodd" d="m 8.5,2 c 1.55556,0 2.8,0.933334 3.26667,2.33333 H 17.8333 C 18.4777,4.33333 19,4.85567 19,5.5 19,6.14433 18.4777,6.66667 17.8333,6.66667 H 16.6667 V 7.83333 C 16.6667,8.47767 16.1443,9 15.5,9 14.85567,9 14.33333,8.47767 14.33333,7.83333 V 6.66667 H 11.76667 C 11.3,8.06667 9.97778,9 8.5,9 6.55556,9 5,7.44444 5,5.5 5,3.55556 6.55556,2 8.5,2 Z m 0,2.33333 C 7.87778,4.33333 7.33333,4.87778 7.33333,5.5 7.33333,6.12222 7.87778,6.66667 8.5,6.66667 9.12222,6.66667 9.66667,6.12222 9.66667,5.5 9.66667,4.87778 9.12222,4.33333 8.5,4.33333 Z M 9.29289,16.7071 c 0.39053,0.3905 1.02369,0.3905 1.41422,0 L 12,15.4142 V 21 c 0,0.5523 0.44771,1 1,1 0.55228,0 1,-0.4477 1,-1 v -5.5858 l 1.2929,1.2929 c 0.3905,0.3905 1.0237,0.3905 1.4142,0 0.3905,-0.3905 0.3905,-1.0237 0,-1.4142 l -2.99999,-3 c -0.39053,-0.39053 -1.02369,-0.39053 -1.41422,0 l -3,3 c -0.39052,0.3905 -0.39052,1.0237 0,1.4142 z" />
</svg>
