<svg width="24" height="24" viewBox="0 0 24 24" fill="none" xmlns="http://www.w3.org/2000/svg">
    <path fill-rule="evenodd" clip-rule="evenodd" d="M12 4.22222C10.9786 4.22222 9.96722 4.4234 9.02357 4.81427C8.07993 5.20514 7.22251 5.77805 6.50028 6.50028C5.77805 7.22251 5.20514 8.07993 4.81427 9.02357C4.4234 9.96722 4.22222 10.9786 4.22222 12C4.22222 13.0214 4.4234 14.0328 4.81427 14.9764C5.20514 15.9201 5.77805 16.7775 6.50028 17.4997C7.22251 18.222 8.07993 18.7949 9.02357 19.1857C9.96722 19.5766 10.9786 19.7778 12 19.7778C14.0628 19.7778 16.0411 18.9583 17.4997 17.4997C18.9583 16.0411 19.7778 14.0628 19.7778 12C19.7778 9.93721 18.9583 7.9589 17.4997 6.50028C16.0411 5.04166 14.0628 4.22222 12 4.22222ZM2 12C2 9.34784 3.05357 6.8043 4.92893 4.92893C6.8043 3.05357 9.34784 2 12 2C14.6522 2 17.1957 3.05357 19.0711 4.92893C20.9464 6.8043 22 9.34784 22 12C22 14.6522 20.9464 17.1957 19.0711 19.0711C17.1957 20.9464 14.6522 22 12 22C9.34784 22 6.8043 20.9464 4.92893 19.0711C3.05357 17.1957 2 14.6522 2 12ZM10.8889 7.55556C10.8889 7.26087 11.006 6.97826 11.2143 6.76988C11.4227 6.56151 11.7053 6.44444 12 6.44444H12.0111C12.3058 6.44444 12.5884 6.56151 12.7968 6.76988C13.0052 6.97826 13.1222 7.26087 13.1222 7.55556C13.1222 7.85024 13.0052 8.13286 12.7968 8.34123C12.5884 8.5496 12.3058 8.66667 12.0111 8.66667H12C11.7053 8.66667 11.4227 8.5496 11.2143 8.34123C11.006 8.13286 10.8889 7.85024 10.8889 7.55556ZM10.9 16.4444C10.9 16.7391 11.0171 17.0217 11.2254 17.2301C11.4338 17.4385 11.7164 17.5556 12.0111 17.5556C12.3058 17.5556 12.5884 17.4385 12.7968 17.2301C13.0052 17.0217 13.1222 16.7391 13.1222 16.4444V10.8889C13.1222 10.5942 13.0052 10.3116 12.7968 10.1032C12.5884 9.89484 12.3058 9.77778 12.0111 9.77778C11.7164 9.77778 11.4338 9.89484 11.2254 10.1032C11.0171 10.3116 10.9 10.5942 10.9 10.8889V16.4444Z" />
</svg>
