<svg fill="none" height="24" viewBox="0 0 24 24" width="24" xmlns="http://www.w3.org/2000/svg">
    <path clip-rule="evenodd" d="M4.74497 3.74419C4.34917 3.3484 3.70908 3.34679 3.31528 3.74058C2.92149 4.13438 2.9231 4.77447 3.3189 5.17026L5.37297 7.22434C4.36235 7.3791 3.41989 7.85192 2.68804 8.58377C1.78207 9.48974 1.27305 10.7185 1.27295 11.9997C1.27302 13.2809 1.782 14.5096 2.68795 15.4156C3.59389 16.3215 4.82261 16.8305 6.10382 16.8306L8.06904 16.8305C8.30499 16.8264 8.52989 16.7298 8.69531 16.5615C8.86073 16.3932 8.95342 16.1666 8.95342 15.9306C8.95342 15.6947 8.86074 15.4681 8.69533 15.2998C8.52992 15.1315 8.30502 15.0349 8.06906 15.0308L6.10385 15.0308C5.3059 15.0118 4.54589 14.6864 3.9815 14.122C3.41711 13.5576 3.09167 12.7976 3.0727 11.9997C3.07296 11.1958 3.39241 10.425 3.96082 9.85655C4.52923 9.28814 5.30008 8.96869 6.10393 8.96843L7.11705 8.96842L9.24881 11.1002L8.06975 11.0997C7.89177 11.0997 7.7178 11.1525 7.56982 11.2514C7.42184 11.3503 7.3065 11.4909 7.23839 11.6553C7.17027 11.8197 7.15244 12.0007 7.18713 12.1752C7.22183 12.3498 7.30751 12.5101 7.43333 12.636C7.5167 12.7198 7.61588 12.7863 7.72512 12.8315C7.83436 12.8767 7.95149 12.8998 8.06973 12.8995L11.0493 12.9006L18.5213 20.3726C18.917 20.7684 19.5571 20.77 19.9509 20.3762C20.3447 19.9824 20.3431 19.3423 19.9473 18.9466L4.74497 3.74419ZM18.7412 14.9126L20.1206 16.2919C20.5598 16.0635 20.9619 15.7681 21.312 15.4156C21.9875 14.74 22.4475 13.8792 22.6339 12.9422C22.8203 12.0051 22.7247 11.0338 22.3591 10.1511C21.9935 9.26842 21.3745 8.51393 20.5801 7.98304C19.7858 7.45215 18.8519 7.1687 17.8965 7.16853L15.9313 7.16855C15.8118 7.16648 15.6931 7.18822 15.5821 7.23251C15.4711 7.2768 15.37 7.34276 15.2848 7.42653C15.1996 7.51029 15.1319 7.6102 15.0856 7.72041C15.0394 7.83062 15.0156 7.94893 15.0156 8.06844C15.0156 8.18795 15.0394 8.30626 15.0856 8.41647C15.1319 8.52668 15.1995 8.62658 15.2848 8.71034C15.37 8.79411 15.4711 8.86006 15.5821 8.90435C15.6931 8.94864 15.8118 8.97038 15.9313 8.9683L17.8933 8.97146C18.6913 8.99043 19.4513 9.31587 20.0156 9.88026C20.58 10.4446 20.9055 11.2047 20.9245 12.0026C20.9242 12.8065 20.6047 13.5773 20.0363 14.1457C19.6727 14.5094 19.2262 14.7711 18.7412 14.9126ZM14.9311 11.1024L16.524 12.6954C16.5434 12.6793 16.5622 12.6623 16.5803 12.6446C16.6655 12.5608 16.7332 12.4609 16.7794 12.3507C16.8256 12.2405 16.8494 12.1222 16.8494 12.0027C16.8494 11.8832 16.8256 11.7648 16.7794 11.6546C16.7332 11.5444 16.6655 11.4445 16.5803 11.3608C16.495 11.277 16.394 11.211 16.283 11.1667C16.172 11.1225 16.0533 11.1007 15.9338 11.1028L14.9311 11.1024Z"
          fill="#0031ff"
          fill-rule="evenodd"/>
</svg>
