<svg fill="none" height="24" viewBox="0 0 24 24" width="24" xmlns="http://www.w3.org/2000/svg">
    <path d="M21.312 15.4153C20.8642 15.8661 20.3315 16.2235 19.7446 16.4669C19.1578 16.7103 18.5285 16.8348 17.8932 16.8333L15.928 16.8333C15.692 16.8292 15.4671 16.7326 15.3017 16.5643C15.1363 16.396 15.0436 16.1694 15.0436 15.9334C15.0436 15.6975 15.1363 15.4709 15.3017 15.3026C15.4671 15.1343 15.692 15.0377 15.928 15.0336L17.8932 15.0335C18.6971 15.0333 19.4679 14.7138 20.0363 14.1454C20.6047 13.577 20.9242 12.8061 20.9244 12.0023C20.9055 11.2044 20.58 10.4443 20.0156 9.87996C19.4512 9.31557 18.6912 8.99013 17.8933 8.97115L15.9313 8.968C15.8118 8.97008 15.6931 8.94834 15.5821 8.90405C15.4711 8.85976 15.37 8.79381 15.2848 8.71004C15.1995 8.62627 15.1318 8.52637 15.0856 8.41616C15.0394 8.30595 15.0156 8.18764 15.0156 8.06814C15.0156 7.94863 15.0394 7.83032 15.0856 7.72011C15.1318 7.60989 15.1995 7.50999 15.2848 7.42622C15.37 7.34245 15.4711 7.2765 15.5821 7.23221C15.6931 7.18792 15.8118 7.16617 15.9313 7.16825L17.8965 7.16822C18.8519 7.1684 19.7858 7.45185 20.5801 7.98274C21.3745 8.51362 21.9935 9.26811 22.3591 10.1508C22.7247 11.0335 22.8203 12.0048 22.6339 12.9419C22.4475 13.8789 21.9875 14.7397 21.312 15.4153ZM1.27293 11.9994C1.273 13.2806 1.78198 14.5093 2.68793 15.4153C3.59388 16.3212 4.82259 16.8302 6.10381 16.8303L8.06902 16.8302C8.30497 16.8261 8.52988 16.7295 8.69529 16.5612C8.86071 16.3929 8.9534 16.1663 8.9534 15.9303C8.95341 15.6944 8.86072 15.4678 8.69531 15.2995C8.5299 15.1312 8.305 15.0346 8.06905 15.0305L6.10383 15.0305C5.30588 15.0115 4.54587 14.6861 3.98148 14.1217C3.41709 13.5573 3.09165 12.7973 3.07268 11.9994C3.07294 11.1955 3.39239 10.4247 3.9608 9.85625C4.52921 9.28783 5.30007 8.96839 6.10391 8.96813L8.06913 8.9681C8.18861 8.97018 8.30732 8.94843 8.41832 8.90414C8.52932 8.85985 8.63038 8.7939 8.71562 8.71013C8.80086 8.62636 8.86856 8.52646 8.91477 8.41624C8.96098 8.30603 8.98479 8.18772 8.98479 8.06821C8.98479 7.94871 8.96099 7.8304 8.91478 7.72019C8.86857 7.60998 8.80087 7.51007 8.71564 7.42631C8.6304 7.34254 8.52934 7.27659 8.41834 7.2323C8.30734 7.18801 8.18864 7.16627 8.06915 7.16835L6.10393 7.16838C4.82272 7.16848 3.59399 7.67749 2.68802 8.58346C1.78205 9.48943 1.27303 10.7182 1.27293 11.9994ZM7.43331 12.6357C7.51669 12.7195 7.61587 12.786 7.72511 12.8312C7.83435 12.8764 7.95148 12.8995 8.06971 12.8992L15.9337 12.9022C16.0532 12.9043 16.1719 12.8826 16.2829 12.8383C16.3939 12.794 16.495 12.728 16.5802 12.6443C16.6655 12.5605 16.7332 12.4606 16.7794 12.3504C16.8256 12.2402 16.8494 12.1219 16.8494 12.0024C16.8494 11.8829 16.8256 11.7645 16.7794 11.6543C16.7332 11.5441 16.6655 11.4442 16.5803 11.3605C16.495 11.2767 16.394 11.2107 16.283 11.1664C16.172 11.1222 16.0533 11.1004 15.9338 11.1025L8.06973 11.0994C7.89176 11.0994 7.71778 11.1522 7.5698 11.2511C7.42183 11.35 7.30649 11.4906 7.23837 11.655C7.17026 11.8194 7.15242 12.0004 7.18712 12.1749C7.22182 12.3495 7.30749 12.5098 7.43331 12.6357Z"
          fill="#0031ff"/>
</svg>
