<svg fill="none" height="24" viewBox="0 0 24 24" width="24" xmlns="http://www.w3.org/2000/svg">
	<path d="M 2,6 C 2,5.17158 2.67158,4.5 3.5,4.5 4.32842,4.5 5,5.17158 5,6 5,6.82842 4.32842,7.5 3.5,7.5 2.67158,7.5 2,6.82842 2,6 Z m 4.999995,6.15e-4 c 3e-5,-0.552285 0.44778,-0.999975 1.00005,-0.999945 l 12.999959,7.2e-4 c 0.5523,3e-5 1.000051,0.447765 1.000051,1.00005 -1.5e-4,0.552285 -0.4479,0.999975 -1.000051,0.999945 L 7.99994,7.000665 C 7.447655,7.000635 6.999965,6.5529 6.999995,6.000615 Z M 2,12 C 2,11.17167 2.67152,10.5 3.5,10.5 4.32848,10.5 5,11.17167 5,12 5,12.82833 4.32848,13.5 3.5,13.5 2.67152,13.5 2,12.82833 2,12 Z m 4.999995,6.45e-4 c 3e-5,-0.552285 0.44778,-0.999975 1.000065,-0.999945 l 12.999944,7.95e-4 c 0.5523,4.5e-5 1.000051,0.44778 1.000051,1.000065 -1.5e-4,0.552285 -0.4479,0.999975 -1.000051,0.999945 L 7.99994,13.000695 c -0.552285,-3e-5 -0.999975,-0.447765 -0.999945,-1.00005 z M 2,18 C 2,17.1717 2.67152,16.5 3.5,16.5 4.32848,16.5 5,17.1717 5,18 5,18.8283 4.32848,19.5 3.5,19.5 2.67152,19.5 2,18.8283 2,18 Z m 4.999995,6e-4 c 3e-5,-0.5523 0.44778,-0.9999 1.000065,-0.9999 l 12.999944,7.5e-4 c 0.5523,1.5e-4 1.000051,0.4479 1.000051,1.00005 -1.5e-4,0.5523 -0.4479,1.00005 -1.000051,1.00005 l -13.000064,-9e-4 c -0.552285,0 -0.999975,-0.44775 -0.999945,-1.00005 z" clip-rule="evenodd" />
</svg>

