<svg fill="none" height="24" viewBox="0 0 31 24" width="31" xmlns="http://www.w3.org/2000/svg">
    <path d="M20.5859 21.871C19.1317 21.2099 17.6221 20.3698 15.8685 20.7706C15.6817 20.7741 15.517 20.8867 15.3354 20.896C15.1538 20.8867 14.9891 20.7741 14.8024 20.7706C13.0497 20.3698 11.5402 21.2099 10.0845 21.871C9.52486 22.1042 8.92098 22.1973 8.32094 22.1429C7.7209 22.0885 7.14124 21.8881 6.62805 21.5577C7.27819 22.3697 8.19828 22.8927 9.20225 23.0208C10.2062 23.149 11.2191 22.8726 12.0361 22.2478C12.8953 21.7401 13.6354 20.7441 14.7677 21.1204C13.5882 21.7041 12.5182 22.5049 11.6087 23.4848L12.2051 23.9998C12.9122 23.048 13.7768 22.2372 14.7578 21.6063C14.9322 21.4779 15.1282 21.3851 15.3354 21.3328C15.5429 21.3853 15.7391 21.4781 15.914 21.6063C16.8945 22.2378 17.7589 23.0484 18.4663 23.9998L19.0608 23.4848C18.1522 22.5049 17.083 21.704 15.9042 21.1204C17.0355 20.7441 17.7755 21.7401 18.6347 22.2478C19.4518 22.8726 20.4647 23.149 21.4686 23.0208C22.4726 22.8927 23.3927 22.3697 24.0428 21.5577C23.5296 21.8881 22.9498 22.0885 22.3497 22.1429C21.7496 22.1973 21.1456 22.1042 20.5859 21.871Z"
          fill="white"/>
    <path d="M4.173 6.72959C4.3978 6.19508 4.54802 5.62677 4.61865 5.0436C4.521 5.29041 4.38304 5.51571 4.21152 5.7085C3.41099 6.50514 2.49815 7.32536 2.32392 8.47725C2.30435 8.64368 2.27696 8.80891 2.24185 8.97226C2.20838 8.9893 2.20838 8.94523 2.1928 8.9352L2.28999 7.50572C2.32392 6.10831 1.71322 4.56059 2.45001 3.33404C2.42525 3.32805 2.41149 3.34959 2.3927 3.36159C1.67842 4.25145 1.282 5.39311 1.27628 6.57678C1.18366 8.12202 2.09101 9.21178 2.1928 10.6663C2.40187 9.14765 3.55175 8.05785 4.173 6.72959Z"
          fill="white"/>
    <path d="M5.28857 18.0001C5.14169 17.6249 4.91691 17.2722 4.80626 16.8794C4.38101 15.0732 4.61125 12.9997 3.85057 11.3335C3.99249 12.2807 3.61933 13.1156 3.53399 14.0166C3.45162 14.7292 3.57068 15.4508 3.87736 16.0977C3.93939 16.2868 4.11306 16.4479 4.15474 16.6335C3.90285 16.3674 3.68268 16.0724 3.49876 15.7545C2.63189 14.2976 0.762188 13.3659 0.63764 11.6049C0.54111 12.3844 0.63078 13.176 0.899135 13.9132C1.59283 15.8925 3.72453 16.921 5.28857 18.0001Z"
          fill="white"/>
    <path d="M2.65607 6.6673C2.93489 6.15483 3.31074 5.70244 3.76235 5.33577C4.82752 4.57665 5.9423 3.5161 5.95837 2.16784C5.61198 3.13653 4.57139 3.54608 3.86632 4.20422C3.51252 4.54514 3.23493 4.95817 3.05208 5.41577L3.02609 5.39482C3.1121 5.00765 3.28695 4.65858 3.38666 4.2776C3.70234 3.25322 3.63759 2.02072 4.62715 1.33398C4.1013 1.47797 3.63723 1.79264 3.3068 2.22929C2.48123 3.10081 2.56723 4.44617 2.68159 5.62199C2.70711 5.98774 2.6315 6.32965 2.65607 6.6673Z"
          fill="white"/>
    <path d="M2.93799 13.9403L3.01541 14.0001C2.90482 13.4696 2.91711 12.923 3.05145 12.3974C3.29345 11.5887 3.57198 10.7987 3.75702 9.96719C3.9071 9.30714 3.96958 8.63224 3.94303 7.95782C3.86296 8.29448 3.73247 8.61882 3.55544 8.9212C2.78899 10.0106 2.02547 11.303 2.55574 12.6981C2.54065 12.7118 2.52556 12.7319 2.50461 12.7214C2.33962 12.2375 2.20724 11.7445 2.10825 11.245C1.75181 9.93344 0.670318 8.84455 0.984394 7.3335C0.838898 7.67392 0.731995 8.02773 0.665449 8.3891C0.522485 9.3143 0.614409 10.2581 0.933752 11.1437C1.26244 12.2089 2.37606 12.9697 2.93799 13.9403Z"
          fill="white"/>
    <path d="M3.94897 3.99998C4.48611 3.44441 5.09136 3.01826 5.56542 2.37198C6.05674 1.50937 6.63824 0.713263 7.29797 0C6.32884 0.416061 5.24588 0.81251 4.66028 1.9383C4.25023 2.54778 4.24063 3.33814 3.94897 3.99998Z"
          fill="white"/>
    <path d="M28.3815 7.50535L28.4778 8.93478C28.464 8.9453 28.464 8.9889 28.4292 8.97236C28.3865 8.81203 28.3764 8.64167 28.3475 8.47733C28.1733 7.32551 27.2596 6.50532 26.46 5.7087C26.2885 5.51577 26.1504 5.29052 26.0524 5.04384C26.1232 5.62692 26.2737 6.19507 26.4989 6.72929C27.1206 8.05799 28.2687 9.14722 28.4778 10.6663C28.58 9.21134 29.4874 8.12212 29.3947 6.57596C29.3898 5.39251 28.9936 4.25088 28.2792 3.36139C28.26 3.34938 28.2458 3.32733 28.2206 3.33436C28.9583 4.56035 28.3475 6.10751 28.3815 7.50535Z"
          fill="white"/>
    <path d="M28.5629 11.2453C28.4634 11.7445 28.3308 12.2375 28.1661 12.7213C28.1461 12.7323 28.13 12.7122 28.1154 12.6985C28.6457 11.3033 27.8827 10.0108 27.1153 8.92132C26.9389 8.61871 26.8086 8.29441 26.7282 7.95787C26.7017 8.63233 26.7642 9.30729 26.9142 9.96739C27.0997 10.799 27.3783 11.589 27.6193 12.3977C27.7535 12.9233 27.766 13.4697 27.6558 14.0001L27.7342 13.9408C28.2956 12.9701 29.4082 12.2092 29.7378 11.144C30.0567 10.2582 30.1486 9.31444 30.0061 8.38915C29.9388 8.02782 29.8316 7.67404 29.6862 7.3335C30.0003 8.84464 28.9184 9.93362 28.5629 11.2453Z"
          fill="white"/>
    <path d="M27.2836 4.27775C27.3847 4.65823 27.5596 5.00731 27.6446 5.3949L27.62 5.41539C27.4364 4.95792 27.1583 4.54499 26.8043 4.20396C26.0983 3.54584 25.0572 3.13634 24.7126 2.16777C24.7278 3.51586 25.8431 4.57682 26.9092 5.33589C27.3602 5.70271 27.7354 6.15504 28.0137 6.6673C28.0397 6.32969 27.9636 5.98541 27.9891 5.62208C28.104 4.44588 28.19 3.10113 27.3634 2.22923C27.0335 1.7929 26.5701 1.47826 26.0449 1.33398C27.0331 2.02112 26.9693 3.25349 27.2836 4.27775Z"
          fill="white"/>
    <path d="M25.1053 2.37196C25.5795 3.01876 26.1844 3.44486 26.7222 3.99998C26.4323 3.33859 26.4231 2.54828 26.0107 1.93878C25.4258 0.812503 24.3403 0.416061 23.3732 0C24.0323 0.713755 24.6136 1.50979 25.1053 2.37196Z"
          fill="white"/>
    <path d="M24.8389 18.5172C24.6209 18.7356 24.3816 18.9263 24.1254 19.0858V19.0819C24.0748 19.1146 24.0257 19.1446 23.9756 19.1702L23.9586 19.1513C23.9816 19.1296 24.0042 19.1063 24.0277 19.0847V19.0819C24.3739 18.7643 24.6771 18.3931 24.928 17.9798C25.7923 16.6413 25.4914 14.7714 26.1364 13.3335C25.5434 14.0831 25.046 14.9195 24.6581 15.8191C24.2616 16.9011 24.0497 18.0898 23.4569 19.078V19.0819C23.2491 19.4285 22.995 19.7382 22.7032 20.0001C23.8344 19.5882 25.1319 19.6265 26.2115 19.0819C26.3987 18.9887 26.5775 18.8762 26.7458 18.746C28.0237 17.8749 29.1629 16.3953 29.4012 14.7714C28.5219 16.9844 26.3186 17.1676 24.8389 18.5172Z"
          fill="white"/>
    <path d="M30.0341 11.6049C29.9076 13.3659 28.0386 14.2975 27.1716 15.7545C26.9878 16.0726 26.7677 16.3678 26.5159 16.634C26.5586 16.4479 26.7317 16.2873 26.7952 16.0977C27.1004 15.4503 27.2187 14.729 27.1364 14.0166C27.0516 13.1156 26.6796 12.2812 26.8215 11.3335C26.0611 12.9997 26.2902 15.0732 25.8652 16.8793C25.7234 17.2611 25.5624 17.6352 25.3826 18.0001C26.9474 16.921 29.0783 15.8925 29.7717 13.9133C30.0398 13.176 30.1297 12.3845 30.0341 11.6049Z"
          fill="white"/>
    <path d="M21.751 20.4439C21.5226 20.5114 21.2859 20.5431 21.0486 20.5378C21.2461 20.4031 21.525 20.4189 21.7421 20.3004C22.2568 20.0988 22.6868 19.7139 22.9565 19.2137V19.2114C23.3182 18.6088 23.5539 17.8933 23.9538 17.3335C23.2083 17.8924 22.5127 18.5206 21.8756 19.2105V19.2114C21.7332 19.3517 21.59 19.4952 21.445 19.6393C20.8426 20.1506 20.1212 20.4858 19.3542 20.6107C19.5384 20.679 19.7777 20.6604 19.9761 20.713C21.3458 21.0684 22.8711 21.644 24.3262 21.1278C25.2934 20.7998 26.1156 20.1197 26.6429 19.2114C26.6704 19.1612 26.6967 19.1101 26.722 19.0585C26.678 19.1115 26.6326 19.164 26.5877 19.2114C25.323 20.5155 23.3631 20.0672 21.751 20.4439Z"
          fill="white"/>
    <path d="M10.6949 20.7132C10.8928 20.6603 11.1326 20.6789 11.3168 20.6101C10.5496 20.4858 9.8279 20.1507 9.22561 19.6392C9.08015 19.4956 8.93736 19.3516 8.79545 19.2117V19.2108C8.15822 18.521 7.46265 17.8927 6.7172 17.3335C7.11621 17.8938 7.35108 18.6087 7.71362 19.2117V19.2136C7.98347 19.7144 8.41428 20.0993 8.92978 20.3002C9.14508 20.4187 9.42444 20.4029 9.62149 20.5376C9.38467 20.5428 9.14843 20.5113 8.92044 20.4442C7.30792 20.0675 5.34443 20.5186 4.08377 19.2117C4.03795 19.1634 3.99303 19.1114 3.94897 19.0584C3.97344 19.1105 4.00059 19.1611 4.02771 19.2117C4.55721 20.118 5.37879 20.7973 6.34484 21.1276C7.79945 21.6442 9.32436 21.0682 10.6949 20.7132Z"
          fill="white"/>
    <path d="M4.46041 19.0819C5.54102 19.6249 6.83696 19.5882 7.96765 20.0001C7.6758 19.7383 7.42167 19.4287 7.21402 19.0819V19.0775C6.62114 18.0894 6.40731 16.9014 6.01172 15.8188C5.62447 14.9191 5.12722 14.0828 4.53401 13.3335C5.17998 14.7719 4.87752 16.6415 5.74234 17.98C5.99436 18.3926 6.29782 18.7636 6.64369 19.0819V19.0842C6.66622 19.1064 6.68826 19.1291 6.71229 19.1513L6.69527 19.1702C6.64519 19.1441 6.59411 19.1141 6.54504 19.0819L6.55255 19.0881C6.2943 18.9273 6.05254 18.7359 5.83148 18.5174C4.35376 17.1673 2.14897 16.9846 1.26965 14.7718C1.50801 16.3951 2.64771 17.8751 3.92462 18.7455C4.09295 18.8767 4.27238 18.9893 4.46041 19.0819Z"
          fill="white"/>
    <path d="M15.4117 18.6669C17.0838 18.667 18.7212 18.178 20.1315 17.2575C21.5418 16.337 22.6663 15.0231 23.373 13.4703L21.3823 12.5198C20.7487 13.9122 19.6705 15.0414 18.3258 15.721C16.9811 16.4005 15.4503 16.5897 13.9865 16.2572C12.5227 15.9247 11.2134 15.0904 10.2749 13.8923C9.3364 12.6941 8.82489 11.2038 8.82489 9.66743C8.82489 8.1311 9.3364 6.64074 10.2749 5.44258C11.2134 4.24443 12.5227 3.41019 13.9865 3.07769C15.4503 2.7452 16.9811 2.93434 18.3258 3.61388C19.6705 4.29342 20.7487 5.42269 21.3823 6.8151L23.373 5.86604C22.7081 4.4037 21.6718 3.15139 20.3726 2.24016C19.0733 1.32893 17.559 0.792289 15.9879 0.686402C14.4169 0.580514 12.8469 0.909273 11.4424 1.63827C10.0379 2.36727 8.85042 3.4697 8.00428 4.83019C7.15815 6.19068 6.68445 7.7592 6.63278 9.37159C6.58111 10.984 6.95336 12.581 7.71058 13.9954C8.46779 15.4098 9.58212 16.5897 10.9369 17.4116C12.2918 18.2334 13.8373 18.667 15.4117 18.6669Z"
          fill="white"/>
    <path d="M15.4353 6.57711C15.8899 6.57702 16.3378 6.68385 16.741 6.88854C17.1443 7.09323 17.4909 7.38975 17.7516 7.75293L19.3545 6.65859C18.7709 5.84523 17.9366 5.2345 16.9728 4.91513C16.0089 4.59576 14.9657 4.58439 13.9948 4.88268C13.0239 5.18097 12.1758 5.77337 11.5737 6.5738C10.9717 7.37424 10.6471 8.34101 10.6471 9.33364C10.6471 10.3263 10.9717 11.293 11.5737 12.0935C12.1758 12.8939 13.0239 13.4863 13.9948 13.7846C14.9657 14.0829 16.0089 14.0715 16.9728 13.7521C17.9366 13.4328 18.7709 12.822 19.3545 12.0087L17.7516 10.9139C17.4731 11.3021 17.0967 11.6137 16.6587 11.8188C16.2207 12.0238 15.7359 12.1154 15.2511 12.0845C14.7662 12.0537 14.2977 11.9015 13.8908 11.6427C13.4838 11.3839 13.1521 11.0272 12.9277 10.6071C12.7033 10.1869 12.5937 9.71738 12.6095 9.24388C12.6254 8.77038 12.7661 8.30885 13.0181 7.90382C13.2701 7.49879 13.625 7.16393 14.0484 6.93154C14.4717 6.69915 14.9494 6.57708 15.4353 6.57711Z"
          fill="white"/>
</svg>
