<svg width="24" height="24" viewBox="0 0 24 24" fill="none" xmlns="http://www.w3.org/2000/svg">
  <path
     d="m 12,4 c 1.1046,0 2,0.89545 2,2 0,1.10455 -0.8954,2 -2,2 -1.1046,0 -2,-0.89545 -2,-2 0,-1.10455 0.8954,-2 2,-2 z m 0,6 c 1.1046,0 2,0.8954 2,2 0,1.1046 -0.8954,2 -2,2 -1.1046,0 -2,-0.8954 -2,-2 0,-1.1046 0.8954,-2 2,-2 z m 0,6 c 1.1046,0 2,0.8954 2,2 0,1.1046 -0.8954,2 -2,2 -1.1046,0 -2,-0.8954 -2,-2 0,-1.1046 0.8954,-2 2,-2 z"
     clip-rule="evenodd"
     fill-rule="evenodd" />
</svg>
