<svg fill="none" height="24" viewBox="0 0 24 24" width="24" xmlns="http://www.w3.org/2000/svg">
    <path clip-rule="evenodd"
          d="m 20,12 c 0,0.6227 -0.5048,1.1275 -1.1275,1.1275 H 5.12752 C 4.50481,13.1275 4,12.6227 4,12 4,11.3773 4.50481,10.8725 5.12752,10.8725 H 18.8725 C 19.4952,10.8725 20,11.3773 20,12 Z"
          fill-rule="evenodd"/>
    <path clip-rule="evenodd"
          d="m 20,18.5005 c 0,0.6227 -0.5048,1.1275 -1.1275,1.1275 H 5.12752 C 4.50481,19.628 4,19.1232 4,18.5005 4,17.8778 4.50481,17.373 5.12752,17.373 H 18.8725 c 0.6227,0 1.1275,0.5048 1.1275,1.1275 z"
          fill-rule="evenodd"/>
    <path clip-rule="evenodd"
          d="M 20,5.5005 C 20,6.1232 19.4952,6.628 18.8725,6.628 H 5.12752 C 4.50481,6.628 4,6.1232 4,5.5005 4,4.8778 4.50481,4.373 5.12752,4.373 H 18.8725 C 19.4952,4.373 20,4.8778 20,5.5005 Z"
          fill-rule="evenodd"/>
</svg>