<svg width="24" height="24" viewBox="0 0 24 24" fill="none" xmlns="http://www.w3.org/2000/svg">
	<path 
		fill-rule="evenodd" 
		clip-rule="evenodd" 
		d="M4 12C4 10.8954 4.89545 10 6 10C7.10455 10 8 10.8954 8 12C8 13.1046 7.10455 14 6 14C4.89545 14 4 13.1046 4 12ZM10 12C10 10.8954 10.8954 10 12 10C13.1046 10 14 10.8954 14 12C14 13.1046 13.1046 14 12 14C10.8954 14 10 13.1046 10 12ZM16 12C16 10.8954 16.8954 10 18 10C19.1046 10 20 10.8954 20 12C20 13.1046 19.1046 14 18 14C16.8954 14 16 13.1046 16 12Z"/>
</svg>
