<svg fill="none" height="16" viewBox="0 0 16 16" width="16" xmlns="http://www.w3.org/2000/svg">
    <path clip-rule="evenodd" d="M3.66667 7.7666C4.03486 7.7666 4.33333 8.06508 4.33333 8.43327C4.33333 10.0177 5.83301 11.3333 8 11.3333C10.167 11.3333 11.6667 10.0177 11.6667 8.43327C11.6667 8.06508 11.9651 7.7666 12.3333 7.7666C12.7015 7.7666 13 8.06508 13 8.43327V10.8999C13 13.4327 10.6708 15.3333 8 15.3333C5.32923 15.3333 3 13.4327 3 10.8999V8.43327C3 8.06508 3.29848 7.7666 3.66667 7.7666ZM4.38314 11.4041C4.66405 12.8192 6.1055 13.9999 8 13.9999C9.8945 13.9999 11.3359 12.8192 11.6169 11.4041C10.6834 12.2101 9.37464 12.6666 8 12.6666C6.62536 12.6666 5.31663 12.2101 4.38314 11.4041Z"
          fill="white"
          fill-rule="evenodd"/>
    <path clip-rule="evenodd" d="M8 2.00008C6.95542 2.00008 6.03265 2.36541 5.37173 2.94233L5.37142 2.9426C4.7167 3.51337 4.33333 4.27771 4.33333 5.10008C4.33333 5.58185 4.46498 6.02187 4.69552 6.39911L4.69632 6.40042C5.26384 7.33392 6.48719 8.00008 8 8.00008C9.51281 8.00008 10.7362 7.33392 11.3037 6.40042L11.3045 6.39911C11.535 6.02186 11.6667 5.58185 11.6667 5.10008C11.6667 4.27905 11.2844 3.51429 10.6284 2.9358C9.96663 2.36474 9.04352 2.00008 8 2.00008ZM4.49524 1.93757C5.40761 1.14131 6.64474 0.666748 8 0.666748C9.35528 0.666748 10.5913 1.14125 11.5026 1.92906L11.5072 1.933L11.5072 1.93302C12.4098 2.72764 13 3.84206 13 5.10008C13 5.83138 12.7985 6.51112 12.4426 7.09373C11.5833 8.5065 9.87357 9.33342 8 9.33342C6.12646 9.33342 4.41673 8.50652 3.55745 7.09378C3.20155 6.51116 3 5.8314 3 5.10008C3 3.8426 3.58981 2.72705 4.49493 1.93784"
          fill="white"
          fill-rule="evenodd"/>
    <path clip-rule="evenodd" d="M8 2.00008C5.88411 2.00008 4.33333 3.4729 4.33333 5.10008V8.43341C4.33333 10.0178 5.83301 11.3334 8 11.3334C10.167 11.3334 11.6667 10.0178 11.6667 8.43341V5.10008C11.6667 4.27905 11.2844 3.51429 10.6284 2.93581C9.96664 2.36474 9.04353 2.00008 8 2.00008ZM3 5.10008C3 2.56727 5.32923 0.666748 8 0.666748C9.35528 0.666748 10.5913 1.14125 11.5026 1.92906L11.5072 1.933L11.5072 1.93302C12.4098 2.72764 13 3.84206 13 5.10008V8.43341C13 11.009 10.6197 12.6667 8 12.6667C5.38033 12.6667 3 11.009 3 8.43341V5.10008Z"
          fill="white"
          fill-rule="evenodd"/>
</svg>
