<svg fill="none" height="48" viewBox="0 0 48 48" width="48" xmlns="http://www.w3.org/2000/svg">
    <path clip-rule="evenodd" d="M32 14C32 11.7909 33.7909 10 36 10C38.2091 10 40 11.7909 40 14C40 16.2091 38.2091 18 36 18C33.7909 18 32 16.2091 32 14Z"
          fill="#C4D0E1"
          fill-rule="evenodd"/>
    <path clip-rule="evenodd" d="M16.0508 15.7256C17.4839 13.6782 20.5161 13.6783 21.9492 15.7256L32.8763 31.3355C34.5459 33.7213 32.8397 37 29.927 37H8.07304C5.16047 37 3.45374 33.7216 5.12374 31.3356L16.0508 15.7256C16.0508 15.7256 16.0508 15.7256 16.0508 15.7256ZM19 18.4876L29.1588 33H8.84127L19 18.4876Z"
          fill="#C4D0E1"
          fill-rule="evenodd"/>
    <path clip-rule="evenodd" d="M34.0528 20.1108C34.0528 20.1108 34.0528 20.1108 34.0528 20.1108L41.166 31.492C42.6644 33.8895 40.9411 37 38.1132 37H21C19.8954 37 19 36.1046 19 35C19 33.8954 19.8954 33 21 33H37.3915L31 22.7735L28.4192 26.903C27.8338 27.8396 26.5999 28.1244 25.6632 27.539C24.7265 26.9536 24.4418 25.7197 25.0272 24.783L27.9472 20.1108L29.6294 21.1622L29.6363 21.1665M29.6294 21.1622L27.9472 20.1108C29.3571 17.8549 32.6429 17.8549 34.0528 20.1108M37.774 33.612C37.7738 33.6117 37.7742 33.6122 37.774 33.612V33.612Z"
          fill="#C4D0E1"
          fill-rule="evenodd"/>
</svg>
