<svg fill="none" height="16" viewBox="0 0 16 16" width="16" xmlns="http://www.w3.org/2000/svg">
    <path clip-rule="evenodd" d="M3.12819 6.24764C3.0756 3.65466 5.16374 1.33325 8.00004 1.33325C10.8371 1.33325 12.9245 3.65466 12.8712 6.24764C12.8689 6.36388 12.8676 6.48014 12.8674 6.59641C12.8674 7.7522 13.0067 9.36132 13.1008 10.3157C13.1052 10.3627 13.1074 10.4097 13.1074 10.4561H13.926C14.1224 10.4561 14.3108 10.53 14.4498 10.6616C14.5887 10.7932 14.6667 10.9717 14.6667 11.1578C14.6667 11.3439 14.5887 11.5224 14.4498 11.654C14.3108 11.7856 14.1224 11.8596 13.926 11.8596H10.963C10.963 12.604 10.6508 13.318 10.0952 13.8444C9.53951 14.3708 8.78587 14.6666 8.00004 14.6666C7.21421 14.6666 6.46057 14.3708 5.90491 13.8444C5.34925 13.318 5.03708 12.604 5.03708 11.8596H2.07411C1.87766 11.8596 1.68925 11.7856 1.55033 11.654C1.41142 11.5224 1.33337 11.3439 1.33337 11.1578C1.33337 10.9717 1.41142 10.7932 1.55033 10.6616C1.68925 10.53 1.87766 10.4561 2.07411 10.4561H2.89263C2.89263 10.4097 2.89486 10.3627 2.90004 10.3157C2.99337 9.36132 3.13263 7.7522 3.13263 6.59641C3.13263 6.48413 3.13115 6.36834 3.12819 6.24764ZM5.79486 10.4561H11.6208L11.623 10.454C11.624 10.4529 11.6247 10.4517 11.6252 10.4504V10.4462C11.5319 9.49185 11.386 7.82448 11.386 6.59641C11.386 6.4743 11.3874 6.34869 11.3904 6.22027C11.4297 4.31781 9.90967 2.73676 8.00004 2.73676C6.09041 2.73676 4.57041 4.31781 4.60967 6.22027C4.61263 6.34869 4.61411 6.4743 4.61411 6.59641C4.61411 7.82448 4.46819 9.49185 4.37411 10.4462C4.37402 10.4472 4.37402 10.4481 4.37411 10.449V10.4504L4.37708 10.454C4.37769 10.4548 4.37844 10.4555 4.3793 10.4561H5.79486ZM6.51856 11.8596C6.51856 12.2318 6.67464 12.5888 6.95248 12.852C7.23031 13.1152 7.60713 13.2631 8.00004 13.2631C8.39295 13.2631 8.76977 13.1152 9.04761 12.852C9.32544 12.5888 9.48152 12.2318 9.48152 11.8596H6.51856Z"
          fill="white"
          fill-rule="evenodd"/>
</svg>
