<svg fill="none" height="18" viewBox="0 0 20 18" width="20" xmlns="http://www.w3.org/2000/svg">
    <path clip-rule="evenodd"
          d="M3.52595 0.14935C3.82077 0.331557 4.00022 0.653423 4.00022 1V6H5.00022C5.5525 6 6.00022 6.44772 6.00022 7C6.00022 7.55229 5.5525 8 5.00022 8H1.00022C0.447934 8 0.000219047 7.55229 0.000219047 7C0.000219047 6.44772 0.447934 6 1.00022 6H2.00022V2.61804L1.44743 2.89443C0.953454 3.14142 0.352781 2.94119 0.105792 2.44721C-0.141197 1.95324 0.059027 1.35256 0.553006 1.10557L2.55301 0.105574C2.86299 -0.0494204 3.23113 -0.0328564 3.52595 0.14935ZM7.00022 2.99994C7.00025 2.44766 7.44799 1.99997 8.00028 2L19.0003 2.00066C19.5526 2.00069 20.0003 2.44844 20.0002 3.00072C20.0002 3.55301 19.5524 4.00069 19.0002 4.00066L8.00016 4C7.44787 3.99997 7.00019 3.55223 7.00022 2.99994ZM7.00022 8.99994C7.00025 8.44765 7.448 7.99997 8.00028 8L19.0003 8.0007C19.5526 8.00074 20.0003 8.44848 20.0002 9.00076C20.0002 9.55305 19.5524 10.0007 19.0002 10.0007L8.00016 10C7.44787 9.99997 7.00018 9.55222 7.00022 8.99994ZM0.0947926 12.2507C0.427767 10.9571 1.60096 10 3.00022 10H3.28055C4.78259 10 6.00022 11.2176 6.00022 12.7197C6.00022 13.504 5.66164 14.25 5.07153 14.7664L3.6617 16H5.00022C5.5525 16 6.00022 16.4477 6.00022 17C6.00022 17.5523 5.5525 18 5.00022 18H1.00022C0.583609 18 0.210646 17.7417 0.0641149 17.3517C-0.0824165 16.9617 0.0281871 16.5218 0.341721 16.2474L3.75439 13.2614C3.75436 13.2614 3.75441 13.2614 3.75439 13.2614C3.91062 13.1246 4.00022 12.9272 4.00022 12.7197C4.00022 12.3222 3.67801 12 3.28055 12H3.00022C2.53564 12 2.14273 12.3177 2.03167 12.7493C1.894 13.2841 1.34882 13.6061 0.813968 13.4684C0.279116 13.3308 -0.0428702 12.7856 0.0947926 12.2507ZM7.00022 14.9999C7.00025 14.4477 7.448 14 8.00028 14L19.0003 14.0007C19.5526 14.0007 20.0003 14.4485 20.0002 15.0008C20.0002 15.553 19.5524 16.0007 19.0002 16.0007L8.00016 16C7.44787 16 7.00018 15.5522 7.00022 14.9999Z"
          fill-rule="evenodd"/>
</svg>