<svg fill="none" height="24" viewBox="0 0 24 24" width="24" xmlns="http://www.w3.org/2000/svg">
	<path d="M 5,21 C 4.45,21 3.979333,20.8043 3.588,20.413 3.196667,20.0217 3.0006667,19.5507 3,19 V 5 C 3,4.45 3.196,3.97933 3.588,3.588 3.98,3.196667 4.45067,3.000667 5,3 h 14 c 0.55,0 1.021,0.196 1.413,0.588 C 20.805,3.98 21.0007,4.45067 21,5 v 14 c 0,0.55 -0.1957,1.021 -0.587,1.413 C 20.0217,20.805 19.5507,21.0007 19,21 Z M 5,19 H 19 V 7 H 5 Z m 7,-2 C 10.63333,17 9.41267,16.6293 8.338,15.888 7.26333,15.1467 6.484,14.184 6,13 6.48333,11.81667 7.26267,10.85433 8.338,10.113 9.41333,9.37167 10.634,9.00067 12,9 c 1.366,-6.7e-4 2.587,0.37033 3.663,1.113 1.076,0.74267 1.855,1.705 2.337,2.887 -0.4833,1.1833 -1.2623,2.146 -2.337,2.888 C 14.5883,16.63 13.3673,17.0007 12,17 Z m 0,-2.5 c -0.41667,0 -0.77067,-0.1457 -1.062,-0.437 C 10.64667,13.7717 10.50067,13.4173 10.5,13 c -6.7e-4,-0.4173 0.14533,-0.77133 0.438,-1.062 0.29267,-0.29067 0.64667,-0.43667 1.062,-0.438 0.41533,-0.0013 0.76967,0.14467 1.063,0.438 0.2933,0.29333 0.439,0.6473 0.437,1.062 -0.002,0.4147 -0.1477,0.769 -0.437,1.063 C 12.77367,14.357 12.41933,14.5027 12,14.5 Z m 0,1 c 0.7,0 1.2917,-0.2417 1.775,-0.725 C 14.2583,14.2917 14.5,13.7 14.5,13 14.5,12.3 14.2583,11.70833 13.775,11.225 13.2917,10.74167 12.7,10.5 12,10.5 c -0.7,0 -1.29167,0.24167 -1.775,0.725 C 9.74167,11.70833 9.5,12.3 9.5,13 c 0,0.7 0.24167,1.2917 0.725,1.775 C 10.70833,15.2583 11.3,15.5 12,15.5 Z" />
</svg>
