<svg fill="none" height="24" viewBox="0 0 24 24" width="24" xmlns="http://www.w3.org/2000/svg">
    <path clip-rule="evenodd" 
        d="M3 2C3.55228 2 4 2.44772 4 3V5.75001L5.33308 4.54654C7.1016 2.96367 9.43946 2 12 2C17.5229 2 22 6.47716 22 12C22 17.5229 17.5229 22 12 22C7.23966 22 3.25835 18.6748 2.24781 14.2213C2.1256 13.6827 2.46314 13.147 3.00174 13.0248C3.54033 12.9026 4.07602 13.2401 4.19823 13.7787C5.00659 17.3412 8.194 20 12 20C16.4183 20 20 16.4183 20 12C20 7.58172 16.4183 4 12 4C9.95118 4 8.08432 4.76887 6.6685 6.0354L5.60001 7H8C8.55228 7 9 7.44772 9 8C9 8.55228 8.55228 9 8 9H3C2.44772 9 2 8.55228 2 8V3C2 2.44772 2.44772 2 3 2Z"
        fill-rule="evenodd" />
</svg>