<svg width="24" height="24" viewBox="0 0 24 24" fill="none" xmlns="http://www.w3.org/2000/svg">
	<path fill-rule="evenodd" clip-rule="evenodd" d="M8.33633 3.88702C10.0354 3.11986 11.9324 2.90552 13.7598 3.27424C15.5872 3.64296 17.2527 4.57614 18.5213 5.94211C19.79 7.30808 20.5977 9.03789 20.8306 10.8875C20.8927 11.3807 20.5432 11.8308 20.05 11.8929C19.5569 11.955 19.1067 11.6055 19.0447 11.1124C18.8589 9.63678 18.2145 8.25678 17.2024 7.16704C16.1903 6.0773 14.8616 5.33284 13.4038 5.03868C11.9459 4.74452 10.4325 4.91552 9.07707 5.52754C7.84676 6.08306 6.80295 6.97647 6.06476 8.09994H8.99961C9.49667 8.09994 9.89961 8.50288 9.89961 8.99994C9.89961 9.49699 9.49667 9.89994 8.99961 9.89994H3.99961C3.50255 9.89994 3.09961 9.49699 3.09961 8.99994V3.99994C3.09961 3.50288 3.50255 3.09994 3.99961 3.09994C4.49667 3.09994 4.89961 3.50288 4.89961 3.99994V6.63072C5.79414 5.44777 6.97402 4.50214 8.33633 3.88702ZM3.94918 12.107C4.44235 12.0449 4.89247 12.3943 4.95456 12.8875C5.14034 14.3631 5.78473 15.7431 6.79681 16.8328C7.8089 17.9226 9.13759 18.667 10.5954 18.9612C12.0533 19.2554 13.5667 19.0844 14.9222 18.4723C16.1525 17.9168 17.1963 17.0234 17.9345 15.8999H14.9996C14.5026 15.8999 14.0996 15.497 14.0996 14.9999C14.0996 14.5029 14.5026 14.0999 14.9996 14.0999H19.9996C20.4967 14.0999 20.8996 14.5029 20.8996 14.9999V19.9999C20.8996 20.497 20.4967 20.8999 19.9996 20.8999C19.5026 20.8999 19.0996 20.497 19.0996 19.9999V17.3692C18.2051 18.5521 17.0252 19.4977 15.6629 20.1129C13.9638 20.88 12.0668 21.0944 10.2394 20.7256C8.41203 20.3569 6.74653 19.4237 5.4779 18.0578C4.20926 16.6918 3.40153 14.962 3.16866 13.1124C3.10657 12.6192 3.45602 12.1691 3.94918 12.107Z" />
</svg>
