<svg fill="none" height="24" viewBox="0 0 24 24" width="24" xmlns="http://www.w3.org/2000/svg">
	<path d="m 20.71,9.29 -6,-6 C 14.6178,3.20005 14.5092,3.12874 14.39,3.08 14.266,3.02962 14.1338,3.0025 14,3 H 6 C 5.20435,3 4.44129,3.31607 3.87868,3.87868 3.31607,4.44129 3,5.20435 3,6 v 12 c 0,0.7956 0.31607,1.5587 0.87868,2.1213 C 4.44129,20.6839 5.20435,21 6,21 h 12 c 0.7956,0 1.5587,-0.3161 2.1213,-0.8787 C 20.6839,19.5587 21,18.7956 21,18 V 10 C 21.0008,9.8684 20.9755,9.7379 20.9258,9.6161 20.876,9.49426 20.8027,9.38344 20.71,9.29 Z M 9,5 h 4 V 7 H 9 Z m 6,14 H 9 V 16 C 9,15.7348 9.10536,15.4804 9.29289,15.2929 9.48043,15.1054 9.73478,15 10,15 h 4 c 0.2652,0 0.5196,0.1054 0.7071,0.2929 C 14.8946,15.4804 15,15.7348 15,16 Z m 4,-1 c 0,0.2652 -0.1054,0.5196 -0.2929,0.7071 C 18.5196,18.8946 18.2652,19 18,19 H 17 V 16 C 17,15.2044 16.6839,14.4413 16.1213,13.8787 15.5587,13.3161 14.7956,13 14,13 H 10 C 9.20435,13 8.44129,13.3161 7.87868,13.8787 7.31607,14.4413 7,15.2044 7,16 v 3 H 6 C 5.73478,19 5.48043,18.8946 5.29289,18.7071 5.10536,18.5196 5,18.2652 5,18 V 6 C 5,5.73478 5.10536,5.48043 5.29289,5.29289 5.48043,5.10536 5.73478,5 6,5 H 7 V 8 C 7,8.26522 7.10536,8.51957 7.29289,8.70711 7.48043,8.89464 7.73478,9 8,9 h 6 C 14.2652,9 14.5196,8.89464 14.7071,8.70711 14.8946,8.51957 15,8.26522 15,8 V 6.41 l 4,4 z" />
</svg>
