<svg fill="none" height="24" viewBox="0 0 24 24" width="24" xmlns="http://www.w3.org/2000/svg">
    <path clip-rule="evenodd"
          d="M4.8069778,10.8069 c 0,-1.5912865 0.6321225,-3.1173831 1.7573338,-4.2425947 1.1251967,-1.1251966 2.6513084,-1.757334 4.2425944,-1.757334 1.59127,0 3.117382,0.6321374 4.242579,1.757334 1.125136,1.1252116 1.757379,2.6513082 1.757379,4.2425947 0,1.591286 -0.632243,3.117382 -1.757379,4.242534 -1.125197,1.125287 -2.651309,1.757377 -4.242579,1.757377 -1.591286,0 -3.1173977,-0.63209 -4.2425944,-1.757377 C 5.4391003,13.924282 4.8069778,12.398186 4.8069778,10.8069 Z M 10.806906,2.407 C 9.4759269,2.407 8.1639976,2.7232862 6.9792217,3.329789 5.7944609,3.9362918 4.7707833,4.8156412 3.9925476,5.8953882 3.2143118,6.9751354 2.7037929,8.2243654 2.5030653,9.5401197 c -0.2007125,1.3157543 -0.085904,2.6603833 0.334991,3.9230683 0.420895,1.262669 1.1358164,2.407186 2.085845,3.339425 0.9500287,0.932238 2.1079848,1.62523 3.3784246,2.022126 1.2704399,0.396894 2.6169881,0.486143 3.9287071,0.260396 1.311705,-0.225597 2.551021,-0.75974 3.615841,-1.55833 0.03406,0.04546 0.0714,0.08835 0.1116,0.128398 l 3.599956,3.599957 c 0.226348,0.218547 0.529345,0.339595 0.844041,0.336745 0.314695,-0.0027 0.615593,-0.128848 0.838039,-0.351296 0.222598,-0.222596 0.348746,-0.523494 0.351446,-0.838189 0.0027,-0.314547 -0.118198,-0.617693 -0.336746,-0.844041 l -3.599957,-3.599956 c -0.0402,-0.0402 -0.0831,-0.0774 -0.128398,-0.1116 0.935989,-1.247955 1.505982,-2.731902 1.64593,-4.285567 C 19.312884,10.007604 19.017687,8.4456277 18.320046,7.0503445 17.622405,5.6550761 16.549917,4.4816403 15.223033,3.6615101 13.895999,2.8413949 12.366857,2.407 10.806906,2.407 Z"
          fill-rule="evenodd"/>
</svg>