<svg width="24" height="24" viewBox="0 0 24 24" fill="none" xmlns="http://www.w3.org/2000/svg">
	<path fill-rule="evenodd" clip-rule="evenodd" d="M2.14001 6.70913C2.28164 6.34519 2.62218 6.097 3.01201 6.0736L20.8684 5.0018C21.2465 4.97911 21.605 5.17198 21.7944 5.50001C21.9837 5.82803 21.9715 6.23491 21.7628 6.551L11.9064 21.4792C11.6913 21.8051 11.306 21.9759 10.92 21.9166C10.534 21.8573 10.2179 21.5787 10.1105 21.2032L7.9113 13.5154L2.35302 7.76692C2.08156 7.48617 1.99837 7.07307 2.14001 6.70913ZM9.98015 13.4756L11.4354 18.5628L17.7598 8.98407L9.98015 13.4756ZM16.7598 7.25202L8.98015 11.7436L5.30215 7.93974L16.7598 7.25202Z" />
</svg>
