<svg fill="none" height="24" viewBox="0 0 24 24" width="24" xmlns="http://www.w3.org/2000/svg">
  <path d="m 12,5 c -3.86599,0 -7,3.13401 -7,7 0,3.866 3.13401,7 7,7 3.866,0 7,-3.134 7,-7 0,-3.86599 -3.134,-7 -7,-7 z m -9,7 c 0,-4.97056 4.02944,-9 9,-9 4.9706,0 9,4.02944 9,9 0,4.9706 -4.0294,9 -9,9 -4.97056,0 -9,-4.0294 -9,-9 z" />
  <path d="m 16.498984,6.2989565 c 0.331925,-0.331942 0.870146,-0.331942 1.202072,0 0.331925,0.3319505 0.331925,0.8701365 0,1.202087 L 7.5010458,17.70112 c -0.3319511,0.331925 -0.8701382,0.331925 -1.2020888,0 -0.3319427,-0.33201 -0.3319427,-0.870145 0,-1.202155 z" />
</svg>
