<svg fill="none" height="24" viewBox="0 0 24 24" width="24" xmlns="http://www.w3.org/2000/svg">
    <g clip-path="url(#clip0_312_5569)">
        <path d="M11.4855 9.3705C11.6505 8.8755 12.3495 8.8755 12.5145 9.3705L13.482 12.276C13.6949 12.9147 14.0537 13.495 14.5299 13.971C15.0061 14.4469 15.5866 14.8054 16.2255 15.018L19.1295 15.9855C19.6245 16.1505 19.6245 16.8495 19.1295 17.0145L16.224 17.982C15.5853 18.195 15.0049 18.5538 14.529 19.03C14.0531 19.5062 13.6946 20.0867 13.482 20.7255L12.5145 23.6295C12.4789 23.7379 12.41 23.8323 12.3176 23.8992C12.2252 23.9661 12.114 24.0021 12 24.0021C11.8859 24.0021 11.7747 23.9661 11.6823 23.8992C11.5899 23.8323 11.521 23.7379 11.4855 23.6295L10.518 20.724C10.3052 20.0855 9.94658 19.5052 9.47065 19.0293C8.99472 18.5534 8.4145 18.1948 7.77596 17.982L4.87046 17.0145C4.76207 16.9789 4.66768 16.91 4.60076 16.8176C4.53384 16.7252 4.49781 16.6141 4.49781 16.5C4.49781 16.3859 4.53384 16.2747 4.60076 16.1824C4.66768 16.09 4.76207 16.0211 4.87046 15.9855L7.77596 15.018C8.4145 14.8052 8.99472 14.4466 9.47065 13.9707C9.94658 13.4948 10.3052 12.9145 10.518 12.276L11.4855 9.3705ZM5.69096 1.722C5.71247 1.65704 5.7539 1.60051 5.80938 1.56045C5.86485 1.52038 5.93153 1.49882 5.99996 1.49882C6.06839 1.49882 6.13507 1.52038 6.19055 1.56045C6.24602 1.60051 6.28745 1.65704 6.30896 1.722L6.88946 3.465C7.14896 4.242 7.75796 4.851 8.53496 5.1105L10.278 5.691C10.3429 5.71251 10.3994 5.75394 10.4395 5.80941C10.4796 5.86488 10.5011 5.93157 10.5011 6C10.5011 6.06842 10.4796 6.13511 10.4395 6.19058C10.3994 6.24605 10.3429 6.28749 10.278 6.309L8.53496 6.8895C8.15175 7.01717 7.80354 7.23234 7.51792 7.51796C7.23231 7.80357 7.01714 8.15178 6.88946 8.535L6.30896 10.278C6.28745 10.343 6.24602 10.3995 6.19055 10.4395C6.13507 10.4796 6.06839 10.5012 5.99996 10.5012C5.93153 10.5012 5.86485 10.4796 5.80938 10.4395C5.7539 10.3995 5.71247 10.343 5.69096 10.278L5.11046 8.535C4.98279 8.15178 4.76761 7.80357 4.482 7.51796C4.19638 7.23234 3.84817 7.01717 3.46496 6.8895L1.72196 6.309C1.657 6.28749 1.60047 6.24605 1.56041 6.19058C1.52034 6.13511 1.49878 6.06842 1.49878 6C1.49878 5.93157 1.52034 5.86488 1.56041 5.80941C1.60047 5.75394 1.657 5.71251 1.72196 5.691L3.46496 5.1105C3.84817 4.98282 4.19638 4.76765 4.482 4.48204C4.76761 4.19642 4.98279 3.84821 5.11046 3.465L5.69096 1.722ZM16.2945 0.148497C16.3093 0.105786 16.337 0.0687509 16.3738 0.0425394C16.4107 0.0163279 16.4548 0.00224304 16.5 0.00224304C16.5452 0.00224304 16.5892 0.0163279 16.6261 0.0425394C16.6629 0.0687509 16.6907 0.105786 16.7055 0.148497L17.0925 1.3095C17.265 1.8285 17.6715 2.235 18.1905 2.4075L19.3515 2.7945C19.3942 2.8093 19.4312 2.83705 19.4574 2.87388C19.4836 2.91071 19.4977 2.95479 19.4977 3C19.4977 3.0452 19.4836 3.08928 19.4574 3.12611C19.4312 3.16294 19.3942 3.19069 19.3515 3.2055L18.1905 3.5925C17.9347 3.67758 17.7023 3.82112 17.5117 4.01172C17.3211 4.20232 17.1775 4.43473 17.0925 4.6905L16.7055 5.8515C16.6907 5.89421 16.6629 5.93124 16.6261 5.95745C16.5892 5.98367 16.5452 5.99775 16.5 5.99775C16.4548 5.99775 16.4107 5.98367 16.3738 5.95745C16.337 5.93124 16.3093 5.89421 16.2945 5.8515L15.9075 4.6905C15.8224 4.43473 15.6788 4.20232 15.4882 4.01172C15.2976 3.82112 15.0652 3.67758 14.8095 3.5925L13.65 3.2055C13.6073 3.19069 13.5702 3.16294 13.544 3.12611C13.5178 3.08928 13.5037 3.0452 13.5037 3C13.5037 2.95479 13.5178 2.91071 13.544 2.87388C13.5702 2.83705 13.6073 2.8093 13.65 2.7945L14.811 2.4075C15.33 2.235 15.7365 1.8285 15.909 1.3095L16.2945 0.149997V0.148497Z"
              fill="#FFFFFF"/>
    </g>
    <defs>
        <clipPath id="clip0_312_5569">
            <rect fill="white" height="24" width="24"/>
        </clipPath>
    </defs>
</svg>
