<svg fill="none" height="16" viewBox="0 0 16 16" width="16" xmlns="http://www.w3.org/2000/svg">
    <path clip-rule="evenodd" d="M1.33333 4C1.33333 3.44772 1.78105 3 2.33333 3C2.88561 3 3.33333 3.44772 3.33333 4C3.33333 4.55228 2.88561 5 2.33333 5C1.78105 5 1.33333 4.55228 1.33333 4ZM4.66666 4.00041C4.66668 3.63222 4.96518 3.33376 5.33336 3.33378L14 3.33426C14.3682 3.33428 14.6667 3.63277 14.6667 4.00096C14.6666 4.36915 14.3681 4.66761 14 4.66759L5.33329 4.66711C4.9651 4.66709 4.66664 4.3686 4.66666 4.00041ZM1.33333 8C1.33333 7.44778 1.78101 7 2.33333 7C2.88565 7 3.33333 7.44778 3.33333 8C3.33333 8.55222 2.88565 9 2.33333 9C1.78101 9 1.33333 8.55222 1.33333 8ZM4.66666 8.00043C4.66668 7.63224 4.96518 7.33378 5.33337 7.3338L14 7.33433C14.3682 7.33436 14.6667 7.63285 14.6667 8.00104C14.6666 8.36923 14.3681 8.66769 14 8.66767L5.33329 8.66713C4.9651 8.66711 4.66664 8.36862 4.66666 8.00043ZM1.33333 12C1.33333 11.4478 1.78101 11 2.33333 11C2.88565 11 3.33333 11.4478 3.33333 12C3.33333 12.5522 2.88565 13 2.33333 13C1.78101 13 1.33333 12.5522 1.33333 12ZM4.66666 12.0004C4.66668 11.6322 4.96518 11.3338 5.33337 11.3338L14 11.3343C14.3682 11.3344 14.6667 11.6329 14.6667 12.001C14.6666 12.3692 14.3681 12.6677 14 12.6677L5.33329 12.6671C4.9651 12.6671 4.66664 12.3686 4.66666 12.0004Z"
          fill="white"
          fill-rule="evenodd"/>
</svg>
