<svg fill="none" height="24" viewBox="0 0 24 24" width="24" xmlns="http://www.w3.org/2000/svg">
	<path d="M 2,4.99999 C 2,4.447705 2.44772,4 3.000005,4 H 15.99998 c 0.5523,0 1.00005,0.447705 1.00005,0.99999 V 7 c 0,0.552285 -0.44775,0.99999 -1.00005,0.99999 -0.5523,0 -0.9999,-0.447705 -0.9999,-0.99999 V 5.999995 H 11 v 11.999971 h 1.000005 c 0.552285,0 1.000005,0.447749 1.000005,1.00005 0,0.5523 -0.44772,1.00005 -1.000005,1.00005 H 8 c -0.552285,0 -0.99999,-0.44775 -0.99999,-1.00005 0,-0.552301 0.447705,-1.00005 0.99999,-1.00005 H 9.000005 V 5.999995 H 4.00001 V 7 c 0,0.552285 -0.44772,0.99999 -1.000005,0.99999 C 2.44772,7.99999 2,7.552285 2,7 Z m 12,7.000005 c 0,-0.552285 0.44772,-1.000005 1.00008,-1.000005 h 6 c 0.55215,0 0.9999,0.44772 0.9999,1.000005 V 13 c 0,0.552285 -0.44775,0.99999 -0.9999,0.99999 -0.5523,0 -1.00005,-0.447705 -1.00005,-0.99999 h -1.00005 v 4.999965 c 0.5523,0 1.00005,0.447749 1.00005,1.00005 0,0.5523 -0.44775,1.00005 -1.00005,1.00005 h -1.99995 c -0.5523,0 -1.00005,-0.44775 -1.00005,-1.00005 0,-0.552301 0.44775,-1.00005 1.00005,-1.00005 V 13 h -1.00005 c 0,0.552285 -0.44775,0.99999 -0.9999,0.99999 C 14.44772,13.99999 14,13.552285 14,13 Z" clip-rule="evenodd" fill-rule="evenodd" />
</svg>
