<?xml version="1.0" standalone="no"?>
<svg xmlns:xlink="http://www.w3.org/1999/xlink" width="128" height="128" viewBox="0 0 80 80" data-name="Layer 1" id="Layer_1" xmlns="http://www.w3.org/2000/svg"><defs fill="#000" style=""><style fill="#000" style="">.cls-1{fill:none;stroke:#000000;stroke-linecap:round;stroke-linejoin:round;stroke-width:4px;}</style></defs><title fill="#000" style=""/><path class="cls-1" d="M43.974,9.262C43.979,9.174,44,9.09,44,9a4,4,0,0,0-8,0c0,.09.021.174.026.262a3.981,3.981,0,0,0,7.947,0Z" fill="#000" style=""/><path class="cls-1" d="M70.738,43.974c.088.006.172.026.262.026a4,4,0,0,0,0-8c-.09,0-.174.021-.262.026a3.981,3.981,0,0,0,0,7.947Z" fill="#000" style=""/><path class="cls-1" d="M43.974,70.738c.006.088.026.172.026.262a4,4,0,0,1-8,0c0-.09.021-.174.026-.262a3.981,3.981,0,0,1,7.947,0Z" fill="#000" style=""/><path class="cls-1" d="M9.262,43.974a3.981,3.981,0,0,0,0-7.947C9.174,36.021,9.09,36,9,36a4,4,0,0,0,0,8C9.09,44,9.174,43.979,9.262,43.974Z" fill="#000" style=""/><path class="cls-1" d="M70.738,36.026A31,31,0,0,0,43.974,9.262" fill="#000" style=""/><path class="cls-1" d="M70.738,43.974A31,31,0,0,1,43.974,70.738" fill="#000" style=""/><path class="cls-1" d="M9.262,36.026A31,31,0,0,1,36.026,9.262" fill="#000" style=""/><path class="cls-1" d="M36.026,70.738A31,31,0,0,1,9.262,43.974" fill="#000" style=""/><circle class="cls-1" cx="40" cy="40" r="20" fill="#000" style=""/><path d="M54.064,39.212a2.94,2.94,0,0,0-.3-.374l-.275-.23a2.924,2.924,0,0,0-.531-.352,3.732,3.732,0,0,0-.5-.251,11.408,11.408,0,0,0-1.85-.623,28.79,28.79,0,0,0-3.561-.642c-1.562-.2-3.12-.3-4.676-.357a.2.2,0,0,1-.191-.2V34.764a.4.4,0,0,1,.4-.4H50.4a1.6,1.6,0,0,0,1.6-1.6V31.6A1.6,1.6,0,0,0,50.4,30H29.6A1.6,1.6,0,0,0,28,31.6v1.164a1.6,1.6,0,0,0,1.6,1.6h7.818a.4.4,0,0,1,.4.4v1.415a.2.2,0,0,1-.192.2c-1.556.05-3.114.153-4.677.35a28.639,28.639,0,0,0-3.561.648,11.417,11.417,0,0,0-1.85.627,3.738,3.738,0,0,0-.5.252,2.929,2.929,0,0,0-.531.352l-.275.231a2.941,2.941,0,0,0-.3.374,1.925,1.925,0,0,0,0,2.308,2.952,2.952,0,0,0,.3.376l.275.233a2.965,2.965,0,0,0,.53.356,3.779,3.779,0,0,0,.5.256,11.512,11.512,0,0,0,1.848.642,28.759,28.759,0,0,0,3.561.677c1.565.21,3.126.327,4.686.39a.2.2,0,0,1,.19.2V52.4a1.6,1.6,0,0,0,1.6,1.6h1.164a1.6,1.6,0,0,0,1.6-1.6V44.645a.2.2,0,0,1,.19-.2c1.56-.063,3.121-.179,4.686-.39a28.758,28.758,0,0,0,3.561-.678,11.509,11.509,0,0,0,1.848-.642,3.778,3.778,0,0,0,.5-.256,2.965,2.965,0,0,0,.53-.356l.275-.233a2.944,2.944,0,0,0,.3-.376,1.922,1.922,0,0,0,0-2.307ZM40,41.756c-6.124,0-11.089-.631-11.089-1.409,0-.674,3.723-1.237,8.7-1.376a.2.2,0,0,1,.21.2V40.4a.6.6,0,0,0,.6.6h3.164a.6.6,0,0,0,.6-.6V39.172a.2.2,0,0,1,.21-.2c4.974.139,8.7.7,8.7,1.376C51.089,41.125,46.124,41.756,40,41.756Z" fill="#000" style=""/></svg>