<svg fill="none" height="16" viewBox="0 0 16 16" width="16" xmlns="http://www.w3.org/2000/svg">
    <g clip-path="url(#clip0_279_2977)">
        <path clip-rule="evenodd" d="M9.99996 1.99984C8.90985 1.99984 7.92273 2.43503 7.20055 3.14268C6.93756 3.40037 6.51548 3.39607 6.25779 3.13309C6.0001 2.87011 6.00439 2.44802 6.26737 2.19033C7.22865 1.24839 8.547 0.666504 9.99996 0.666504C12.9455 0.666504 15.3333 3.05432 15.3333 5.99984C15.3333 7.45278 14.7514 8.77122 13.8094 9.73246C13.5516 9.99543 13.1296 9.99968 12.8666 9.74197C12.6036 9.48426 12.5994 9.06217 12.8571 8.79921C13.5648 8.07712 14 7.08996 14 5.99984C14 3.7907 12.2091 1.99984 9.99996 1.99984ZM5.99996 5.99984C3.79082 5.99984 1.99996 7.79069 1.99996 9.99984C1.99996 12.209 3.79082 13.9998 5.99996 13.9998C8.2091 13.9998 9.99996 12.209 9.99996 9.99984C9.99996 7.79069 8.2091 5.99984 5.99996 5.99984ZM0.666626 9.99984C0.666626 7.05431 3.05444 4.6665 5.99996 4.6665C8.94548 4.6665 11.3333 7.05431 11.3333 9.99984C11.3333 12.9454 8.94548 15.3332 5.99996 15.3332C3.05444 15.3332 0.666626 12.9454 0.666626 9.99984Z"
              fill="white"
              fill-rule="evenodd"/>
    </g>
    <defs>
        <clipPath id="clip0_279_2977">
            <rect fill="white" height="16" width="16"/>
        </clipPath>
    </defs>
</svg>
