<svg width="24" height="24" viewBox="0 0 24 24" fill="none" xmlns="http://www.w3.org/2000/svg">
	<path fill-rule="evenodd" clip-rule="evenodd" d="M12 4.94595C10.61 4.94595 9.48315 6.10758 9.48315 7.54054C9.48315 8.9735 10.61 10.1351 12 10.1351C13.39 10.1351 14.5169 8.97349 14.5169 7.54054C14.5169 6.10759 13.39 4.94595 12 4.94595ZM7.59551 7.54054C7.59551 5.03287 9.56746 3 12 3C14.4325 3 16.4045 5.03286 16.4045 7.54054C16.4045 10.0482 14.4325 12.0811 12 12.0811C9.56746 12.0811 7.59551 10.0482 7.59551 7.54054ZM12 14.7568C9.17652 14.7568 6.88764 17.1163 6.88764 20.027C6.88764 20.5644 6.46508 21 5.94382 21C5.42256 21 5 20.5644 5 20.027C5 16.0416 8.13401 12.8108 12 12.8108C15.866 12.8108 19 16.0416 19 20.027C19 20.5644 18.5774 21 18.0562 21C17.5349 21 17.1124 20.5644 17.1124 20.027C17.1124 17.1163 14.8235 14.7568 12 14.7568Z" />
</svg>
