<svg fill="none" height="16" viewBox="0 0 16 16" width="16" xmlns="http://www.w3.org/2000/svg">
    <path clip-rule="evenodd" d="M8 2.72749C6.9289 2.72749 6.06061 3.59579 6.06061 4.66689C6.06061 5.73799 6.9289 6.60628 8 6.60628C9.07108 6.60628 9.9394 5.73798 9.9394 4.66689C9.9394 3.59579 9.07108 2.72749 8 2.72749ZM4.60606 4.66689C4.60606 2.79247 6.12558 1.27295 8 1.27295C9.87439 1.27295 11.3939 2.79246 11.3939 4.66689C11.3939 6.54131 9.87439 8.06083 8 8.06083C6.12558 8.06083 4.60606 6.54131 4.60606 4.66689ZM8 10.0608C5.82434 10.0608 4.06061 11.8246 4.06061 14.0002C4.06061 14.4019 3.735 14.7275 3.33334 14.7275C2.93167 14.7275 2.60606 14.4019 2.60606 14.0002C2.60606 11.0212 5.02102 8.60628 8 8.60628C10.979 8.60628 13.3939 11.0212 13.3939 14.0002C13.3939 14.4019 13.0683 14.7275 12.6667 14.7275C12.265 14.7275 11.9394 14.4019 11.9394 14.0002C11.9394 11.8245 10.1757 10.0608 8 10.0608Z"
          fill="white"
          fill-rule="evenodd"/>
</svg>
