<svg fill="none" height="24" viewBox="0 0 24 24" width="24" xmlns="http://www.w3.org/2000/svg">
	<path d="m 21.156976,2 c 1.51365,3.011115 2.11245,6.488895 1.73145,10.000005 -0.2178,3.511081 -1.4157,6.98883 -3.4518,9.999929 l -1.66605,-1.11105 c 1.75305,-2.7 2.77665,-5.777699 2.94,-8.888879 C 21.080776,8.8889 20.590726,5.81111 19.295026,3.11111 Z M 4.5622815,2 6.2282865,3.11111 c -1.753125,2.7 -2.77668,5.77779 -2.940015,8.888895 -0.37023,3.11118 0.130665,6.188879 1.415565,8.88888 l -1.84023,1.11105 C 1.339152,18.988835 0.72937196,15.522186 1.1104845,12.000005 1.3282635,8.488895 2.5260465,5.011115 4.5622815,2 Z m 7.5242545,8.533335 2.526225,-3.588885 h 2.754916 L 13.251646,12.5 l 2.395531,5.466735 h -2.460856 l -1.502685,-3.744509 -2.6459995,3.69996 H 6.2936115 L 10.540307,12.233345 8.2209615,6.94445 h 2.4717905 z" />
</svg>
