<svg width="24" height="24" viewBox="0 0 24 24" fill="none" xmlns="http://www.w3.org/2000/svg">
  <path d="m 2.5,6 c 0,-1.656855 1.343145,-3 3,-3 h 10.99995 c 1.6569,0 3,1.34316 3,3 v 1.000005 c 1.1046,0 2.0001,0.895425 2.0001,1.999995 v 6 c 0,1.1046 -0.8955,1.99995 -2.0001,1.99995 V 18 c 0,1.6569 -1.3431,3 -3,3 H 5.5 c -1.65684,0 -3,-1.3431 -3,-3 z m 15,0 V 7.000005 H 13.499995 C 12.395425,7.000005 11.5,7.89543 11.5,9 v 6 c 0,1.1046 0.895425,1.99995 1.999995,1.99995 H 17.5 V 18 c 0,0.5523 -0.44775,1.00005 -1.00005,1.00005 H 5.5 C 4.9477,19.00005 4.499995,18.5523 4.499995,18 V 6 C 4.499995,5.447715 4.947715,4.999995 5.5,4.999995 H 16.49995 C 17.05225,4.999995 17.5,5.4477 17.5,6 Z m -4.000005,9 h 4.998555 0.0015 0.0014 H 19.5 V 9 h -0.9999 -5.000055 z m 4.499955,-3 c 0,0.828435 -0.67155,1.5 -1.5,1.5 -0.82845,0 -1.5,-0.671565 -1.5,-1.5 0,-0.82842 0.67155,-1.5 1.5,-1.5 0.82845,0 1.5,0.67158 1.5,1.5 z" clip-rule="evenodd" fill-rule="evenodd" />
</svg>