<svg fill="none" height="24" viewBox="0 0 24 24" width="24" xmlns="http://www.w3.org/2000/svg">
    <path clip-rule="evenodd" 
        d="M9.84604 0.222555C10.1105 0.372 10.3296 0.588745 10.4807 0.850274L17.775 13.4761C18.2423 14.285 17.9582 15.3155 17.1404 15.7777C16.8826 15.9234 16.591 16 16.2942 16H1.70555C0.763599 16 0 15.2447 0 14.3131C0 14.0195 0.0774579 13.731 0.224717 13.4761L7.51903 0.850274C7.98636 0.041355 9.0282 -0.239684 9.84604 0.222555ZM8.95411 10.7543C8.34499 10.7543 7.88815 11.1996 7.88815 11.7934C7.88815 12.4142 8.33114 12.8596 8.95411 12.8596C9.56323 12.8596 10.0201 12.4142 10.0201 11.8069C10.0201 11.1996 9.56323 10.7543 8.95411 10.7543ZM9.80688 4.21736H8.10134V9.27819H9.80688V4.21736Z"
        fill-rule="evenodd"/>
</svg>