<svg fill="none" height="24" viewBox="0 0 24 24" width="24" xmlns="http://www.w3.org/2000/svg">
	<path d="m 12.000004,4.999998 c -0.919255,0 -1.829506,0.181062 -2.678791,0.532845 C 8.4719415,5.884626 7.700268,6.400245 7.0502565,7.0502565 6.400245,7.7002545 5.884626,8.4719415 5.532843,9.321213 5.18106,10.170498 4.999998,11.080749 4.999998,12.000004 c 0,0.919243 0.181062,1.829493 0.532845,2.678779 0.351783,0.849312 0.867402,1.620972 1.5174135,2.270997 0.6500115,0.650025 1.421685,1.16559 2.2709565,1.5174 0.849285,0.35181 1.759536,0.532845 2.678791,0.532845 1.85652,0 3.637036,-0.737505 4.949776,-2.050245 1.31274,-1.31274 2.050245,-3.093269 2.050245,-4.949776 0,-1.856519 -0.737505,-3.636994 -2.050245,-4.9497475 C 15.63704,5.7374895 13.856524,4.999998 12.000004,4.999998 Z M 3,12.000004 C 3,9.6130425 3.948213,7.323861 5.636037,5.636037 7.3238745,3.948213 9.613056,3 12.000004,3 c 2.386949,0 4.676131,0.948213 6.363901,2.636037 1.687905,1.687824 2.636145,3.9770055 2.636145,6.363967 0,2.386936 -0.94824,4.676131 -2.636145,6.363901 -1.68777,1.687905 -3.976952,2.636145 -6.3639,2.636145 -2.386949,0 -4.6761305,-0.94824 -6.363968,-2.636145 C 3.948213,16.676135 3,14.38694 3,12.000004 Z m 8.000006,-4.000009 c 0,-0.2652075 0.105353,-0.519561 0.292895,-0.707103 0.187529,-0.187542 0.441882,-0.292896 0.707103,-0.292896 h 0.01 c 0.265208,0 0.519561,0.105354 0.707103,0.292896 0.187542,0.187542 0.292896,0.4418955 0.292896,0.707103 0,0.265221 -0.105354,0.5195745 -0.292896,0.707103 -0.187542,0.187542 -0.441895,0.292896 -0.707103,0.292896 h -0.01 c -0.265221,0 -0.519574,-0.105354 -0.707103,-0.292896 C 11.105359,8.5195695 11.000005,8.265216 11.000006,7.999995 Z m 0.01,8.00006 c 0,0.26514 0.105354,0.51948 0.292882,0.706995 C 11.49043,16.8947 11.744784,17 12.010005,17 c 0.265207,0 0.519561,-0.1053 0.707103,-0.29295 0.187542,-0.187515 0.292896,-0.441855 0.292896,-0.706995 v -5.000063 c 0,-0.265207 -0.105354,-0.519561 -0.292896,-0.707103 -0.187542,-0.187528 -0.441896,-0.292896 -0.707103,-0.292896 -0.265221,0 -0.519575,0.105368 -0.707117,0.292896 -0.187528,0.187542 -0.292882,0.441896 -0.292882,0.707103 z" clip-rule="evenodd" fill-rule="evenodd" />
</svg>
