<svg fill="none" height="24" viewBox="0 0 24 24" width="24" xmlns="http://www.w3.org/2000/svg">
  <path
     fill-rule="evenodd"
     d="m 12.84604,4.2225549 c 0.26446,0.149445 0.48356,0.36619 0.63466,0.627719 L 20.775,17.4761 c 0.4673,0.8089 0.1832,1.8394 -0.6346,2.3016 C 19.8826,19.9234 19.591,20 19.2942,20 H 4.70555 C 3.763599,20 3,19.2447 3,18.3131 3,18.0195 3.0774579,17.731 3.224717,17.4761 L 10.51903,4.8502739 c 0.46733,-0.808919 1.50917,-1.089958 2.32701,-0.627719 z M 11.95411,14.7543 c -0.60912,0 -1.06596,0.4453 -1.06596,1.0391 0,0.6208 0.44299,1.0662 1.06596,1.0662 0.60912,0 1.06599,-0.4454 1.06599,-1.0527 0,-0.6073 -0.45687,-1.0526 -1.06599,-1.0526 z M 12.80688,8.2173599 H 11.10134 V 13.27819 h 1.70554 z"
     clip-rule="evenodd" />
</svg>
