<svg fill="none" height="24" viewBox="0 0 24 24" width="24" xmlns="http://www.w3.org/2000/svg">
    <path
            d="M11.3213 9.80691C11.4588 9.39441 12.0413 9.39441 12.1788 9.80691L12.9849 12.2282C13.1624 12.7604 13.4613 13.244 13.8581 13.6406C14.2549 14.0373 14.7386 14.336 15.2709 14.5132L17.6907 15.3194C18.1031 15.4569 18.1031 16.0394 17.6907 16.1769L15.2697 16.9832C14.7375 17.1607 14.2539 17.4597 13.8573 17.8565C13.4608 18.2533 13.1621 18.7371 12.9849 19.2695L12.1788 21.6895C12.1491 21.7798 12.0917 21.8584 12.0147 21.9142C11.9377 21.97 11.8451 22 11.75 22C11.655 22 11.5624 21.97 11.4854 21.9142C11.4084 21.8584 11.351 21.7798 11.3213 21.6895L10.5152 19.2682C10.3379 18.7361 10.0391 18.2526 9.64251 17.856C9.24595 17.4593 8.76248 17.1605 8.23042 16.9832L5.80943 16.1769C5.71912 16.1473 5.64047 16.0899 5.58471 16.0129C5.52895 15.9359 5.49893 15.8433 5.49893 15.7482C5.49893 15.6531 5.52895 15.5605 5.58471 15.4835C5.64047 15.4065 5.71912 15.3491 5.80943 15.3194L8.23042 14.5132C8.76248 14.3358 9.24595 14.037 9.64251 13.6404C10.0391 13.2438 10.3379 12.7603 10.5152 12.2282L11.3213 9.80691ZM6.49311 3.43313C6.51103 3.379 6.54556 3.3319 6.59178 3.29851C6.638 3.26512 6.69356 3.24715 6.75058 3.24715C6.8076 3.24715 6.86316 3.26512 6.90938 3.29851C6.95561 3.3319 6.99013 3.379 7.00805 3.43313L7.49175 4.88564C7.70798 5.53314 8.21542 6.04065 8.86285 6.2569L10.3152 6.74065C10.3693 6.75857 10.4164 6.7931 10.4498 6.83933C10.4832 6.88555 10.5012 6.94113 10.5012 6.99815C10.5012 7.05517 10.4832 7.11074 10.4498 7.15697C10.4164 7.2032 10.3693 7.23773 10.3152 7.25565L8.86285 7.7394C8.54355 7.8458 8.2534 8.02511 8.01541 8.26312C7.77743 8.50114 7.59814 8.79131 7.49175 9.11066L7.00805 10.5632C6.99013 10.6173 6.95561 10.6644 6.90938 10.6978C6.86316 10.7312 6.8076 10.7491 6.75058 10.7491C6.69356 10.7491 6.638 10.7312 6.59178 10.6978C6.54556 10.6644 6.51103 10.6173 6.49311 10.5632L6.00941 9.11066C5.90303 8.79131 5.72374 8.50114 5.48575 8.26312C5.24776 8.02511 4.95762 7.8458 4.63831 7.7394L3.18596 7.25565C3.13184 7.23773 3.08474 7.2032 3.05135 7.15697C3.01797 7.11074 3 7.05517 3 6.99815C3 6.94113 3.01797 6.88555 3.05135 6.83933C3.08474 6.7931 3.13184 6.75857 3.18596 6.74065L4.63831 6.2569C4.95762 6.1505 5.24776 5.97119 5.48575 5.73318C5.72374 5.49516 5.90303 5.20499 6.00941 4.88564L6.49311 3.43313ZM15.3284 2.12188C15.3407 2.08629 15.3639 2.05542 15.3946 2.03358C15.4252 2.01174 15.462 2 15.4996 2C15.5373 2 15.574 2.01174 15.6047 2.03358C15.6354 2.05542 15.6585 2.08629 15.6709 2.12188L15.9933 3.08938C16.1371 3.52188 16.4758 3.86064 16.9082 4.00439L17.8756 4.32689C17.9112 4.33923 17.9421 4.36235 17.9639 4.39304C17.9858 4.42373 17.9975 4.46047 17.9975 4.49814C17.9975 4.53581 17.9858 4.57254 17.9639 4.60324C17.9421 4.63393 17.9112 4.65705 17.8756 4.66939L16.9082 4.99189C16.6951 5.06279 16.5015 5.18241 16.3427 5.34125C16.1838 5.50008 16.0642 5.69375 15.9933 5.90689L15.6709 6.8744C15.6585 6.90999 15.6354 6.94085 15.6047 6.9627C15.574 6.98454 15.5373 6.99628 15.4996 6.99628C15.462 6.99628 15.4252 6.98454 15.3946 6.9627C15.3639 6.94085 15.3407 6.90999 15.3284 6.8744L15.0059 5.90689C14.935 5.69375 14.8154 5.50008 14.6566 5.34125C14.4978 5.18241 14.3042 5.06279 14.091 4.99189L13.1249 4.66939C13.0893 4.65705 13.0584 4.63393 13.0366 4.60324C13.0148 4.57254 13.003 4.53581 13.003 4.49814C13.003 4.46047 13.0148 4.42373 13.0366 4.39304C13.0584 4.36235 13.0893 4.33923 13.1249 4.32689L14.0923 4.00439C14.5247 3.86064 14.8635 3.52188 15.0072 3.08938L15.3284 2.12313V2.12188Z"/>
</svg>