
<svg clip-rule="evenodd" fill-rule="evenodd" stroke-linejoin="round" stroke-miterlimit="2" viewBox="0 0 1080 1080" xmlns="http://www.w3.org/2000/svg"><g fill-rule="nonzero"><path d="m-104.882-104.882c57.924 0 104.882 46.957 104.882 104.882s-46.958 104.882-104.882 104.882c-57.925 0-104.882-46.957-104.882-104.882s46.957-104.882 104.882-104.882" fill="#e61e3d" transform="matrix(0 -5.05329982268 -5.05329982268 0 539.99905474 10.000529788)"/><g fill="#fff"><path d="m-1.142-12.332c2.823.42 3.399-3.065 1.142-3.785-15.247-4.862-61.822-6.574-78.159 8.125-6.842 6.156.034 14.762 6.881 8.612 13.672-12.28 48.133-16.227 70.136-12.952z" transform="matrix(5.09189447959 0 0 5.09189447959 537.05548958775 740.31171087561)"/><path d="m-4.462-4.434c9.235.057 8.796 24.355-1.828 24.355-10.625 0-7.407-24.413 1.828-24.355zm-67.983 18.063c-.988-8.722 2.103-19.014 6.257-19.014 3.256 0 1.837 15.028-6.257 19.014m-29.247-.074c-.989-8.663 2.111-19.014 6.284-19.014 3.963 0 1.821 15.065-6.284 19.014m94.376 15.542c22.71 0 24.548-41.239 3.502-42.788-14.608-1.074-19.65 15.622-19.064 27.057-2.498 3.488-7.233 6.666-12.455 6.666-9.975 0-8.445-21.191-3.239-24.788 2.161-1.494 3.122-.3 3.336.143.066.137.205.424-.046 1.05-.941 2.351.203 5.019 2.553 5.958 2.351.941 5.018-.203 5.958-2.553 2.828-7.065-2.194-14.45-9.804-14.468-11.319-.026-17.091 14.975-14.793 27.499-4.87 5.402-13.474 9.74-17.472 5.591 6.267-2.864 11.138-11.147 11.766-19.045.583-7.337-2.859-12.923-8.464-13.821-13.858-2.22-19.304 18.44-14.673 31.689-6.292 3.411-14.631 5.008-17.695 1.22-.103-.068 10.543-5.555 11.622-19.17.582-7.337-2.869-12.921-8.477-13.814-14.339-2.285-19.871 19.979-14.068 33.289-7.917 4.196-10.851-2.275-9.442-19.722 1.093-13.539-1.041-20.918-9.714-20.941-3.256-.008-7.703.989-11.684 9.85-2.468-4.315-6.838-6.307-11.543-4.702-3.746 1.278-6.499 4.225-8.587 11.442-1.115-.376-2.373-.325-3.509.242-2.265 1.13-3.186 3.882-2.056 6.147.325.652 1.486 3.567 3.447 14.632.232 6.826 1.183 13.224 2.818 17.587 2.061 5.499 9.416 3.685 8.856-2.161-.831-8.672-4.681-24.681-.77-35.472 1.169-3.227 3.927-5.111 5.163 2.461.645 3.949 1.189 8.738 1.587 14.752s9.203 5.545 9.154-.482c-.079-9.735 2.1-18.263 5.037-23.059.851-1.389 2.789-1.233 2.92.967.32 5.421-1.292 14.182-.338 22.095 1.384 11.481 4.624 16.691 9.786 17.975 5.718 1.42 12.491-5.216 12.933-5.697 2.114 1.971 4.785 3.626 9.27 3.626 4.418 0 10.653-1.805 17.298-6.826 2.754 4.409 7.041 6.899 11.926 6.899 5.325 0 12.925-3.573 16.855-9.395 2.784 5.86 7.899 9.321 13.956 9.321 6.698 0 11.713-3.894 14.707-7.941 2.608 5.483 7.404 8.687 13.443 8.687z" transform="matrix(5.09189447959 0 0 5.09189447959 933.47763707921 465.44184456372)"/></g></g></svg>