<svg width="1440" height="1720" viewBox="0 0 1440 1720" xmlns="http://www.w3.org/2000/svg"><style>
        text {
          font-family: system-ui, sans-serif;
          fill: #000;
        }
        .bg {
          fill: #fff;
        }
        .icon {
          fill: #000;
          opacity: 0.8;
        }

        /* header/sidebar styles */
        .header {
          fill: #f8f8f8;
        }
        .headerDate {
          font-size: 14px;
          font-weight: bold;
        }
        .logoIcon {
          fill: #4660F9;
        }
        .tick {
          fill: #666;
          font-weight: bold;
        }
        .tickLine {
          stroke: #666;
        }
        .sidebarDivider {
          stroke: #ddd;
        }

        /* track styles */
        .boxText {
          opacity: 0.7;
        }
        .date {
          fill: #999;
          font-size: 12px;
        }
        .progressOuter {
          fill: rgba(255,255,255,0.3);
        }
        .progressInner {
          fill: rgba(0,0,0,0.5);
        }
        .closedGroup &gt; text, .closedGroup &gt; use {
          fill: #999;
        }
        .subtext {
          opacity: 0.7;
        }

        /* nested track styles */
        .nestedBox {
          opacity: 0.6;
        }
        .nestedBg {
          fill: #f8f8f8;
        }
      </style><defs><filter id="shadow"><feDropShadow dx="0" dy="1" stdDeviation="1" flood-color="#ccc"></feDropShadow></filter><clipPath id="dont-overlap-sidebar"><rect x="350" y="0" width="1090" height="1720"></rect></clipPath><clipPath id="sidebar-contents"><rect x="0" y="0" width="350" height="1720"></rect></clipPath><linearGradient id="sidebarShadow" x1="0%" y1="0%" x2="100%" y2="0%"><stop offset="0%" style="stop-color: rgb(100, 100, 100); stop-opacity: 0.15;"></stop><stop offset="100%" style="stop-color: rgb(100, 100, 100); stop-opacity: 0;"></stop></linearGradient><path id="projectIcon" d="M4 4v2h8V4zm0-2h8a2 2 0 012 2v2a2 2 0 01-2 2H4a2 2 0 01-2-2V4a2 2 0 012-2zm4 9v2h12v-2zm0-2h12a2 2 0 012 2v2a2 2 0 01-2 2H8a2 2 0 01-2-2v-2a2 2 0 012-2zm-4 9v2h3v-2zm0-2h3a2 2 0 012 2v2a2 2 0 01-2 2H4a2 2 0 01-2-2v-2a2 2 0 012-2z" transform="scale(0.7)"></path><path id="epicIcon" d="M4.667 2A.667.667 0 004 2.667v11.231l3.12-2.738a1.333 1.333 0 011.76 0L12 13.898V2.667A.667.667 0 0011.333 2zM11.333.667a2 2 0 012 2v11.231a1.333 1.333 0 01-2.212 1.003L8 12.163 4.88 14.9a1.333 1.333 0 01-2.213-1.003V2.667a2 2 0 012-2zM9.667 3.333H6v6h4V8H7.333V7h2V5.667h-2v-1h2.334z"></path><path id="epicIconClosed" d="M12 8.04a.667.667 0 111.333 0v5.778a1.333 1.333 0 01-2.234.983L8 11.96 4.901 14.8a1.333 1.333 0 01-2.234-.982V2.667a2 2 0 012-2h3.349a.667.667 0 110 1.333h-3.35A.667.667 0 004 2.667v11.15l3.099-2.84a1.333 1.333 0 011.802 0L12 13.817zM9.805 3.529l.862.862 2.862-2.862a.667.667 0 11.942.942l-3.333 3.334a.667.667 0 01-.943 0L8.862 4.47a.667.667 0 11.943-.942z"></path><path id="zhLogo" d="M11.228 3.727V1.076H.327v2.651h7.229L.168 12.928v2.674h11.22v-2.674h-7.57zm5.644.702c-3.127 0-5.484 2.583-5.484 5.756 0 3.152 2.449 5.735 5.826 5.735 1.835 0 3.376-.748 4.192-1.7l-1.428-1.882a3.686 3.686 0 01-2.651 1.134c-1.678 0-2.833-1.088-3.106-2.607h8.046c.045-.18.068-.566.068-.906 0-3.127-2.358-5.53-5.463-5.53zm-2.605 4.69c.318-1.382 1.269-2.334 2.652-2.334 1.292 0 2.266.793 2.583 2.334h-5.235zm42.975 1.497c0 1.586-.929 2.651-2.312 2.651-1.383 0-2.312-1.065-2.312-2.651v-5.87h-2.766v6.074c0 3.037 2.017 5.055 5.077 5.055s5.078-2.017 5.078-5.055V4.746h-2.765v5.87zM67.894 4.43v-.002c-1.405 0-2.516.566-3.308 1.496V.008H61.82v15.594h2.765v-1.087c.77.884 1.88 1.405 3.308 1.405 3.015 0 5.213-2.47 5.213-5.757 0-3.377-2.334-5.734-5.213-5.734zm-.43 8.884c-1.654 0-2.878-1.383-2.878-3.128s1.224-3.15 2.878-3.15c1.677 0 2.878 1.405 2.878 3.15 0 1.746-1.2 3.128-2.878 3.128zm-38.749-8.9c-2.976 0-4.938 2.018-4.938 5.054v6.075h2.69v-5.87c0-1.587.904-2.652 2.248-2.652 1.344 0 2.247 1.065 2.247 2.651v5.871h2.69V9.468c0-3.037-1.962-5.054-4.937-5.054zm16.376 2.44H38.18v-5.78h-2.834v14.527h2.834V9.505h6.912V15.6h2.855V1.075h-2.855z"></path></defs><rect x="0" y="0" width="1440" height="1720" class="bg"></rect><g class="track"><title>Policy Engine stage 4</title><g class="" clip-path="url(#sidebar-contents)"><use href="#projectIcon" x="20" y="76" class="icon"></use><text x="40" y="88">Policy Engine stage 4</text><text x="20" y="106" class="date">Aug 3, 2022 - Jan 12, 2023</text><line x1="0" x2="1440" y1="124" y2="124" stroke="#e7e7e7"></line></g><rect x="356.84725699977236" y="66" width="831.9417254723423" height="50" rx="2" clip-path="url(#dont-overlap-sidebar)" style="filter: url(&quot;#shadow&quot;); fill: rgb(182, 162, 221);"></rect><g class=""><use href="#projectIcon" x="366.84725699977236" y="81" class="icon"></use><text x="386.84725699977236" y="94" class="boxText" clip-path="url(#dont-overlap-sidebar)">Policy Engine stage 4<tspan class="subtext"> (4/9)</tspan></text></g><rect x="356.84725699977236" y="110" width="831.9417254723423" height="6" clip-path="url(#dont-overlap-sidebar)" class="progressOuter"></rect><rect x="356.84725699977236" y="110" width="369.7518779877077" height="6" clip-path="url(#dont-overlap-sidebar)" class="progressInner"></rect></g><g class="track"><title>Multi-user roles</title><rect x="0" y="124" width="1440" height="66" class="nestedBg"></rect><g class="" clip-path="url(#sidebar-contents)"><use href="#epicIcon" x="40" y="142" class="icon"></use><text x="60" y="154">Multi-user roles</text><text x="40" y="172" class="date">Aug 5 - Aug 26</text><line x1="0" x2="1440" y1="190" y2="190" stroke="#e7e7e7"></line></g><rect x="367.1181424994309" y="132" width="107.84429774641472" height="50" rx="2" class="nestedBox" clip-path="url(#dont-overlap-sidebar)" style="filter: url(&quot;#shadow&quot;); fill: rgb(182, 162, 221);"></rect><g class=""><use href="#epicIcon" x="377.1181424994309" y="147" class="icon"></use><text x="397.1181424994309" y="160" class="boxText" clip-path="url(#dont-overlap-sidebar)">Multi-user roles<tspan class="subtext"> (0/2)</tspan></text></g><rect x="367.1181424994309" y="176" width="107.84429774641472" height="6" clip-path="url(#dont-overlap-sidebar)" class="progressOuter"></rect></g><g class="track"><title>Multi-Policy Coverage</title><rect x="0" y="190" width="1440" height="66" class="nestedBg"></rect><g class="" clip-path="url(#sidebar-contents)"><use href="#epicIcon" x="40" y="208" class="icon"></use><text x="60" y="220">Multi-Policy Coverage</text><text x="40" y="238" class="date">Aug 26 - Sep 22</text><line x1="0" x2="1440" y1="256" y2="256" stroke="#e7e7e7"></line></g><rect x="474.96244024584564" y="198" width="138.65695424539047" height="50" rx="2" class="nestedBox" clip-path="url(#dont-overlap-sidebar)" style="filter: url(&quot;#shadow&quot;); fill: rgb(182, 162, 221);"></rect><g class=""><use href="#epicIcon" x="484.96244024584564" y="213" class="icon"></use><text x="504.96244024584564" y="226" class="boxText" clip-path="url(#dont-overlap-sidebar)">Multi-Policy Coverage<tspan class="subtext"></tspan></text></g></g><g class="track"><title>Multi-MBP projects</title><rect x="0" y="256" width="1440" height="66" class="nestedBg"></rect><g class="" clip-path="url(#sidebar-contents)"><use href="#epicIcon" x="40" y="274" class="icon"></use><text x="60" y="286">Multi-MBP projects</text><text x="40" y="304" class="date">Sep 22 - Oct 26</text><line x1="0" x2="1440" y1="322" y2="322" stroke="#e7e7e7"></line></g><rect x="613.6193944912361" y="264" width="174.60505349419532" height="50" rx="2" class="nestedBox" clip-path="url(#dont-overlap-sidebar)" style="filter: url(&quot;#shadow&quot;); fill: rgb(182, 162, 221);"></rect><g class=""><use href="#epicIcon" x="623.6193944912361" y="279" class="icon"></use><text x="643.6193944912361" y="292" class="boxText" clip-path="url(#dont-overlap-sidebar)">Multi-MBP projects<tspan class="subtext"></tspan></text></g></g><g class="track"><title>Policy Differentiation Feature</title><rect x="0" y="322" width="1440" height="66" class="nestedBg"></rect><g class="" clip-path="url(#sidebar-contents)"><use href="#epicIcon" x="40" y="340" class="icon"></use><text x="60" y="352">Policy Differentiation Feature</text><text x="40" y="370" class="date">Oct 26 - Dec 7</text><line x1="0" x2="1440" y1="388" y2="388" stroke="#e7e7e7"></line></g><rect x="788.2244479854314" y="330" width="215.68859549282945" height="50" rx="2" class="nestedBox" clip-path="url(#dont-overlap-sidebar)" style="filter: url(&quot;#shadow&quot;); fill: rgb(182, 162, 221);"></rect><g class=""><use href="#epicIcon" x="798.2244479854314" y="345" class="icon"></use><text x="818.2244479854314" y="358" class="boxText" clip-path="url(#dont-overlap-sidebar)">Policy Differentiation Feature<tspan class="subtext"></tspan></text></g></g><g class="track"><title>ESG scorecards</title><rect x="0" y="388" width="1440" height="66" class="nestedBg"></rect><g class="" clip-path="url(#sidebar-contents)"><use href="#epicIcon" x="40" y="406" class="icon"></use><text x="60" y="418">ESG scorecards</text><text x="40" y="436" class="date">Oct 26 - Dec 14</text><line x1="0" x2="1440" y1="454" y2="454" stroke="#e7e7e7"></line></g><rect x="788.2244479854314" y="396" width="251.6366947416343" height="50" rx="2" class="nestedBox" clip-path="url(#dont-overlap-sidebar)" style="filter: url(&quot;#shadow&quot;); fill: rgb(182, 162, 221);"></rect><g class=""><use href="#epicIcon" x="798.2244479854314" y="411" class="icon"></use><text x="818.2244479854314" y="424" class="boxText" clip-path="url(#dont-overlap-sidebar)">ESG scorecards<tspan class="subtext"></tspan></text></g></g><g class="track"><title>Real world MRV accounting</title><rect x="0" y="454" width="1440" height="66" class="nestedBg"></rect><g class="" clip-path="url(#sidebar-contents)"><use href="#epicIcon" x="40" y="472" class="icon"></use><text x="60" y="484">Real world MRV accounting</text><text x="40" y="502" class="date">Aug 5, 2022 - Jan 12, 2023</text><line x1="0" x2="1440" y1="520" y2="520" stroke="#e7e7e7"></line></g><rect x="367.1181424994309" y="462" width="821.6708399726838" height="50" rx="2" class="nestedBox" clip-path="url(#dont-overlap-sidebar)" style="filter: url(&quot;#shadow&quot;); fill: rgb(182, 162, 221);"></rect><g class=""><use href="#epicIcon" x="377.1181424994309" y="477" class="icon"></use><text x="397.1181424994309" y="490" class="boxText" clip-path="url(#dont-overlap-sidebar)">Real world MRV accounting<tspan class="subtext"> (1/2)</tspan></text></g><rect x="367.1181424994309" y="506" width="821.6708399726838" height="6" clip-path="url(#dont-overlap-sidebar)" class="progressOuter"></rect><rect x="367.1181424994309" y="506" width="410.8354199863419" height="6" clip-path="url(#dont-overlap-sidebar)" class="progressInner"></rect></g><g class="track"><title>3rd Party Content Providers</title><rect x="0" y="520" width="1440" height="66" class="nestedBg"></rect><g class="" clip-path="url(#sidebar-contents)"><use href="#epicIcon" x="40" y="538" class="icon"></use><text x="60" y="550">3rd Party Content Providers</text><text x="40" y="568" class="date">Dec 7, 2022 - Jan 12, 2023</text><line x1="0" x2="1440" y1="586" y2="586" stroke="#e7e7e7"></line></g><rect x="1003.9130434782609" y="528" width="184.87593899385377" height="50" rx="2" class="nestedBox" clip-path="url(#dont-overlap-sidebar)" style="filter: url(&quot;#shadow&quot;); fill: rgb(182, 162, 221);"></rect><g class=""><use href="#epicIcon" x="1013.9130434782609" y="543" class="icon"></use><text x="1033.913043478261" y="556" class="boxText" clip-path="url(#dont-overlap-sidebar)">3rd Party Content Providers<tspan class="subtext"> (3/5)</tspan></text></g><rect x="1003.9130434782609" y="572" width="184.87593899385377" height="6" clip-path="url(#dont-overlap-sidebar)" class="progressOuter"></rect><rect x="1003.9130434782609" y="572" width="110.92556339631226" height="6" clip-path="url(#dont-overlap-sidebar)" class="progressInner"></rect></g><g class="track"><title>QA and Developer Enablement</title><g class="" clip-path="url(#sidebar-contents)"><use href="#projectIcon" x="20" y="604" class="icon"></use><text x="40" y="616">QA and Developer Enablement</text><text x="20" y="634" class="date">Aug 3, 2022 - Jan 28, 2023</text><line x1="0" x2="1440" y1="652" y2="652" stroke="#e7e7e7"></line></g><rect x="356.84725699977236" y="594" width="914.1088094696108" height="50" rx="2" clip-path="url(#dont-overlap-sidebar)" style="filter: url(&quot;#shadow&quot;); fill: rgb(200, 205, 234);"></rect><g class=""><use href="#projectIcon" x="366.84725699977236" y="609" class="icon"></use><text x="386.84725699977236" y="622" class="boxText" clip-path="url(#dont-overlap-sidebar)">QA and Developer Enablement<tspan class="subtext"> (14/19)</tspan></text></g><rect x="356.84725699977236" y="638" width="914.1088094696108" height="6" clip-path="url(#dont-overlap-sidebar)" class="progressOuter"></rect><rect x="356.84725699977236" y="638" width="673.5538596091869" height="6" clip-path="url(#dont-overlap-sidebar)" class="progressInner"></rect></g><g class="track"><title>Migration Guide</title><rect x="0" y="652" width="1440" height="66" class="nestedBg"></rect><g class="" clip-path="url(#sidebar-contents)"><use href="#epicIcon" x="40" y="670" class="icon"></use><text x="60" y="682">Migration Guide</text><text x="40" y="700" class="date">Aug 25 - Sep 8</text><line x1="0" x2="1440" y1="718" y2="718" stroke="#e7e7e7"></line></g><rect x="469.82699749601636" y="660" width="71.89619849760982" height="50" rx="2" class="nestedBox" clip-path="url(#dont-overlap-sidebar)" style="filter: url(&quot;#shadow&quot;); fill: rgb(200, 205, 234);"></rect><g class=""><use href="#epicIcon" x="479.82699749601636" y="675" class="icon"></use><text x="499.82699749601636" y="688" class="boxText" clip-path="url(#dont-overlap-sidebar)">Migration Guide<tspan class="subtext"></tspan></text></g></g><g class="track"><title>API automation test suite</title><rect x="0" y="718" width="1440" height="66" class="nestedBg"></rect><g class="" clip-path="url(#sidebar-contents)"><use href="#epicIcon" x="40" y="736" class="icon"></use><text x="60" y="748">API automation test suite</text><text x="40" y="766" class="date">Aug 5 - Sep 30</text><line x1="0" x2="1440" y1="784" y2="784" stroke="#e7e7e7"></line></g><rect x="367.1181424994309" y="726" width="287.5847939904393" height="50" rx="2" class="nestedBox" clip-path="url(#dont-overlap-sidebar)" style="filter: url(&quot;#shadow&quot;); fill: rgb(200, 205, 234);"></rect><g class=""><use href="#epicIcon" x="377.1181424994309" y="741" class="icon"></use><text x="397.1181424994309" y="754" class="boxText" clip-path="url(#dont-overlap-sidebar)">API automation test suite<tspan class="subtext"> (11/13)</tspan></text></g><rect x="367.1181424994309" y="770" width="287.5847939904393" height="6" clip-path="url(#dont-overlap-sidebar)" class="progressOuter"></rect><rect x="367.1181424994309" y="770" width="243.34097953037173" height="6" clip-path="url(#dont-overlap-sidebar)" class="progressInner"></rect></g><g class="track"><title>QA: Disaster Recovery Testing</title><rect x="0" y="784" width="1440" height="66" class="nestedBg"></rect><g class="" clip-path="url(#sidebar-contents)"><use href="#epicIcon" x="40" y="802" class="icon"></use><text x="60" y="814">QA: Disaster Recovery Testing</text><text x="40" y="832" class="date">Sep 29 - Oct 26</text><line x1="0" x2="1440" y1="850" y2="850" stroke="#e7e7e7"></line></g><rect x="649.5674937400411" y="792" width="138.65695424539035" height="50" rx="2" class="nestedBox" clip-path="url(#dont-overlap-sidebar)" style="filter: url(&quot;#shadow&quot;); fill: rgb(200, 205, 234);"></rect><g class=""><use href="#epicIcon" x="659.5674937400411" y="807" class="icon"></use><text x="679.5674937400411" y="820" class="boxText" clip-path="url(#dont-overlap-sidebar)">QA: Disaster Recovery Testing<tspan class="subtext"></tspan></text></g></g><g class="track"><title>Developer-level UI automation test</title><rect x="0" y="850" width="1440" height="66" class="nestedBg"></rect><g class="" clip-path="url(#sidebar-contents)"><use href="#epicIcon" x="40" y="868" class="icon"></use><text x="60" y="880">Developer-level UI automation test</text><text x="40" y="898" class="date">Sep 30 - Oct 27</text><line x1="0" x2="1440" y1="916" y2="916" stroke="#e7e7e7"></line></g><rect x="654.7029364898702" y="858" width="138.65695424539047" height="50" rx="2" class="nestedBox" clip-path="url(#dont-overlap-sidebar)" style="filter: url(&quot;#shadow&quot;); fill: rgb(200, 205, 234);"></rect><g class=""><use href="#epicIcon" x="664.7029364898702" y="873" class="icon"></use><text x="684.7029364898702" y="886" class="boxText" clip-path="url(#dont-overlap-sidebar)">Developer-level UI automation test<tspan class="subtext"> (1/2)</tspan></text></g><rect x="654.7029364898702" y="902" width="138.65695424539047" height="6" clip-path="url(#dont-overlap-sidebar)" class="progressOuter"></rect><rect x="654.7029364898702" y="902" width="69.32847712269523" height="6" clip-path="url(#dont-overlap-sidebar)" class="progressInner"></rect></g><g class="track"><title>Library of Policy examples</title><rect x="0" y="916" width="1440" height="66" class="nestedBg"></rect><g class="" clip-path="url(#sidebar-contents)"><use href="#epicIcon" x="40" y="934" class="icon"></use><text x="60" y="946">Library of Policy examples</text><text x="40" y="964" class="date">Oct 26 - Dec 1</text><line x1="0" x2="1440" y1="982" y2="982" stroke="#e7e7e7"></line></g><rect x="788.2244479854314" y="924" width="184.87593899385377" height="50" rx="2" class="nestedBox" clip-path="url(#dont-overlap-sidebar)" style="filter: url(&quot;#shadow&quot;); fill: rgb(200, 205, 234);"></rect><g class=""><use href="#epicIcon" x="798.2244479854314" y="939" class="icon"></use><text x="818.2244479854314" y="952" class="boxText" clip-path="url(#dont-overlap-sidebar)">Library of Policy examples<tspan class="subtext"></tspan></text></g></g><g class="track"><title>QA: Soak testing</title><rect x="0" y="982" width="1440" height="66" class="nestedBg"></rect><g class="" clip-path="url(#sidebar-contents)"><use href="#epicIcon" x="40" y="1000" class="icon"></use><text x="60" y="1012">QA: Soak testing</text><text x="40" y="1030" class="date">Nov 3, 2022 - Jan 20, 2023</text><line x1="0" x2="1440" y1="1048" y2="1048" stroke="#e7e7e7"></line></g><rect x="829.3079899840656" y="990" width="400.5645344866833" height="50" rx="2" class="nestedBox" clip-path="url(#dont-overlap-sidebar)" style="filter: url(&quot;#shadow&quot;); fill: rgb(200, 205, 234);"></rect><g class=""><use href="#epicIcon" x="839.3079899840656" y="1005" class="icon"></use><text x="859.3079899840656" y="1018" class="boxText" clip-path="url(#dont-overlap-sidebar)">QA: Soak testing<tspan class="subtext"></tspan></text></g></g><g class="track"><title>QA: Automated compatibility testing </title><rect x="0" y="1048" width="1440" height="66" class="nestedBg"></rect><g class="" clip-path="url(#sidebar-contents)"><use href="#epicIcon" x="40" y="1066" class="icon"></use><text x="60" y="1078">QA: Automated compatibility testing </text><text x="40" y="1096" class="date">Nov 3, 2022 - Jan 20, 2023</text><line x1="0" x2="1440" y1="1114" y2="1114" stroke="#e7e7e7"></line></g><rect x="829.3079899840656" y="1056" width="400.5645344866833" height="50" rx="2" class="nestedBox" clip-path="url(#dont-overlap-sidebar)" style="filter: url(&quot;#shadow&quot;); fill: rgb(200, 205, 234);"></rect><g class=""><use href="#epicIcon" x="839.3079899840656" y="1071" class="icon"></use><text x="859.3079899840656" y="1084" class="boxText" clip-path="url(#dont-overlap-sidebar)">QA: Automated compatibility testing <tspan class="subtext"></tspan></text></g></g><g class="track"><title>QA: Scalability and capacity testing</title><rect x="0" y="1114" width="1440" height="66" class="nestedBg"></rect><g class="" clip-path="url(#sidebar-contents)"><use href="#epicIcon" x="40" y="1132" class="icon"></use><text x="60" y="1144">QA: Scalability and capacity testing</text><text x="40" y="1162" class="date">Nov 3, 2022 - Jan 20, 2023</text><line x1="0" x2="1440" y1="1180" y2="1180" stroke="#e7e7e7"></line></g><rect x="829.3079899840656" y="1122" width="400.5645344866833" height="50" rx="2" class="nestedBox" clip-path="url(#dont-overlap-sidebar)" style="filter: url(&quot;#shadow&quot;); fill: rgb(200, 205, 234);"></rect><g class=""><use href="#epicIcon" x="839.3079899840656" y="1137" class="icon"></use><text x="859.3079899840656" y="1150" class="boxText" clip-path="url(#dont-overlap-sidebar)">QA: Scalability and capacity testing<tspan class="subtext"> (2/4)</tspan></text></g><rect x="829.3079899840656" y="1166" width="400.5645344866833" height="6" clip-path="url(#dont-overlap-sidebar)" class="progressOuter"></rect><rect x="829.3079899840656" y="1166" width="200.28226724334166" height="6" clip-path="url(#dont-overlap-sidebar)" class="progressInner"></rect></g><g class="track"><title>Sustainability tokens lifecycle management</title><g class="" clip-path="url(#sidebar-contents)"><use href="#projectIcon" x="20" y="1198" class="icon"></use><text x="40" y="1210">Sustainability tokens lifecycle manag…</text><text x="20" y="1228" class="date">Oct 14, 2022 - Jan 20, 2023</text><line x1="0" x2="1440" y1="1246" y2="1246" stroke="#e7e7e7"></line></g><rect x="726.59913498748" y="1188" width="503.27338948326883" height="50" rx="2" clip-path="url(#dont-overlap-sidebar)" style="filter: url(&quot;#shadow&quot;); fill: rgb(133, 213, 250);"></rect><g class=""><use href="#projectIcon" x="736.59913498748" y="1203" class="icon"></use><text x="756.59913498748" y="1216" class="boxText" clip-path="url(#dont-overlap-sidebar)">Sustainability tokens lifecycle management<tspan class="subtext"> (0/5)</tspan></text></g><rect x="726.59913498748" y="1232" width="503.27338948326883" height="6" clip-path="url(#dont-overlap-sidebar)" class="progressOuter"></rect></g><g class="track"><title>Retirement process for assets MVP</title><rect x="0" y="1246" width="1440" height="66" class="nestedBg"></rect><g class="" clip-path="url(#sidebar-contents)"><use href="#epicIcon" x="40" y="1264" class="icon"></use><text x="60" y="1276">Retirement process for assets MVP</text><text x="40" y="1294" class="date">Oct 15 - Nov 17</text><line x1="0" x2="1440" y1="1312" y2="1312" stroke="#e7e7e7"></line></g><rect x="731.7345777373093" y="1254" width="169.46961074436604" height="50" rx="2" class="nestedBox" clip-path="url(#dont-overlap-sidebar)" style="filter: url(&quot;#shadow&quot;); fill: rgb(133, 213, 250);"></rect><g class=""><use href="#epicIcon" x="741.7345777373093" y="1269" class="icon"></use><text x="761.7345777373093" y="1282" class="boxText" clip-path="url(#dont-overlap-sidebar)">Retirement process for assets MVP<tspan class="subtext"> (0/3)</tspan></text></g><rect x="731.7345777373093" y="1298" width="169.46961074436604" height="6" clip-path="url(#dont-overlap-sidebar)" class="progressOuter"></rect></g><g class="track"><title>Matched Assets</title><rect x="0" y="1312" width="1440" height="66" class="nestedBg"></rect><g class="" clip-path="url(#sidebar-contents)"><use href="#epicIcon" x="40" y="1330" class="icon"></use><text x="60" y="1342">Matched Assets</text><text x="40" y="1360" class="date">Nov 17 - Nov 30</text><line x1="0" x2="1440" y1="1378" y2="1378" stroke="#e7e7e7"></line></g><rect x="901.2041884816754" y="1320" width="66.76075574778054" height="50" rx="2" class="nestedBox" clip-path="url(#dont-overlap-sidebar)" style="filter: url(&quot;#shadow&quot;); fill: rgb(133, 213, 250);"></rect><g class=""><use href="#epicIcon" x="911.2041884816754" y="1335" class="icon"></use><text x="931.2041884816754" y="1348" class="boxText" clip-path="url(#dont-overlap-sidebar)">Matched Assets<tspan class="subtext"> (0/1)</tspan></text></g><rect x="901.2041884816754" y="1364" width="66.76075574778054" height="6" clip-path="url(#dont-overlap-sidebar)" class="progressOuter"></rect></g><g class="track"><title>Mitigation Credits</title><rect x="0" y="1378" width="1440" height="66" class="nestedBg"></rect><g class="" clip-path="url(#sidebar-contents)"><use href="#epicIcon" x="40" y="1396" class="icon"></use><text x="60" y="1408">Mitigation Credits</text><text x="40" y="1426" class="date">Nov 30 - Dec 13</text><line x1="0" x2="1440" y1="1444" y2="1444" stroke="#e7e7e7"></line></g><rect x="967.9649442294559" y="1386" width="66.76075574778054" height="50" rx="2" class="nestedBox" clip-path="url(#dont-overlap-sidebar)" style="filter: url(&quot;#shadow&quot;); fill: rgb(133, 213, 250);"></rect><g class=""><use href="#epicIcon" x="977.9649442294559" y="1401" class="icon"></use><text x="997.9649442294559" y="1414" class="boxText" clip-path="url(#dont-overlap-sidebar)">Mitigation Credits<tspan class="subtext"> (0/1)</tspan></text></g><rect x="967.9649442294559" y="1430" width="66.76075574778054" height="6" clip-path="url(#dont-overlap-sidebar)" class="progressOuter"></rect></g><g class="track"><title>DEX contract and policy rules for matching/retiring assets</title><rect x="0" y="1444" width="1440" height="66" class="nestedBg"></rect><g class="" clip-path="url(#sidebar-contents)"><use href="#epicIcon" x="40" y="1462" class="icon"></use><text x="60" y="1474">DEX contract and policy rules for mat…</text><text x="40" y="1492" class="date">Nov 17 - Dec 14</text><line x1="0" x2="1440" y1="1510" y2="1510" stroke="#e7e7e7"></line></g><rect x="901.2041884816754" y="1452" width="138.65695424539035" height="50" rx="2" class="nestedBox" clip-path="url(#dont-overlap-sidebar)" style="filter: url(&quot;#shadow&quot;); fill: rgb(133, 213, 250);"></rect><g class=""><use href="#epicIcon" x="911.2041884816754" y="1467" class="icon"></use><text x="931.2041884816754" y="1480" class="boxText" clip-path="url(#dont-overlap-sidebar)">DEX contract and policy rules for matching/retiring assets<tspan class="subtext"></tspan></text></g></g><g class="track"><title>Guardian Oracle service to verify token trust chain from within Hedera smart contracts</title><rect x="0" y="1510" width="1440" height="66" class="nestedBg"></rect><g class="" clip-path="url(#sidebar-contents)"><use href="#epicIcon" x="40" y="1528" class="icon"></use><text x="60" y="1540">Guardian Oracle service to verify tok…</text><text x="40" y="1558" class="date">Dec 14, 2022 - Jan 20, 2023</text><line x1="0" x2="1440" y1="1576" y2="1576" stroke="#e7e7e7"></line></g><rect x="1039.8611427270657" y="1518" width="190.01138174368316" height="50" rx="2" class="nestedBox" clip-path="url(#dont-overlap-sidebar)" style="filter: url(&quot;#shadow&quot;); fill: rgb(133, 213, 250);"></rect><g class=""><use href="#epicIcon" x="1049.8611427270657" y="1533" class="icon"></use><text x="1069.8611427270657" y="1546" class="boxText" clip-path="url(#dont-overlap-sidebar)">Guardian Oracle service to verify token trust chain from within Hedera smart contracts<tspan class="subtext"></tspan></text></g></g><g class="track"><title>Guardian community voting for Guardian Roadmap Features</title><g class="" clip-path="url(#sidebar-contents)"><use href="#epicIcon" x="20" y="1594" class="icon"></use><text x="40" y="1606">Guardian community voting for Guardia…</text><text x="20" y="1624" class="date">Nov 29, 2022 - Jan 31, 2023</text><line x1="0" x2="1440" y1="1642" y2="1642" stroke="#e7e7e7"></line></g><rect x="962.8295014796267" y="1584" width="323.53289323924423" height="50" rx="2" clip-path="url(#dont-overlap-sidebar)" style="filter: url(&quot;#shadow&quot;); fill: rgb(145, 226, 237);"></rect><g class=""><use href="#epicIcon" x="972.8295014796267" y="1599" class="icon"></use><text x="992.8295014796267" y="1612" class="boxText" clip-path="url(#dont-overlap-sidebar)">Guardian community voting for Guardian Roadmap Features<tspan class="subtext"></tspan></text></g></g><g class="track"><title>Community Standards</title><g class="" clip-path="url(#sidebar-contents)"><use href="#epicIcon" x="20" y="1660" class="icon"></use><text x="40" y="1672">Community Standards</text><text x="20" y="1690" class="date">Aug 3 - Oct 25</text><line x1="0" x2="1440" y1="1708" y2="1708" stroke="#e7e7e7"></line></g><rect x="356.84725699977236" y="1650" width="426.2417482358298" height="50" rx="2" clip-path="url(#dont-overlap-sidebar)" style="filter: url(&quot;#shadow&quot;); fill: rgb(182, 162, 221);"></rect><g class=""><use href="#epicIcon" x="366.84725699977236" y="1665" class="icon"></use><text x="386.84725699977236" y="1678" class="boxText" clip-path="url(#dont-overlap-sidebar)">Community Standards<tspan class="subtext"> (1/6)</tspan></text></g><rect x="356.84725699977236" y="1694" width="426.2417482358298" height="6" clip-path="url(#dont-overlap-sidebar)" class="progressOuter"></rect><rect x="356.84725699977236" y="1694" width="71.0402913726383" height="6" clip-path="url(#dont-overlap-sidebar)" class="progressInner"></rect></g><g><rect x="0" y="0" width="1440" height="62" class="header" style="filter: url(&quot;#shadow&quot;);"></rect><a href="https://www.zenhub.com"><use href="#zhLogo" x="20" y="12" class="logoIcon"></use></a><text x="20" y="45" class="headerDate">August 16, 2022</text></g><g clip-path="url(#dont-overlap-sidebar)"><text x="350" y="30" class="tick">Aug</text><text x="509.1987252447075" y="30" class="tick">Sep</text><text x="663.2620077395857" y="30" class="tick">Oct</text><text x="822.4607329842931" y="30" class="tick">Nov</text><text x="976.7379922604143" y="30" class="tick">Dec</text><text x="1135.9367175051216" y="30" class="tick">2023</text><text x="1295.1354427498293" y="30" class="tick">Feb</text>;</g><rect x="350" y="0" width="20" height="1720" fill="url(#sidebarShadow)"></rect><line x1="350" x2="350" y1="50" y2="1720" class="sidebarDivider"></line></svg>