<svg fill="none" height="32" viewBox="0 0 32 32" width="32" xmlns="http://www.w3.org/2000/svg">
	<path fill-rule="evenodd" clip-rule="evenodd" d="m 15.99997,6.6666533 c -5.154647,0 -9.3333167,4.1786697 -9.3333167,9.3333167 0,5.154587 4.1786697,9.333377 9.3333167,9.333377 5.154787,0 9.333377,-4.17859 9.333377,-9.333377 0,-5.154647 -4.17879,-9.3333167 -9.333377,-9.3333167 z M 4,15.99997 C 4,9.3725666 9.3725666,4 15.99997,4 c 6.627383,0 11.99997,5.3725866 11.99997,11.99997 0,6.627383 -5.372587,11.99997 -11.99997,11.99997 C 9.3725866,27.99994 4,22.627353 4,15.99997 Z m 17.645156,-4.535289 c 0.540999,0.499479 0.574798,1.343017 0.0752,1.884116 l -6.564064,7.111162 c -0.252399,0.273399 -0.607598,0.428799 -0.979737,0.428799 -0.37214,0 -0.727339,-0.1554 -0.979738,-0.428799 l -2.917333,-3.160612 c -0.4994585,-0.541099 -0.4656985,-1.384637 0.0754,-1.884096 0.541099,-0.499478 1.384637,-0.465718 1.884096,0.07538 l 1.937615,2.099115 5.584366,-6.049705 c 0.499398,-0.541079 1.342996,-0.574818 1.884195,-0.07536 z" />
</svg>
