<svg fill="none" height="32" viewBox="0 0 32 32" width="32" xmlns="http://www.w3.org/2000/svg">
    <path
        d="M2.66699 8C2.66699 6.89543 3.56243 6 4.66699 6C5.77156 6 6.66699 6.89543 6.66699 8C6.66699 9.10457 5.77156 10 4.66699 10C3.56243 10 2.66699 9.10457 2.66699 8ZM9.33366 8.00082C9.3337 7.26444 9.93069 6.66752 10.6671 6.66756L28.0004 6.66852C28.7368 6.66856 29.3337 7.26555 29.3337 8.00193C29.3336 8.73831 28.7366 9.33523 28.0002 9.33519L10.6669 9.33423C9.93054 9.33419 9.33362 8.7372 9.33366 8.00082ZM2.66699 16C2.66699 14.8956 3.56236 14 4.66699 14C5.77163 14 6.66699 14.8956 6.66699 16C6.66699 17.1044 5.77163 18 4.66699 18C3.56236 18 2.66699 17.1044 2.66699 16ZM9.33366 16.0009C9.3337 15.2645 9.93069 14.6676 10.6671 14.6676L28.0004 14.6687C28.7368 14.6687 29.3337 15.2657 29.3337 16.0021C29.3336 16.7385 28.7366 17.3354 28.0002 17.3353L10.6669 17.3343C9.93053 17.3342 9.33361 16.7372 9.33366 16.0009ZM2.66699 24C2.66699 22.8956 3.56236 22 4.66699 22C5.77163 22 6.66699 22.8956 6.66699 24C6.66699 25.1044 5.77163 26 4.66699 26C3.56236 26 2.66699 25.1044 2.66699 24ZM9.33366 24.0009C9.3337 23.2645 9.93069 22.6676 10.6671 22.6676L28.0004 22.6687C28.7368 22.6687 29.3337 23.2657 29.3337 24.0021C29.3336 24.7385 28.7366 25.3354 28.0002 25.3353L10.6669 25.3343C9.93053 25.3342 9.33361 24.7372 9.33366 24.0009Z"
        fill-rule="evenodd"/>
</svg>