<svg fill="none" height="32" viewBox="0 0 33 32" width="33" xmlns="http://www.w3.org/2000/svg">
    <path clip-rule="evenodd"
        d="M6.75613 12.4953C6.65095 7.30931 10.8272 2.6665 16.4998 2.6665C22.1739 2.6665 26.3487 7.30931 26.2421 12.4953C26.2375 12.7278 26.235 12.9603 26.2347 13.1928C26.2347 15.5044 26.5132 18.7226 26.7013 20.6314C26.7102 20.7255 26.7147 20.8195 26.7147 20.9121H28.3517C28.7446 20.9121 29.1214 21.06 29.3993 21.3232C29.6771 21.5864 29.8332 21.9434 29.8332 22.3156C29.8332 22.6879 29.6771 23.0448 29.3993 23.3081C29.1214 23.5713 28.7446 23.7191 28.3517 23.7191H22.4258C22.4258 25.2081 21.8014 26.636 20.6901 27.6889C19.5788 28.7417 18.0715 29.3332 16.4998 29.3332C14.9282 29.3332 13.4209 28.7417 12.3096 27.6889C11.1982 26.636 10.5739 25.2081 10.5739 23.7191H4.64799C4.25507 23.7191 3.87825 23.5713 3.60042 23.3081C3.32259 23.0448 3.1665 22.6879 3.1665 22.3156C3.1665 21.9434 3.32259 21.5864 3.60042 21.3232C3.87825 21.06 4.25507 20.9121 4.64799 20.9121H6.28502C6.28502 20.8195 6.28947 20.7255 6.29984 20.6314C6.4865 18.7226 6.76502 15.5044 6.76502 13.1928C6.76502 12.9683 6.76206 12.7367 6.75613 12.4953ZM12.0895 20.9121H23.7413L23.7458 20.9079C23.7477 20.9058 23.7492 20.9035 23.7502 20.9009V20.8925C23.5635 18.9837 23.2717 15.649 23.2717 13.1928C23.2717 12.9486 23.2747 12.6974 23.2806 12.4405C23.3591 8.63563 20.3191 5.47352 16.4998 5.47352C12.6806 5.47352 9.64058 8.63563 9.7191 12.4405C9.72502 12.6974 9.72799 12.9486 9.72799 13.1928C9.72799 15.649 9.43613 18.9837 9.24799 20.8925C9.24779 20.8943 9.24779 20.8962 9.24799 20.8981V20.9009L9.25391 20.9079C9.25514 20.9095 9.25664 20.911 9.25836 20.9121H12.0895ZM13.5369 23.7191C13.5369 24.4636 13.849 25.1776 14.4047 25.704C14.9604 26.2304 15.714 26.5262 16.4998 26.5262C17.2857 26.5262 18.0393 26.2304 18.595 25.704C19.1506 25.1776 19.4628 24.4636 19.4628 23.7191H13.5369Z"
        fill-rule="evenodd" />
</svg>