<svg width="26" height="26" viewBox="0 0 26 26" fill="none" xmlns="http://www.w3.org/2000/svg">
	<path fill-rule="evenodd" clip-rule="evenodd" d="M3.39971 11.3992C3.39971 9.27749 4.24256 7.24266 5.74285 5.74236C7.24315 4.24207 9.27798 3.39922 11.3997 3.39922C13.5214 3.39922 15.5563 4.24207 17.0566 5.74236C18.5569 7.24266 19.3997 9.27749 19.3997 11.3992C19.3997 13.521 18.5569 15.5558 17.0566 17.0561C15.5563 18.5564 13.5214 19.3992 11.3997 19.3992C9.27798 19.3992 7.24315 18.5564 5.74285 17.0561C4.24256 15.5558 3.39971 13.521 3.39971 11.3992ZM11.3997 0.199219C9.62505 0.199219 7.87579 0.620935 6.29609 1.42961C4.71638 2.23829 3.35146 3.41078 2.3138 4.85046C1.27613 6.29014 0.595437 7.9558 0.327803 9.71016C0.0601689 11.4645 0.213259 13.2574 0.774456 14.941C1.33565 16.6246 2.28889 18.1507 3.55562 19.3936C4.82234 20.6365 6.36629 21.5606 8.06023 22.0898C9.75417 22.6189 11.5496 22.738 13.2986 22.4371C15.0475 22.1362 16.7 21.424 18.1197 20.3592C18.1652 20.4197 18.2149 20.4769 18.2685 20.5304L23.0685 25.3304C23.3703 25.6219 23.7744 25.7831 24.194 25.7795C24.6135 25.7759 25.0148 25.6076 25.3114 25.3109C25.6081 25.0143 25.7763 24.613 25.78 24.1935C25.7836 23.7739 25.6224 23.3698 25.3309 23.068L20.5309 18.268C20.4774 18.2144 20.4202 18.1647 20.3597 18.1192C21.6077 16.4552 22.3677 14.4766 22.5545 12.405C22.7412 10.3335 22.3475 8.25081 21.4173 6.39043C20.4871 4.53004 19.0572 2.96544 17.2879 1.87193C15.5186 0.778423 13.4797 0.199219 11.3997 0.199219Z" />
</svg>